{
.appVersion = "1286";
DisplayStrings = (
" ?¿"
);
copyright = "Copyright 2020 The Plus Jakarta Display Project Authors (https://github.com/tokotype/PlusJakartaSans)";
customParameters = (
{
name = vendorID;
value = TOKO;
},
{
name = fsType;
value = (
);
},
{
name = Axes;
value = (
{
Name = Weight;
Tag = wght;
},
{
Name = Italic;
Tag = ital;
}
);
},
{
name = description;
value = "This custom font has been designed for +Jakarta City Branding 2020.";
},
{
name = note;
value = "Generated with version 1.0\012";
},
{
name = "Use Typo Metrics";
value = 1;
},
{
name = license;
value = "This Font Software is licensed under the SIL Open Font License, Version 1.1. This license is available with a FAQ at: http://scripts.sil.org/OFL";
},
{
name = licenseURL;
value = "http://scripts.sil.org/OFL";
}
);
date = "2020-01-25 17:25:21 +0000";
designer = "Gumpita Rahayu";
designerURL = "https://www.tokotypefaces.com";
familyName = "Plus Jakarta Display";
featurePrefixes = (
{
automatic = 1;
code = "languagesystem DFLT dflt;\012";
name = Languagesystems;
}
);
features = (
{
automatic = 1;
code = "feature subs;\012feature sinf;\012feature sups;\012feature numr;\012feature dnom;\012feature frac;\012feature ordn;\012feature pnum;\012feature tnum;\012feature salt;\012feature ss01;\012feature ss02;\012feature ss03;\012";
name = aalt;
},
{
automatic = 1;
code = "lookup ccmp_Other_1 {\012	@CombiningTopAccents = [acutecomb brevecomb caroncomb circumflexcomb dieresiscomb dotaccentcomb gravecomb hungarumlautcomb macroncomb ringcomb tildecomb];\012	@CombiningNonTopAccents = [cedillacomb ogonekcomb strokelongcomb strokeshortcomb];\012	sub [i]' @CombiningTopAccents by [idotless];\012	sub [i]' @CombiningNonTopAccents @CombiningTopAccents by [idotless];\012} ccmp_Other_1;\012";
name = ccmp;
},
{
automatic = 1;

glyphs = (
{
glyphname = A;
lastChange = "2020-02-21 18:23:37 +0000";
layers = (
{
anchors = (
{
name = bottom;
position = "{342, 0}";
},
{
name = ogonek;
position = "{615, 10}";
},
{
name = top;
position = "{342, 745}";
}
);
background = {
anchors = (
{
name = bottom;
position = "{342, 0}";
},
{
name = ogonek;
position = "{615, 10}";
},
{
name = top;
position = "{342, 745}";
}
);
paths = (
{
closed = 1;
nodes = (
"109 0 LINE",
"174 184 LINE",
"509 184 LINE",
"574 0 LINE",
"658 0 LINE",
"384 745 LINE",
"299 745 LINE",
"25 0 LINE"
);
},
{
closed = 1;
nodes = (
"351 681 LINE",
"333 681 LINE",
"484 254 LINE",
"199 254 LINE"
);
}
);
};
layerId = "30C2FD74-1A74-41AC-9C29-B288AE1DBDD7";
paths = (
{
closed = 1;
nodes = (
"109 0 LINE",
"174 184 LINE",
"509 184 LINE",
"574 0 LINE",
"658 0 LINE",
"384 745 LINE",
"299 745 LINE",
"25 0 LINE"
);
},
{
closed = 1;
nodes = (
"351 681 LINE",
"333 681 LINE",
"484 254 LINE",
"199 254 LINE"
);
}
);
width = 683;
},
{
anchors = (
{
name = bottom;
position = "{362, 0}";
},
{
name = ogonek;
position = "{651, 10}";
},
{
name = top;
position = "{362, 745}";
}
);
background = {
anchors = (
{
name = bottom;
position = "{362, 0}";
},
{
name = ogonek;
position = "{651, 10}";
},
{
name = top;
position = "{362, 745}";
}
);
paths = (
{
closed = 1;
nodes = (
"169 0 LINE",
"219 152 LINE",
"504 152 LINE",
"554 0 LINE",
"718 0 LINE",
"464 745 LINE",
"259 745 LINE",
"5 0 LINE"
);
},
{
closed = 1;
nodes = (
"384 656 LINE",
"340 656 LINE",
"460 287 LINE",
"263 287 LINE"
);
}
);
};
layerId = "9398AC28-6BE1-4A79-9C94-3CBC2F226CE7";
paths = (
{
closed = 1;
nodes = (
"169 0 LINE",
"219 152 LINE",
"504 152 LINE",
"554 0 LINE",
"718 0 LINE",
"464 745 LINE",
"259 745 LINE",
"5 0 LINE"
);
},
{
closed = 1;
nodes = (
"384 656 LINE",
"340 656 LINE",
"460 287 LINE",
"263 287 LINE"
);
}
);
width = 723;
},
{
anchors = (
{
name = bottom;
position = "{286, 0}";
},
{
name = ogonek;
position = "{561, 10}";
},
{
name = top;
position = "{418, 745}";
}
);
background = {
anchors = (
{
name = bottom;
position = "{286, 0}";
},
{
name = ogonek;
position = "{561, 10}";
},
{
name = top;
position = "{418, 745}";
}
);
paths = (
{
closed = 1;
nodes = (
"56 0 LINE",
"154 184 LINE",
"486 184 LINE",
"518 0 LINE",
"602 0 LINE",
"460 745 LINE",
"375 745 LINE",
"-31 0 LINE"
);
},
{
closed = 1;
nodes = (
"418 681 LINE",
"397 681 LINE",
"473 254 LINE",
"191 254 LINE"
);
}
);
};
layerId = "0E6515C6-4BDD-456A-90F7-F5B263F1D284";
paths = (
{
closed = 1;
nodes = (
"56 0 LINE",
"154 184 LINE",
"486 184 LINE",
"518 0 LINE",
"602 0 LINE",
"460 745 LINE",
"375 745 LINE",
"-31 0 LINE"
);
},
{
closed = 1;
nodes = (
"418 681 LINE",
"397 681 LINE",
"473 254 LINE",
"191 254 LINE"
);
}
);
width = 683;
},
{
anchors = (
{
name = bottom;
position = "{304, 0}";
},
{
name = ogonek;
position = "{595, 10}";
},
{
name = top;
position = "{425, 745}";
}
);
background = {
anchors = (
{
name = bottom;
position = "{304, 0}";
},
{
name = ogonek;
position = "{595, 10}";
},
{
name = top;
position = "{425, 745}";
}
);
paths = (
{
closed = 1;
nodes = (
"119 0 LINE",
"196 152 LINE",
"473 152 LINE",
"496 0 LINE",
"660 0 LINE",
"538 745 LINE",
"333 745 LINE",
"-53 0 LINE"
);
},
{
closed = 1;
nodes = (
"450 656 LINE",
"398 656 LINE",
"453 287 LINE",
"264 287 LINE"
);
}
);
};
layerId = "FF6420B2-C0A6-48EA-9EF6-B9F37DCCE47B";
paths = (
{
closed = 1;
nodes = (
"119 0 LINE",
"196 152 LINE",
"473 152 LINE",
"496 0 LINE",
"660 0 LINE",
"538 745 LINE",
"333 745 LINE",
"-53 0 LINE"
);
},
{
closed = 1;
nodes = (
"450 656 LINE",
"398 656 LINE",
"453 287 LINE",
"264 287 LINE"
);
}
);
width = 723;
}
);
leftKerningGroup = A;
rightKerningGroup = A;
unicode = 0041;
},
{
color = 0;
glyphname = A.ss02;
lastChange = "2020-02-21 18:23:37 +0000";
layers = (
{
anchors = (
{
name = bottom;
position = "{582, 0}";
},
{
name = top;
position = "{320, 745}";
}
);
background = {
anchors = (
{
name = bottom;
position = "{582, 0}";
},
{
name = top;
position = "{320, 745}";
}
);
paths = (
{
closed = 1;
nodes = (
"109 0 LINE",
"174 184 LINE",
"509 184 LINE",
"574 0 LINE",
"658 0 LINE",
"384 745 LINE",
"139 745 LINE",
"139 675 LINE",
"273 675 LINE",
"25 0 LINE"
);
},
{
closed = 1;
nodes = (
"351 681 LINE",
"333 681 LINE",
"484 254 LINE",
"199 254 LINE"
);
}
);
};
layerId = "30C2FD74-1A74-41AC-9C29-B288AE1DBDD7";
paths = (
{
closed = 1;
nodes = (
"109 0 LINE",
"174 184 LINE",
"509 184 LINE",
"574 0 LINE",
"658 0 LINE",
"384 745 LINE",
"139 745 LINE",
"139 675 LINE",
"273 675 LINE",
"25 0 LINE"
);
},
{
closed = 1;
nodes = (
"351 681 LINE",
"333 681 LINE",
"484 254 LINE",
"199 254 LINE"
);
}
);
width = 683;
},
{
anchors = (
{
name = bottom;
position = "{604, 0}";
},
{
name = top;
position = "{371, 745}";
}
);
background = {
anchors = (
{
name = bottom;
position = "{604, 0}";
},
{
name = top;
position = "{371, 745}";
}
);
paths = (
{
closed = 1;
nodes = (
"190 0 LINE",
"240 152 LINE",
"525 152 LINE",
"575 0 LINE",
"739 0 LINE",
"485 745 LINE",
"120 745 LINE",
"120 615 LINE",
"236 615 LINE",
"26 0 LINE"
);
},
{
closed = 1;
nodes = (
"405 657 LINE",
"361 657 LINE",
"481 287 LINE",
"284 287 LINE"
);
}
);
};
layerId = "9398AC28-6BE1-4A79-9C94-3CBC2F226CE7";
paths = (
{
closed = 1;
nodes = (
"190 0 LINE",
"240 152 LINE",
"525 152 LINE",
"575 0 LINE",
"739 0 LINE",
"485 745 LINE",
"120 745 LINE",
"120 615 LINE",
"236 615 LINE",
"26 0 LINE"
);
},
{
closed = 1;
nodes = (
"405 657 LINE",
"361 657 LINE",
"481 287 LINE",
"284 287 LINE"
);
}
);
width = 765;
},
{
anchors = (
{
name = bottom;
position = "{526, 0}";
},
{
name = top;
position = "{390, 745}";
}
);
background = {
anchors = (
{
name = bottom;
position = "{526, 0}";
},
{
name = top;
position = "{390, 745}";
}
);
paths = (
{
closed = 1;
nodes = (
"58 0 LINE",
"156 184 LINE",
"486 184 LINE",
"518 0 LINE",
"602 0 LINE",
"460 745 LINE",
"215 745 LINE",
"202 675 LINE",
"336 675 LINE",
"-31 0 LINE"
);
},
{
closed = 1;
nodes = (
"420 681 LINE",
"397 681 LINE",
"473 254 LINE",
"193 254 LINE"
);
}
);
};
layerId = "0E6515C6-4BDD-456A-90F7-F5B263F1D284";
paths = (
{
closed = 1;
nodes = (
"58 0 LINE",
"156 184 LINE",
"486 184 LINE",
"518 0 LINE",
"602 0 LINE",
"460 745 LINE",
"215 745 LINE",
"202 675 LINE",
"336 675 LINE",
"-31 0 LINE"
);
},
{
closed = 1;
nodes = (
"420 681 LINE",
"397 681 LINE",
"473 254 LINE",
"193 254 LINE"
);
}
);
width = 683;
},
{
anchors = (
{
name = bottom;
position = "{546, 0}";
},
{
name = top;
position = "{439, 745}";
}
);
background = {
anchors = (
{
name = bottom;
position = "{546, 0}";
},
{
name = top;
position = "{439, 745}";
}
);
paths = (
{
closed = 1;
nodes = (
"140 0 LINE",
"217 152 LINE",
"494 152 LINE",
"517 0 LINE",
"681 0 LINE",
"559 745 LINE",
"194 745 LINE",
"171 615 LINE",
"287 615 LINE",
"-32 0 LINE"
);
},
{
closed = 1;
nodes = (
"471 657 LINE",
"419 657 LINE",
"474 287 LINE",
"285 287 LINE"
);
}
);
};
layerId = "FF6420B2-C0A6-48EA-9EF6-B9F37DCCE47B";
paths = (
{
closed = 1;
nodes = (
"140 0 LINE",
"217 152 LINE",
"494 152 LINE",
"517 0 LINE",
"681 0 LINE",
"559 745 LINE",
"194 745 LINE",
"171 615 LINE",
"287 615 LINE",
"-32 0 LINE"
);
},
{
closed = 1;
nodes = (
"471 657 LINE",
"419 657 LINE",
"474 287 LINE",
"285 287 LINE"
);
}
);
width = 765;
}
);
leftKerningGroup = A;
rightKerningGroup = A;
},
{
glyphname = AE;
lastChange = "2020-02-21 18:23:37 +0000";
layers = (
{
background = {
paths = (
{
closed = 1;
nodes = (
"109 0 LINE",
"174 184 LINE",
"450 184 LINE",
"450 0 LINE",
"930 0 LINE",
"930 70 LINE",
"530 70 LINE",
"530 338 LINE",
"910 338 LINE",
"910 408 LINE",
"530 408 LINE",
"530 675 LINE",
"930 675 LINE",
"930 745 LINE",
"299 745 LINE",
"25 0 LINE"
);
},
{
closed = 1;
nodes = (
"349 675 LINE",
"450 675 LINE",
"450 254 LINE",
"199 254 LINE"
);
}
);
};
layerId = "30C2FD74-1A74-41AC-9C29-B288AE1DBDD7";
paths = (
{
closed = 1;
nodes = (
"109 0 LINE",
"174 184 LINE",
"450 184 LINE",
"450 0 LINE",
"930 0 LINE",
"930 70 LINE",
"530 70 LINE",
"530 338 LINE",
"910 338 LINE",
"910 408 LINE",
"530 408 LINE",
"530 675 LINE",
"930 675 LINE",
"930 745 LINE",
"299 745 LINE",
"25 0 LINE"
);
},
{
closed = 1;
nodes = (
"349 675 LINE",
"450 675 LINE",
"450 254 LINE",
"199 254 LINE"
);
}
);
width = 990;
},
{
background = {
paths = (
{
closed = 1;
nodes = (
"58 0 LINE",
"162 184 LINE",
"433 184 LINE",
"394 0 LINE",
"874 0 LINE",
"889 70 LINE",
"489 70 LINE",
"546 338 LINE",
"926 338 LINE",
"941 408 LINE",
"561 408 LINE",
"617 675 LINE",
"1017 675 LINE",
"1032 745 LINE",
"401 745 LINE",
"-31 0 LINE"
);
},
{
closed = 1;
nodes = (
"441 675 LINE",
"537 675 LINE",
"448 254 LINE",
"202 254 LINE"
);
}
);
};
layerId = "0E6515C6-4BDD-456A-90F7-F5B263F1D284";
paths = (
{
closed = 1;
nodes = (
"58 0 LINE",
"162 184 LINE",
"433 184 LINE",
"394 0 LINE",
"874 0 LINE",
"889 70 LINE",
"489 70 LINE",
"546 338 LINE",
"926 338 LINE",
"941 408 LINE",
"561 408 LINE",
"617 675 LINE",
"1017 675 LINE",
"1032 745 LINE",
"401 745 LINE",
"-31 0 LINE"
);
},
{
closed = 1;
nodes = (
"441 675 LINE",
"537 675 LINE",
"448 254 LINE",
"202 254 LINE"
);
}
);
width = 990;
},
{
background = {
paths = (
{
closed = 1;
nodes = (
"169 0 LINE",
"219 152 LINE",
"473 152 LINE",
"473 0 LINE",
"973 0 LINE",
"974 135 LINE",
"628 135 LINE",
"628 306 LINE",
"954 306 LINE",
"954 441 LINE",
"628 441 LINE",
"628 610 LINE",
"974 610 LINE",
"974 745 LINE",
"259 745 LINE",
"5 0 LINE"
);
},
{
closed = 1;
nodes = (
"369 610 LINE",
"473 610 LINE",
"473 287 LINE",
"263 287 LINE"
);
}
);
};
layerId = "9398AC28-6BE1-4A79-9C94-3CBC2F226CE7";
paths = (
{
closed = 1;
nodes = (
"169 0 LINE",
"219 152 LINE",
"473 152 LINE",
"473 0 LINE",
"973 0 LINE",
"974 135 LINE",
"628 135 LINE",
"628 306 LINE",
"954 306 LINE",
"954 441 LINE",
"628 441 LINE",
"628 610 LINE",
"974 610 LINE",
"974 745 LINE",
"259 745 LINE",
"5 0 LINE"
);
},
{
closed = 1;
nodes = (
"369 610 LINE",
"473 610 LINE",
"473 287 LINE",
"263 287 LINE"
);
}
);
width = 1014;
},
{
background = {
paths = (
{
closed = 1;
nodes = (
"116 0 LINE",
"198 152 LINE",
"447 152 LINE",
"415 0 LINE",
"915 0 LINE",
"945 135 LINE",
"599 135 LINE",
"635 306 LINE",
"961 306 LINE",
"990 441 LINE",
"664 441 LINE",
"699 610 LINE",
"1045 610 LINE",
"1074 745 LINE",
"359 745 LINE",
"-53 0 LINE"
);
},
{
closed = 1;
nodes = (
"445 610 LINE",
"544 610 LINE",
"476 287 LINE",
"271 287 LINE"
);
}
);
};
layerId = "FF6420B2-C0A6-48EA-9EF6-B9F37DCCE47B";
paths = (
{
closed = 1;
nodes = (
"116 0 LINE",
"198 152 LINE",
"447 152 LINE",
"415 0 LINE",
"915 0 LINE",
"945 135 LINE",
"599 135 LINE",
"635 306 LINE",
"961 306 LINE",
"990 441 LINE",
"664 441 LINE",
"699 610 LINE",
"1045 610 LINE",
"1074 745 LINE",
"359 745 LINE",
"-53 0 LINE"
);
},
{
closed = 1;
nodes = (
"445 610 LINE",
"544 610 LINE",
"476 287 LINE",
"271 287 LINE"
);
}
);
width = 1014;
}
);
leftKerningGroup = A;
leftMetricsKey = "=A";
rightKerningGroup = E;
rightMetricsKey = "=E";
unicode = 00C6;
},
{
glyphname = B;
lastChange = "2020-02-21 18:23:37 +0000";
layers = (
{
background = {
paths = (
{
closed = 1;
nodes = (
"390 0 LINE SMOOTH",
"535 0 OFFCURVE",
"630 83 OFFCURVE",
"630 215 CURVE SMOOTH",
"630 305 OFFCURVE",
"577 380 OFFCURVE",
"489 412 CURVE",
"490 388 LINE",
"560 418 OFFCURVE",
"600 480 OFFCURVE",
"600 558 CURVE SMOOTH",
"600 670 OFFCURVE",
"516 745 OFFCURVE",
"390 745 CURVE SMOOTH",
"80 745 LINE",
"80 0 LINE"
);
},
{
closed = 1;
nodes = (
"160 360 LINE",
"390 360 LINE SMOOTH",
"484 360 OFFCURVE",
"546 302 OFFCURVE",
"546 215 CURVE SMOOTH",
"546 128 OFFCURVE",
"484 70 OFFCURVE",
"390 70 CURVE SMOOTH",
"160 70 LINE"
);
},
{
closed = 1;
nodes = (
"160 675 LINE",
"384 675 LINE SMOOTH",
"464 675 OFFCURVE",
"516 626 OFFCURVE",
"516 553 CURVE SMOOTH",
"516 479 OFFCURVE",
"464 430 OFFCURVE",
"384 430 CURVE SMOOTH",
"160 430 LINE"
);
}
);
};
layerId = "30C2FD74-1A74-41AC-9C29-B288AE1DBDD7";
paths = (
{
closed = 1;
nodes = (
"390 0 LINE SMOOTH",
"535 0 OFFCURVE",
"630 83 OFFCURVE",
"630 215 CURVE SMOOTH",
"630 305 OFFCURVE",
"577 380 OFFCURVE",
"489 412 CURVE",
"490 388 LINE",
"560 418 OFFCURVE",
"600 480 OFFCURVE",
"600 558 CURVE SMOOTH",
"600 670 OFFCURVE",
"516 745 OFFCURVE",
"390 745 CURVE SMOOTH",
"80 745 LINE",
"80 0 LINE"
);
},
{
closed = 1;
nodes = (
"160 360 LINE",
"390 360 LINE SMOOTH",
"484 360 OFFCURVE",
"546 302 OFFCURVE",
"546 215 CURVE SMOOTH",
"546 128 OFFCURVE",
"484 70 OFFCURVE",
"390 70 CURVE SMOOTH",
"160 70 LINE"
);
},
{
closed = 1;
nodes = (
"160 675 LINE",
"384 675 LINE SMOOTH",
"464 675 OFFCURVE",
"516 626 OFFCURVE",
"516 553 CURVE SMOOTH",
"516 479 OFFCURVE",
"464 430 OFFCURVE",
"384 430 CURVE SMOOTH",
"160 430 LINE"
);
}
);
width = 670;
},
{
background = {
paths = (
{
closed = 1;
nodes = (
"375 0 LINE SMOOTH",
"548 0 OFFCURVE",
"651 85 OFFCURVE",
"651 232 CURVE SMOOTH",
"651 314 OFFCURVE",
"622 388 OFFCURVE",
"504 435 CURVE",
"504 359 LINE",
"587 399 OFFCURVE",
"620 461 OFFCURVE",
"620 527 CURVE SMOOTH",
"620 664 OFFCURVE",
"529 745 OFFCURVE",
"375 745 CURVE SMOOTH",
"60 745 LINE",
"60 0 LINE"
);
},
{
closed = 1;
nodes = (
"215 330 LINE",
"393 330 LINE SMOOTH",
"455 330 OFFCURVE",
"496 291 OFFCURVE",
"496 232 CURVE SMOOTH",
"496 174 OFFCURVE",
"455 135 OFFCURVE",
"393 135 CURVE SMOOTH",
"215 135 LINE"
);
},
{
closed = 1;
nodes = (
"215 615 LINE",
"386 615 LINE SMOOTH",
"434 615 OFFCURVE",
"465 585 OFFCURVE",
"465 540 CURVE SMOOTH",
"465 495 OFFCURVE",
"434 465 OFFCURVE",
"386 465 CURVE SMOOTH",
"215 465 LINE"
);
}
);
};
layerId = "9398AC28-6BE1-4A79-9C94-3CBC2F226CE7";
paths = (
{
closed = 1;
nodes = (
"375 0 LINE SMOOTH",
"548 0 OFFCURVE",
"651 85 OFFCURVE",
"651 232 CURVE SMOOTH",
"651 314 OFFCURVE",
"622 388 OFFCURVE",
"504 435 CURVE",
"504 359 LINE",
"587 399 OFFCURVE",
"620 461 OFFCURVE",
"620 527 CURVE SMOOTH",
"620 664 OFFCURVE",
"529 745 OFFCURVE",
"375 745 CURVE SMOOTH",
"60 745 LINE",
"60 0 LINE"
);
},
{
closed = 1;
nodes = (
"215 330 LINE",
"393 330 LINE SMOOTH",
"455 330 OFFCURVE",
"496 291 OFFCURVE",
"496 232 CURVE SMOOTH",
"496 174 OFFCURVE",
"455 135 OFFCURVE",
"393 135 CURVE SMOOTH",
"215 135 LINE"
);
},
{
closed = 1;
nodes = (
"215 615 LINE",
"386 615 LINE SMOOTH",
"434 615 OFFCURVE",
"465 585 OFFCURVE",
"465 540 CURVE SMOOTH",
"465 495 OFFCURVE",
"434 465 OFFCURVE",
"386 465 CURVE SMOOTH",
"215 465 LINE"
);
}
);
width = 681;
},
{
background = {
paths = (
{
closed = 1;
nodes = (
"335 0 LINE SMOOTH",
"495 0 OFFCURVE",
"621 87 OFFCURVE",
"621 242 CURVE SMOOTH",
"621 312 OFFCURVE",
"585 372 OFFCURVE",
"519 406 CURVE",
"515 383 LINE",
"615 415 OFFCURVE",
"662 503 OFFCURVE",
"662 583 CURVE SMOOTH",
"662 673 OFFCURVE",
"589 745 OFFCURVE",
"491 745 CURVE SMOOTH",
"182 745 LINE",
"24 0 LINE"
);
},
{
closed = 1;
nodes = (
"180 360 LINE",
"410 360 LINE SMOOTH",
"490 360 OFFCURVE",
"537 309 OFFCURVE",
"537 240 CURVE SMOOTH",
"537 142 OFFCURVE",
"455 70 OFFCURVE",
"349 70 CURVE SMOOTH",
"119 70 LINE"
);
},
{
closed = 1;
nodes = (
"247 675 LINE",
"470 675 LINE SMOOTH",
"538 675 OFFCURVE",
"577 632 OFFCURVE",
"577 574 CURVE SMOOTH",
"577 485 OFFCURVE",
"503 430 OFFCURVE",
"419 430 CURVE SMOOTH",
"195 430 LINE"
);
}
);
};
layerId = "0E6515C6-4BDD-456A-90F7-F5B263F1D284";
paths = (
{
closed = 1;
nodes = (
"335 0 LINE SMOOTH",
"495 0 OFFCURVE",
"621 87 OFFCURVE",
"621 242 CURVE SMOOTH",
"621 312 OFFCURVE",
"585 372 OFFCURVE",
"519 406 CURVE",
"515 383 LINE",
"615 415 OFFCURVE",
"662 503 OFFCURVE",
"662 583 CURVE SMOOTH",
"662 673 OFFCURVE",
"589 745 OFFCURVE",
"491 745 CURVE SMOOTH",
"182 745 LINE",
"24 0 LINE"
);
},
{
closed = 1;
nodes = (
"180 360 LINE",
"410 360 LINE SMOOTH",
"490 360 OFFCURVE",
"537 309 OFFCURVE",
"537 240 CURVE SMOOTH",
"537 142 OFFCURVE",
"455 70 OFFCURVE",
"349 70 CURVE SMOOTH",
"119 70 LINE"
);
},
{
closed = 1;
nodes = (
"247 675 LINE",
"470 675 LINE SMOOTH",
"538 675 OFFCURVE",
"577 632 OFFCURVE",
"577 574 CURVE SMOOTH",
"577 485 OFFCURVE",
"503 430 OFFCURVE",
"419 430 CURVE SMOOTH",
"195 430 LINE"
);
}
);
width = 671;
},
{
background = {
paths = (
{
closed = 1;
nodes = (
"318 0 LINE SMOOTH",
"514 0 OFFCURVE",
"644 104 OFFCURVE",
"644 260 CURVE SMOOTH",
"644 330 OFFCURVE",
"618 372 OFFCURVE",
"549 417 CURVE",
"552 359 LINE",
"630 398 OFFCURVE",
"674 466 OFFCURVE",
"674 553 CURVE SMOOTH",
"674 672 OFFCURVE",
"592 745 OFFCURVE",
"458 745 CURVE SMOOTH",
"160 745 LINE",
"2 0 LINE"
);
},
{
closed = 1;
nodes = (
"227 330 LINE",
"405 330 LINE SMOOTH",
"454 330 OFFCURVE",
"488 296 OFFCURVE",
"488 245 CURVE SMOOTH",
"488 182 OFFCURVE",
"435 135 OFFCURVE",
"364 135 CURVE SMOOTH",
"186 135 LINE"
);
},
{
closed = 1;
nodes = (
"288 615 LINE",
"458 615 LINE SMOOTH",
"497 615 OFFCURVE",
"522 587 OFFCURVE",
"522 549 CURVE SMOOTH",
"522 501 OFFCURVE",
"481 465 OFFCURVE",
"426 465 CURVE SMOOTH",
"256 465 LINE"
);
}
);
};
layerId = "FF6420B2-C0A6-48EA-9EF6-B9F37DCCE47B";
paths = (
{
closed = 1;
nodes = (
"318 0 LINE SMOOTH",
"514 0 OFFCURVE",
"644 104 OFFCURVE",
"644 260 CURVE SMOOTH",
"644 330 OFFCURVE",
"618 372 OFFCURVE",
"549 417 CURVE",
"552 359 LINE",
"630 398 OFFCURVE",
"674 466 OFFCURVE",
"674 553 CURVE SMOOTH",
"674 672 OFFCURVE",
"592 745 OFFCURVE",
"458 745 CURVE SMOOTH",
"160 745 LINE",
"2 0 LINE"
);
},
{
closed = 1;
nodes = (
"227 330 LINE",
"405 330 LINE SMOOTH",
"454 330 OFFCURVE",
"488 296 OFFCURVE",
"488 245 CURVE SMOOTH",
"488 182 OFFCURVE",
"435 135 OFFCURVE",
"364 135 CURVE SMOOTH",
"186 135 LINE"
);
},
{
closed = 1;
nodes = (
"288 615 LINE",
"458 615 LINE SMOOTH",
"497 615 OFFCURVE",
"522 587 OFFCURVE",
"522 549 CURVE SMOOTH",
"522 501 OFFCURVE",
"481 465 OFFCURVE",
"426 465 CURVE SMOOTH",
"256 465 LINE"
);
}
);
width = 683;
}
);
leftKerningGroup = I;
rightKerningGroup = B;
unicode = 0042;
},
{
glyphname = C;
lastChange = "2020-02-21 18:23:37 +0000";
layers = (
{
anchors = (
{
name = bottom;
position = "{418, 0}";
},
{
name = top;
position = "{384, 745}";
}
);
background = {
anchors = (
{
name = bottom;
position = "{418, 0}";
},
{
name = top;
position = "{384, 745}";
}
);
paths = (
{
closed = 1;
nodes = (
"569 -12 OFFCURVE",
"680 80 OFFCURVE",
"717 173 CURVE",
"645 208 LINE",
"608 117 OFFCURVE",
"527 58 OFFCURVE",
"418 58 CURVE SMOOTH",
"253 58 OFFCURVE",
"135 187 OFFCURVE",
"135 372 CURVE SMOOTH",
"135 557 OFFCURVE",
"253 687 OFFCURVE",
"418 687 CURVE SMOOTH",
"527 687 OFFCURVE",
"608 627 OFFCURVE",
"645 536 CURVE",
"717 571 LINE",
"680 664 OFFCURVE",
"569 757 OFFCURVE",
"418 757 CURVE SMOOTH",
"208 757 OFFCURVE",
"55 595 OFFCURVE",
"55 372 CURVE SMOOTH",
"55 149 OFFCURVE",
"208 -12 OFFCURVE",
"418 -12 CURVE SMOOTH"
);
}
);
};
layerId = "30C2FD74-1A74-41AC-9C29-B288AE1DBDD7";
paths = (
{
closed = 1;
nodes = (
"569 -12 OFFCURVE",
"680 80 OFFCURVE",
"717 173 CURVE",
"645 208 LINE",
"608 117 OFFCURVE",
"527 58 OFFCURVE",
"418 58 CURVE SMOOTH",
"253 58 OFFCURVE",
"135 187 OFFCURVE",
"135 372 CURVE SMOOTH",
"135 557 OFFCURVE",
"253 687 OFFCURVE",
"418 687 CURVE SMOOTH",
"527 687 OFFCURVE",
"608 627 OFFCURVE",
"645 536 CURVE",
"717 571 LINE",
"680 664 OFFCURVE",
"569 757 OFFCURVE",
"418 757 CURVE SMOOTH",
"208 757 OFFCURVE",
"55 595 OFFCURVE",
"55 372 CURVE SMOOTH",
"55 149 OFFCURVE",
"208 -12 OFFCURVE",
"418 -12 CURVE SMOOTH"
);
}
);
width = 767;
},
{
anchors = (
{
name = bottom;
position = "{412, 0}";
},
{
name = top;
position = "{411, 745}";
}
);
background = {
anchors = (
{
name = bottom;
position = "{412, 0}";
},
{
name = top;
position = "{411, 745}";
}
);
paths = (
{
closed = 1;
nodes = (
"572 -12 OFFCURVE",
"691 77 OFFCURVE",
"730 187 CURVE",
"593 253 LINE",
"567 181 OFFCURVE",
"501 128 OFFCURVE",
"411 128 CURVE SMOOTH",
"279 128 OFFCURVE",
"190 227 OFFCURVE",
"190 373 CURVE SMOOTH",
"190 518 OFFCURVE",
"279 617 OFFCURVE",
"411 617 CURVE SMOOTH",
"501 617 OFFCURVE",
"567 564 OFFCURVE",
"593 492 CURVE",
"730 558 LINE",
"691 668 OFFCURVE",
"572 757 OFFCURVE",
"411 757 CURVE SMOOTH",
"195 757 OFFCURVE",
"35 595 OFFCURVE",
"35 373 CURVE SMOOTH",
"35 152 OFFCURVE",
"197 -12 OFFCURVE",
"411 -12 CURVE SMOOTH"
);
}
);
};
layerId = "9398AC28-6BE1-4A79-9C94-3CBC2F226CE7";
paths = (
{
closed = 1;
nodes = (
"572 -12 OFFCURVE",
"691 77 OFFCURVE",
"730 187 CURVE",
"593 253 LINE",
"567 181 OFFCURVE",
"501 128 OFFCURVE",
"411 128 CURVE SMOOTH",
"279 128 OFFCURVE",
"190 227 OFFCURVE",
"190 373 CURVE SMOOTH",
"190 518 OFFCURVE",
"279 617 OFFCURVE",
"411 617 CURVE SMOOTH",
"501 617 OFFCURVE",
"567 564 OFFCURVE",
"593 492 CURVE",
"730 558 LINE",
"691 668 OFFCURVE",
"572 757 OFFCURVE",
"411 757 CURVE SMOOTH",
"195 757 OFFCURVE",
"35 595 OFFCURVE",
"35 373 CURVE SMOOTH",
"35 152 OFFCURVE",
"197 -12 OFFCURVE",
"411 -12 CURVE SMOOTH"
);
}
);
width = 760;
},
{
anchors = (
{
name = bottom;
position = "{400, 0}";
},
{
name = top;
position = "{488, 745}";
}
);
background = {
anchors = (
{
name = bottom;
position = "{400, 0}";
},
{
name = top;
position = "{488, 745}";
}
);
paths = (
{
closed = 1;
nodes = (
"519 -12 OFFCURVE",
"635 49 OFFCURVE",
"695 142 CURVE",
"632 185 LINE",
"579 103 OFFCURVE",
"497 57 OFFCURVE",
"406 57 CURVE SMOOTH",
"257 57 OFFCURVE",
"155 164 OFFCURVE",
"155 319 CURVE SMOOTH",
"155 517 OFFCURVE",
"294 687 OFFCURVE",
"478 687 CURVE SMOOTH",
"593 687 OFFCURVE",
"682 617 OFFCURVE",
"700 511 CURVE",
"778 538 LINE",
"755 667 OFFCURVE",
"633 757 OFFCURVE",
"484 757 CURVE SMOOTH",
"258 757 OFFCURVE",
"76 549 OFFCURVE",
"76 315 CURVE SMOOTH",
"76 124 OFFCURVE",
"210 -12 OFFCURVE",
"400 -12 CURVE SMOOTH"
);
}
);
};
layerId = "0E6515C6-4BDD-456A-90F7-F5B263F1D284";
paths = (
{
closed = 1;
nodes = (
"519 -12 OFFCURVE",
"635 49 OFFCURVE",
"695 142 CURVE",
"632 185 LINE",
"579 103 OFFCURVE",
"497 57 OFFCURVE",
"406 57 CURVE SMOOTH",
"257 57 OFFCURVE",
"155 164 OFFCURVE",
"155 319 CURVE SMOOTH",
"155 517 OFFCURVE",
"294 687 OFFCURVE",
"478 687 CURVE SMOOTH",
"593 687 OFFCURVE",
"682 617 OFFCURVE",
"700 511 CURVE",
"778 538 LINE",
"755 667 OFFCURVE",
"633 757 OFFCURVE",
"484 757 CURVE SMOOTH",
"258 757 OFFCURVE",
"76 549 OFFCURVE",
"76 315 CURVE SMOOTH",
"76 124 OFFCURVE",
"210 -12 OFFCURVE",
"400 -12 CURVE SMOOTH"
);
}
);
width = 771;
},
{
anchors = (
{
name = bottom;
position = "{399, 0}";
},
{
name = top;
position = "{473, 745}";
}
);
background = {
anchors = (
{
name = bottom;
position = "{399, 0}";
},
{
name = top;
position = "{473, 745}";
}
);
paths = (
{
closed = 1;
nodes = (
"530 -12 OFFCURVE",
"652 53 OFFCURVE",
"711 155 CURVE",
"590 235 LINE",
"548 167 OFFCURVE",
"482 128 OFFCURVE",
"407 128 CURVE SMOOTH",
"289 128 OFFCURVE",
"212 207 OFFCURVE",
"212 328 CURVE SMOOTH",
"212 501 OFFCURVE",
"312 617 OFFCURVE",
"462 617 CURVE SMOOTH",
"556 617 OFFCURVE",
"627 559 OFFCURVE",
"640 472 CURVE",
"788 524 LINE",
"770 658 OFFCURVE",
"637 757 OFFCURVE",
"473 757 CURVE SMOOTH",
"239 757 OFFCURVE",
"56 556 OFFCURVE",
"56 323 CURVE SMOOTH",
"56 127 OFFCURVE",
"198 -12 OFFCURVE",
"399 -12 CURVE SMOOTH"
);
}
);
};
layerId = "FF6420B2-C0A6-48EA-9EF6-B9F37DCCE47B";
paths = (
{
closed = 1;
nodes = (
"530 -12 OFFCURVE",
"652 53 OFFCURVE",
"711 155 CURVE",
"590 235 LINE",
"548 167 OFFCURVE",
"482 128 OFFCURVE",
"407 128 CURVE SMOOTH",
"289 128 OFFCURVE",
"212 207 OFFCURVE",
"212 328 CURVE SMOOTH",
"212 501 OFFCURVE",
"312 617 OFFCURVE",
"462 617 CURVE SMOOTH",
"556 617 OFFCURVE",
"627 559 OFFCURVE",
"640 472 CURVE",
"788 524 LINE",
"770 658 OFFCURVE",
"637 757 OFFCURVE",
"473 757 CURVE SMOOTH",
"239 757 OFFCURVE",
"56 556 OFFCURVE",
"56 323 CURVE SMOOTH",
"56 127 OFFCURVE",
"198 -12 OFFCURVE",
"399 -12 CURVE SMOOTH"
);
}
);
width = 766;
}
);
leftKerningGroup = O;
leftMetricsKey = "=O";
rightKerningGroup = C;
unicode = 0043;
},
{
glyphname = D;
lastChange = "2020-02-21 18:23:37 +0000";
layers = (
{
anchors = (
{
name = bottom;
position = "{373, 0}";
},
{
name = center;
position = "{160, 373}";
},
{
name = top;
position = "{373, 745}";
}
);
background = {
anchors = (
{
name = bottom;
position = "{373, 0}";
},
{
name = center;
position = "{160, 373}";
},
{
name = top;
position = "{373, 745}";
}
);
paths = (
{
closed = 1;
nodes = (
"325 0 LINE SMOOTH",
"546 0 OFFCURVE",
"690 147 OFFCURVE",
"690 373 CURVE SMOOTH",
"690 600 OFFCURVE",
"546 745 OFFCURVE",
"325 745 CURVE SMOOTH",
"80 745 LINE",
"80 0 LINE"
);
},
{
closed = 1;
nodes = (
"160 675 LINE",
"325 675 LINE SMOOTH",
"495 675 OFFCURVE",
"606 555 OFFCURVE",
"606 373 CURVE SMOOTH",
"606 190 OFFCURVE",
"496 70 OFFCURVE",
"325 70 CURVE SMOOTH",
"160 70 LINE"
);
}
);
};
layerId = "30C2FD74-1A74-41AC-9C29-B288AE1DBDD7";
paths = (
{
closed = 1;
nodes = (
"325 0 LINE SMOOTH",
"546 0 OFFCURVE",
"690 147 OFFCURVE",
"690 373 CURVE SMOOTH",
"690 600 OFFCURVE",
"546 745 OFFCURVE",
"325 745 CURVE SMOOTH",
"80 745 LINE",
"80 0 LINE"
);
},
{
closed = 1;
nodes = (
"160 675 LINE",
"325 675 LINE SMOOTH",
"495 675 OFFCURVE",
"606 555 OFFCURVE",
"606 373 CURVE SMOOTH",
"606 190 OFFCURVE",
"496 70 OFFCURVE",
"325 70 CURVE SMOOTH",
"160 70 LINE"
);
}
);
width = 745;
},
{
anchors = (
{
name = bottom;
position = "{368, 0}";
},
{
name = center;
position = "{171, 373}";
},
{
name = top;
position = "{368, 745}";
}
);
background = {
anchors = (
{
name = bottom;
position = "{368, 0}";
},
{
name = center;
position = "{171, 373}";
},
{
name = top;
position = "{368, 745}";
}
);
paths = (
{
closed = 1;
nodes = (
"303 0 LINE SMOOTH",
"544 0 OFFCURVE",
"700 157 OFFCURVE",
"700 373 CURVE SMOOTH",
"700 589 OFFCURVE",
"545 745 OFFCURVE",
"303 745 CURVE SMOOTH",
"60 745 LINE",
"60 0 LINE"
);
},
{
closed = 1;
nodes = (
"215 610 LINE",
"307 610 LINE SMOOTH",
"452 610 OFFCURVE",
"545 518 OFFCURVE",
"545 373 CURVE SMOOTH",
"545 228 OFFCURVE",
"452 135 OFFCURVE",
"307 135 CURVE SMOOTH",
"215 135 LINE"
);
}
);
};
layerId = "9398AC28-6BE1-4A79-9C94-3CBC2F226CE7";
paths = (
{
closed = 1;
nodes = (
"303 0 LINE SMOOTH",
"544 0 OFFCURVE",
"700 157 OFFCURVE",
"700 373 CURVE SMOOTH",
"700 589 OFFCURVE",
"545 745 OFFCURVE",
"303 745 CURVE SMOOTH",
"60 745 LINE",
"60 0 LINE"
);
},
{
closed = 1;
nodes = (
"215 610 LINE",
"307 610 LINE SMOOTH",
"452 610 OFFCURVE",
"545 518 OFFCURVE",
"545 373 CURVE SMOOTH",
"545 228 OFFCURVE",
"452 135 OFFCURVE",
"307 135 CURVE SMOOTH",
"215 135 LINE"
);
}
);
width = 735;
},
{
anchors = (
{
name = bottom;
position = "{319, 0}";
},
{
name = center;
position = "{185, 373}";
},
{
name = top;
position = "{477, 745}";
}
);
background = {
anchors = (
{
name = bottom;
position = "{319, 0}";
},
{
name = center;
position = "{185, 373}";
},
{
name = top;
position = "{477, 745}";
}
);
paths = (
{
closed = 1;
nodes = (
"272 0 LINE SMOOTH",
"529 0 OFFCURVE",
"720 187 OFFCURVE",
"720 438 CURVE SMOOTH",
"720 614 OFFCURVE",
"585 745 OFFCURVE",
"427 745 CURVE SMOOTH",
"182 745 LINE",
"26 0 LINE"
);
},
{
closed = 1;
nodes = (
"248 675 LINE",
"413 675 LINE SMOOTH",
"548 675 OFFCURVE",
"635 580 OFFCURVE",
"635 432 CURVE SMOOTH",
"635 227 OFFCURVE",
"484 70 OFFCURVE",
"286 70 CURVE SMOOTH",
"120 70 LINE"
);
}
);
};
layerId = "0E6515C6-4BDD-456A-90F7-F5B263F1D284";
paths = (
{
closed = 1;
nodes = (
"272 0 LINE SMOOTH",
"529 0 OFFCURVE",
"720 187 OFFCURVE",
"720 438 CURVE SMOOTH",
"720 614 OFFCURVE",
"585 745 OFFCURVE",
"427 745 CURVE SMOOTH",
"182 745 LINE",
"26 0 LINE"
);
},
{
closed = 1;
nodes = (
"248 675 LINE",
"413 675 LINE SMOOTH",
"548 675 OFFCURVE",
"635 580 OFFCURVE",
"635 432 CURVE SMOOTH",
"635 227 OFFCURVE",
"484 70 OFFCURVE",
"286 70 CURVE SMOOTH",
"120 70 LINE"
);
}
);
width = 748;
},
{
anchors = (
{
name = bottom;
position = "{311, 0}";
},
{
name = center;
position = "{175, 373}";
},
{
name = top;
position = "{469, 745}";
}
);
background = {
anchors = (
{
name = bottom;
position = "{311, 0}";
},
{
name = center;
position = "{175, 373}";
},
{
name = top;
position = "{469, 745}";
}
);
paths = (
{
closed = 1;
nodes = (
"248 0 LINE SMOOTH",
"532 0 OFFCURVE",
"726 177 OFFCURVE",
"726 438 CURVE SMOOTH",
"726 610 OFFCURVE",
"578 745 OFFCURVE",
"404 745 CURVE SMOOTH",
"160 745 LINE",
"4 0 LINE"
);
},
{
closed = 1;
nodes = (
"287 610 LINE",
"379 610 LINE SMOOTH",
"500 610 OFFCURVE",
"571 538 OFFCURVE",
"571 428 CURVE SMOOTH",
"571 261 OFFCURVE",
"453 135 OFFCURVE",
"280 135 CURVE SMOOTH",
"187 135 LINE"
);
}
);
};
layerId = "FF6420B2-C0A6-48EA-9EF6-B9F37DCCE47B";
paths = (
{
closed = 1;
nodes = (
"248 0 LINE SMOOTH",
"532 0 OFFCURVE",
"726 177 OFFCURVE",
"726 438 CURVE SMOOTH",
"726 610 OFFCURVE",
"578 745 OFFCURVE",
"404 745 CURVE SMOOTH",
"160 745 LINE",
"4 0 LINE"
);
},
{
closed = 1;
nodes = (
"287 610 LINE",
"379 610 LINE SMOOTH",
"500 610 OFFCURVE",
"571 538 OFFCURVE",
"571 428 CURVE SMOOTH",
"571 261 OFFCURVE",
"453 135 OFFCURVE",
"280 135 CURVE SMOOTH",
"187 135 LINE"
);
}
);
width = 737;
}
);
leftKerningGroup = I;
rightKerningGroup = O;
unicode = 0044;
},
{
glyphname = Eth;
lastChange = "2020-02-21 19:58:17 +0000";
layers = (
{
background = {
components = (
{
name = D;
},
{
name = strokeshortcomb;
transform = "{1, 0, 0, 1, -58, 46}";
}
);
};
layerId = "30C2FD74-1A74-41AC-9C29-B288AE1DBDD7";
paths = (
{
closed = 1;
nodes = (
"325 0 LINE SMOOTH",
"546 0 OFFCURVE",
"690 147 OFFCURVE",
"690 373 CURVE SMOOTH",
"690 600 OFFCURVE",
"546 745 OFFCURVE",
"325 745 CURVE SMOOTH",
"80 745 LINE",
"80 408 LINE",
"-38 408 LINE",
"-38 338 LINE",
"80 338 LINE",
"80 0 LINE"
);
},
{
closed = 1;
nodes = (
"160 338 LINE",
"359 338 LINE",
"359 408 LINE",
"160 408 LINE",
"160 675 LINE",
"325 675 LINE SMOOTH",
"495 675 OFFCURVE",
"606 555 OFFCURVE",
"606 373 CURVE SMOOTH",
"606 190 OFFCURVE",
"496 70 OFFCURVE",
"325 70 CURVE SMOOTH",
"160 70 LINE"
);
}
);
width = 745;
},
{
background = {
components = (
{
name = D;
},
{
name = strokeshortcomb;
transform = "{1, 0, 0, 1, -47, 46}";
}
);
};
layerId = "0E6515C6-4BDD-456A-90F7-F5B263F1D284";
paths = (
{
closed = 1;
nodes = (
"272 0 LINE SMOOTH",
"529 0 OFFCURVE",
"720 187 OFFCURVE",
"720 438 CURVE SMOOTH",
"720 614 OFFCURVE",
"585 745 OFFCURVE",
"427 745 CURVE SMOOTH",
"182 745 LINE",
"111 408 LINE",
"-6 408 LINE",
"-21 338 LINE",
"97 338 LINE",
"26 0 LINE"
);
},
{
closed = 1;
nodes = (
"177 338 LINE",
"376 338 LINE",
"391 408 LINE",
"192 408 LINE",
"248 675 LINE",
"413 675 LINE SMOOTH",
"548 675 OFFCURVE",
"635 580 OFFCURVE",
"635 432 CURVE SMOOTH",
"635 227 OFFCURVE",
"484 70 OFFCURVE",
"286 70 CURVE SMOOTH",
"120 70 LINE"
);
}
);
width = 748;
},
{
background = {
components = (
{
name = D;
},
{
name = strokeshortcomb;
transform = "{1, 0, 0, 1, -73, 51}";
}
);
};
layerId = "9398AC28-6BE1-4A79-9C94-3CBC2F226CE7";
paths = (
{
closed = 1;
nodes = (
"303 0 LINE SMOOTH",
"544 0 OFFCURVE",
"700 157 OFFCURVE",
"700 373 CURVE SMOOTH",
"700 589 OFFCURVE",
"545 745 OFFCURVE",
"303 745 CURVE SMOOTH",
"60 745 LINE",
"60 438 LINE",
"-53 438 LINE",
"-53 308 LINE",
"60 308 LINE",
"60 0 LINE"
);
},
{
closed = 1;
nodes = (
"215 308 LINE",
"395 308 LINE",
"395 438 LINE",
"215 438 LINE",
"215 610 LINE",
"307 610 LINE SMOOTH",
"452 610 OFFCURVE",
"545 518 OFFCURVE",
"545 373 CURVE SMOOTH",
"545 228 OFFCURVE",
"452 135 OFFCURVE",
"307 135 CURVE SMOOTH",
"215 135 LINE"
);
}
);
width = 735;
},
{
background = {
components = (
{
name = D;
},
{
name = strokeshortcomb;
transform = "{1, 0, 0, 1, -80, 51}";
}
);
};
layerId = "FF6420B2-C0A6-48EA-9EF6-B9F37DCCE47B";
paths = (
{
closed = 1;
nodes = (
"248 0 LINE SMOOTH",
"532 0 OFFCURVE",
"726 177 OFFCURVE",
"726 438 CURVE SMOOTH",
"726 610 OFFCURVE",
"578 745 OFFCURVE",
"404 745 CURVE SMOOTH",
"160 745 LINE",
"96 438 LINE",
"-35 438 LINE",
"-63 308 LINE",
"68 308 LINE",
"4 0 LINE"
);
},
{
closed = 1;
nodes = (
"223 308 LINE",
"385 308 LINE",
"413 438 LINE",
"251 438 LINE",
"287 610 LINE",
"379 610 LINE SMOOTH",
"500 610 OFFCURVE",
"571 538 OFFCURVE",
"571 428 CURVE SMOOTH",
"571 261 OFFCURVE",
"453 135 OFFCURVE",
"280 135 CURVE SMOOTH",
"187 135 LINE"
);
}
);
width = 737;
}
);
leftKerningGroup = I;
rightKerningGroup = O;
unicode = 00D0;
},
{
glyphname = E;
lastChange = "2020-02-21 18:23:37 +0000";
layers = (
{
anchors = (
{
name = bottom;
position = "{310, 0}";
},
{
name = ogonek;
position = "{558, 10}";
},
{
name = top;
position = "{310, 745}";
}
);
background = {
anchors = (
{
name = bottom;
position = "{310, 0}";
},
{
name = ogonek;
position = "{558, 10}";
},
{
name = top;
position = "{310, 745}";
}
);
paths = (
{
closed = 1;
nodes = (
"560 0 LINE",
"560 70 LINE",
"160 70 LINE",
"160 338 LINE",
"540 338 LINE",
"540 408 LINE",
"160 408 LINE",
"160 675 LINE",
"560 675 LINE",
"560 745 LINE",
"80 745 LINE",
"80 0 LINE"
);
}
);
};
layerId = "30C2FD74-1A74-41AC-9C29-B288AE1DBDD7";
paths = (
{
closed = 1;
nodes = (
"560 0 LINE",
"560 70 LINE",
"160 70 LINE",
"160 338 LINE",
"540 338 LINE",
"540 408 LINE",
"160 408 LINE",
"160 675 LINE",
"560 675 LINE",
"560 745 LINE",
"80 745 LINE",
"80 0 LINE"
);
}
);
width = 620;
},
{
anchors = (
{
name = bottom;
position = "{301, 0}";
},
{
name = ogonek;
position = "{541, 10}";
},
{
name = top;
position = "{301, 745}";
}
);
background = {
anchors = (
{
name = bottom;
position = "{301, 0}";
},
{
name = ogonek;
position = "{541, 10}";
},
{
name = top;
position = "{301, 745}";
}
);
paths = (
{
closed = 1;
nodes = (
"560 0 LINE",
"561 135 LINE",
"215 135 LINE",
"215 306 LINE",
"541 306 LINE",
"541 441 LINE",
"215 441 LINE",
"215 610 LINE",
"561 610 LINE",
"561 745 LINE",
"60 745 LINE",
"60 0 LINE"
);
}
);
};
layerId = "9398AC28-6BE1-4A79-9C94-3CBC2F226CE7";
paths = (
{
closed = 1;
nodes = (
"560 0 LINE",
"561 135 LINE",
"215 135 LINE",
"215 306 LINE",
"541 306 LINE",
"541 441 LINE",
"215 441 LINE",
"215 610 LINE",
"561 610 LINE",
"561 745 LINE",
"60 745 LINE",
"60 0 LINE"
);
}
);
width = 601;
},
{
anchors = (
{
name = bottom;
position = "{254, 0}";
},
{
name = ogonek;
position = "{504, 10}";
},
{
name = top;
position = "{412, 745}";
}
);
background = {
anchors = (
{
name = bottom;
position = "{254, 0}";
},
{
name = ogonek;
position = "{504, 10}";
},
{
name = top;
position = "{412, 745}";
}
);
paths = (
{
closed = 1;
nodes = (
"504 0 LINE",
"519 70 LINE",
"119 70 LINE",
"176 338 LINE",
"556 338 LINE",
"571 408 LINE",
"191 408 LINE",
"247 675 LINE",
"647 675 LINE",
"662 745 LINE",
"182 745 LINE",
"24 0 LINE"
);
}
);
};
layerId = "0E6515C6-4BDD-456A-90F7-F5B263F1D284";
paths = (
{
closed = 1;
nodes = (
"504 0 LINE",
"519 70 LINE",
"119 70 LINE",
"176 338 LINE",
"556 338 LINE",
"571 408 LINE",
"191 408 LINE",
"247 675 LINE",
"647 675 LINE",
"662 745 LINE",
"182 745 LINE",
"24 0 LINE"
);
}
);
width = 620;
},
{
anchors = (
{
name = bottom;
position = "{243, 0}";
},
{
name = ogonek;
position = "{485, 10}";
},
{
name = top;
position = "{401, 745}";
}
);
background = {
anchors = (
{
name = bottom;
position = "{243, 0}";
},
{
name = ogonek;
position = "{485, 10}";
},
{
name = top;
position = "{401, 745}";
}
);
paths = (
{
closed = 1;
nodes = (
"502 0 LINE",
"532 135 LINE",
"186 135 LINE",
"222 306 LINE",
"548 306 LINE",
"577 441 LINE",
"251 441 LINE",
"286 610 LINE",
"632 610 LINE",
"661 745 LINE",
"160 745 LINE",
"2 0 LINE"
);
}
);
};
layerId = "FF6420B2-C0A6-48EA-9EF6-B9F37DCCE47B";
paths = (
{
closed = 1;
nodes = (
"502 0 LINE",
"532 135 LINE",
"186 135 LINE",
"222 306 LINE",
"548 306 LINE",
"577 441 LINE",
"251 441 LINE",
"286 610 LINE",
"632 610 LINE",
"661 745 LINE",
"160 745 LINE",
"2 0 LINE"
);
}
);
width = 601;
}
);
leftKerningGroup = I;
rightKerningGroup = E;
unicode = 0045;
},
{
color = 0;
glyphname = E.ss02;
lastChange = "2020-02-21 18:23:37 +0000";
layers = (
{
background = {
paths = (
{
closed = 1;
nodes = (
"625 0 LINE",
"625 70 LINE",
"265 70 LINE",
"265 338 LINE",
"605 338 LINE",
"605 408 LINE",
"265 408 LINE",
"265 675 LINE",
"625 675 LINE",
"625 745 LINE",
"80 745 LINE",
"80 675 LINE",
"185 675 LINE",
"185 0 LINE"
);
}
);
};
layerId = "30C2FD74-1A74-41AC-9C29-B288AE1DBDD7";
paths = (
{
closed = 1;
nodes = (
"625 0 LINE",
"625 70 LINE",
"265 70 LINE",
"265 338 LINE",
"605 338 LINE",
"605 408 LINE",
"265 408 LINE",
"265 675 LINE",
"625 675 LINE",
"625 745 LINE",
"80 745 LINE",
"80 675 LINE",
"185 675 LINE",
"185 0 LINE"
);
}
);
width = 685;
},
{
background = {
paths = (
{
closed = 1;
nodes = (
"660 0 LINE",
"660 130 LINE",
"350 130 LINE",
"350 308 LINE",
"640 308 LINE",
"640 438 LINE",
"350 438 LINE",
"350 615 LINE",
"660 615 LINE",
"660 745 LINE",
"60 745 LINE",
"60 615 LINE",
"190 615 LINE",
"190 0 LINE"
);
}
);
};
layerId = "9398AC28-6BE1-4A79-9C94-3CBC2F226CE7";
paths = (
{
closed = 1;
nodes = (
"660 0 LINE",
"660 130 LINE",
"350 130 LINE",
"350 308 LINE",
"640 308 LINE",
"640 438 LINE",
"350 438 LINE",
"350 615 LINE",
"660 615 LINE",
"660 745 LINE",
"60 745 LINE",
"60 615 LINE",
"190 615 LINE",
"190 0 LINE"
);
}
);
width = 700;
},
{
background = {
paths = (
{
closed = 1;
nodes = (
"570 0 LINE",
"585 70 LINE",
"225 70 LINE",
"282 338 LINE",
"622 338 LINE",
"637 408 LINE",
"297 408 LINE",
"353 675 LINE",
"713 675 LINE",
"728 745 LINE",
"183 745 LINE",
"168 675 LINE",
"273 675 LINE",
"130 0 LINE"
);
}
);
};
layerId = "0E6515C6-4BDD-456A-90F7-F5B263F1D284";
paths = (
{
closed = 1;
nodes = (
"570 0 LINE",
"585 70 LINE",
"225 70 LINE",
"282 338 LINE",
"622 338 LINE",
"637 408 LINE",
"297 408 LINE",
"353 675 LINE",
"713 675 LINE",
"728 745 LINE",
"183 745 LINE",
"168 675 LINE",
"273 675 LINE",
"130 0 LINE"
);
}
);
width = 686;
},
{
background = {
paths = (
{
closed = 1;
nodes = (
"602 0 LINE",
"629 130 LINE",
"319 130 LINE",
"357 308 LINE",
"647 308 LINE",
"675 438 LINE",
"385 438 LINE",
"423 615 LINE",
"733 615 LINE",
"760 745 LINE",
"160 745 LINE",
"133 615 LINE",
"263 615 LINE",
"132 0 LINE"
);
}
);
};
layerId = "FF6420B2-C0A6-48EA-9EF6-B9F37DCCE47B";
paths = (
{
closed = 1;
nodes = (
"602 0 LINE",
"629 130 LINE",
"319 130 LINE",
"357 308 LINE",
"647 308 LINE",
"675 438 LINE",
"385 438 LINE",
"423 615 LINE",
"733 615 LINE",
"760 745 LINE",
"160 745 LINE",
"133 615 LINE",
"263 615 LINE",
"132 0 LINE"
);
}
);
width = 700;
}
);
leftKerningGroup = I;
leftMetricsKey = "=E";
rightKerningGroup = E;
rightMetricsKey = "=E";
},
{
glyphname = F;
lastChange = "2020-02-21 18:23:37 +0000";
layers = (
{
background = {
paths = (
{
closed = 1;
nodes = (
"160 0 LINE",
"160 338 LINE",
"540 338 LINE",
"540 408 LINE",
"160 408 LINE",
"160 675 LINE",
"560 675 LINE",
"560 745 LINE",
"80 745 LINE",
"80 0 LINE"
);
}
);
};
layerId = "30C2FD74-1A74-41AC-9C29-B288AE1DBDD7";
paths = (
{
closed = 1;
nodes = (
"160 0 LINE",
"160 338 LINE",
"540 338 LINE",
"540 408 LINE",
"160 408 LINE",
"160 675 LINE",
"560 675 LINE",
"560 745 LINE",
"80 745 LINE",
"80 0 LINE"
);
}
);
width = 600;
},
{
background = {
paths = (
{
closed = 1;
nodes = (
"215 0 LINE",
"215 286 LINE",
"520 286 LINE",
"520 421 LINE",
"215 421 LINE",
"215 610 LINE",
"570 610 LINE",
"570 745 LINE",
"60 745 LINE",
"60 0 LINE"
);
}
);
};
layerId = "9398AC28-6BE1-4A79-9C94-3CBC2F226CE7";
paths = (
{
closed = 1;
nodes = (
"215 0 LINE",
"215 286 LINE",
"520 286 LINE",
"520 421 LINE",
"215 421 LINE",
"215 610 LINE",
"570 610 LINE",
"570 745 LINE",
"60 745 LINE",
"60 0 LINE"
);
}
);
width = 590;
},
{
background = {
paths = (
{
closed = 1;
nodes = (
"104 0 LINE",
"176 338 LINE",
"556 338 LINE",
"571 408 LINE",
"191 408 LINE",
"247 675 LINE",
"647 675 LINE",
"662 745 LINE",
"182 745 LINE",
"24 0 LINE"
);
}
);
};
layerId = "0E6515C6-4BDD-456A-90F7-F5B263F1D284";
paths = (
{
closed = 1;
nodes = (
"104 0 LINE",
"176 338 LINE",
"556 338 LINE",
"571 408 LINE",
"191 408 LINE",
"247 675 LINE",
"647 675 LINE",
"662 745 LINE",
"182 745 LINE",
"24 0 LINE"
);
}
);
width = 600;
},
{
background = {
paths = (
{
closed = 1;
nodes = (
"157 0 LINE",
"218 286 LINE",
"523 286 LINE",
"551 421 LINE",
"246 421 LINE",
"286 610 LINE",
"641 610 LINE",
"670 745 LINE",
"160 745 LINE",
"2 0 LINE"
);
}
);
};
layerId = "FF6420B2-C0A6-48EA-9EF6-B9F37DCCE47B";
paths = (
{
closed = 1;
nodes = (
"157 0 LINE",
"218 286 LINE",
"523 286 LINE",
"551 421 LINE",
"246 421 LINE",
"286 610 LINE",
"641 610 LINE",
"670 745 LINE",
"160 745 LINE",
"2 0 LINE"
);
}
);
width = 590;
}
);
leftKerningGroup = I;
rightKerningGroup = F;
unicode = 0046;
},
{
color = 0;
glyphname = F.ss02;
lastChange = "2020-02-21 18:23:37 +0000";
layers = (
{
background = {
paths = (
{
closed = 1;
nodes = (
"265 0 LINE",
"265 338 LINE",
"605 338 LINE",
"605 408 LINE",
"265 408 LINE",
"265 675 LINE",
"625 675 LINE",
"625 745 LINE",
"80 745 LINE",
"80 675 LINE",
"185 675 LINE",
"185 0 LINE"
);
}
);
};
layerId = "30C2FD74-1A74-41AC-9C29-B288AE1DBDD7";
paths = (
{
closed = 1;
nodes = (
"265 0 LINE",
"265 338 LINE",
"605 338 LINE",
"605 408 LINE",
"265 408 LINE",
"265 675 LINE",
"625 675 LINE",
"625 745 LINE",
"80 745 LINE",
"80 675 LINE",
"185 675 LINE",
"185 0 LINE"
);
}
);
width = 665;
},
{
background = {
paths = (
{
closed = 1;
nodes = (
"350 0 LINE",
"350 288 LINE",
"610 288 LINE",
"610 418 LINE",
"350 418 LINE",
"350 615 LINE",
"660 615 LINE",
"660 745 LINE",
"60 745 LINE",
"60 615 LINE",
"190 615 LINE",
"190 0 LINE"
);
}
);
};
layerId = "9398AC28-6BE1-4A79-9C94-3CBC2F226CE7";
paths = (
{
closed = 1;
nodes = (
"350 0 LINE",
"350 288 LINE",
"610 288 LINE",
"610 418 LINE",
"350 418 LINE",
"350 615 LINE",
"660 615 LINE",
"660 745 LINE",
"60 745 LINE",
"60 615 LINE",
"190 615 LINE",
"190 0 LINE"
);
}
);
width = 680;
},
{
background = {
paths = (
{
closed = 1;
nodes = (
"210 0 LINE",
"282 338 LINE",
"622 338 LINE",
"637 408 LINE",
"297 408 LINE",
"353 675 LINE",
"713 675 LINE",
"728 745 LINE",
"183 745 LINE",
"168 675 LINE",
"273 675 LINE",
"130 0 LINE"
);
}
);
};
layerId = "0E6515C6-4BDD-456A-90F7-F5B263F1D284";
paths = (
{
closed = 1;
nodes = (
"210 0 LINE",
"282 338 LINE",
"622 338 LINE",
"637 408 LINE",
"297 408 LINE",
"353 675 LINE",
"713 675 LINE",
"728 745 LINE",
"183 745 LINE",
"168 675 LINE",
"273 675 LINE",
"130 0 LINE"
);
}
);
width = 666;
},
{
background = {
paths = (
{
closed = 1;
nodes = (
"292 0 LINE",
"353 288 LINE",
"613 288 LINE",
"641 418 LINE",
"381 418 LINE",
"423 615 LINE",
"733 615 LINE",
"760 745 LINE",
"160 745 LINE",
"133 615 LINE",
"263 615 LINE",
"132 0 LINE"
);
}
);
};
layerId = "FF6420B2-C0A6-48EA-9EF6-B9F37DCCE47B";
paths = (
{
closed = 1;
nodes = (
"292 0 LINE",
"353 288 LINE",
"613 288 LINE",
"641 418 LINE",
"381 418 LINE",
"423 615 LINE",
"733 615 LINE",
"760 745 LINE",
"160 745 LINE",
"133 615 LINE",
"263 615 LINE",
"132 0 LINE"
);
}
);
width = 680;
}
);
leftKerningGroup = I;
leftMetricsKey = "=F";
rightKerningGroup = F;
rightMetricsKey = "=F";
},
{
glyphname = G;
lastChange = "2020-02-21 18:23:37 +0000";
layers = (
{
anchors = (
{
name = bottom;
position = "{459, 0}";
},
{
name = top;
position = "{459, 710}";
}
);
background = {
anchors = (
{
name = bottom;
position = "{459, 0}";
},
{
name = top;
position = "{459, 710}";
}
);
paths = (
{
closed = 1;
nodes = (
"571 -12 OFFCURVE",
"692 64 OFFCURVE",
"737 183 CURVE",
"737 384 LINE",
"427 384 LINE",
"427 314 LINE",
"662 314 LINE",
"662 193 LINE",
"625 106 OFFCURVE",
"533 58 OFFCURVE",
"428 58 CURVE SMOOTH",
"255 58 OFFCURVE",
"135 187 OFFCURVE",
"135 372 CURVE SMOOTH",
"135 555 OFFCURVE",
"253 687 OFFCURVE",
"418 687 CURVE SMOOTH",
"523 687 OFFCURVE",
"606 632 OFFCURVE",
"645 536 CURVE",
"717 571 LINE",
"673 682 OFFCURVE",
"554 757 OFFCURVE",
"418 757 CURVE SMOOTH",
"212 757 OFFCURVE",
"55 590 OFFCURVE",
"55 372 CURVE SMOOTH",
"55 153 OFFCURVE",
"215 -12 OFFCURVE",
"428 -12 CURVE SMOOTH"
);
}
);
};
layerId = "30C2FD74-1A74-41AC-9C29-B288AE1DBDD7";
paths = (
{
closed = 1;
nodes = (
"571 -12 OFFCURVE",
"692 64 OFFCURVE",
"737 183 CURVE",
"737 384 LINE",
"427 384 LINE",
"427 314 LINE",
"662 314 LINE",
"662 193 LINE",
"625 106 OFFCURVE",
"533 58 OFFCURVE",
"428 58 CURVE SMOOTH",
"255 58 OFFCURVE",
"135 187 OFFCURVE",
"135 372 CURVE SMOOTH",
"135 555 OFFCURVE",
"253 687 OFFCURVE",
"418 687 CURVE SMOOTH",
"523 687 OFFCURVE",
"606 632 OFFCURVE",
"645 536 CURVE",
"717 571 LINE",
"673 682 OFFCURVE",
"554 757 OFFCURVE",
"418 757 CURVE SMOOTH",
"212 757 OFFCURVE",
"55 590 OFFCURVE",
"55 372 CURVE SMOOTH",
"55 153 OFFCURVE",
"215 -12 OFFCURVE",
"428 -12 CURVE SMOOTH"
);
}
);
width = 787;
},
{
anchors = (
{
name = bottom;
position = "{407, 0}";
},
{
name = top;
position = "{407, 710}";
}
);
background = {
anchors = (
{
name = bottom;
position = "{407, 0}";
},
{
name = top;
position = "{407, 710}";
}
);
paths = (
{
closed = 1;
nodes = (
"608 -12 OFFCURVE",
"723 88 OFFCURVE",
"753 210 CURVE",
"753 420 LINE",
"423 420 LINE",
"423 285 LINE",
"603 285 LINE",
"603 220 LINE",
"584 175 OFFCURVE",
"525 128 OFFCURVE",
"421 128 CURVE SMOOTH",
"279 128 OFFCURVE",
"190 227 OFFCURVE",
"190 373 CURVE SMOOTH",
"190 518 OFFCURVE",
"279 617 OFFCURVE",
"411 617 CURVE SMOOTH",
"501 617 OFFCURVE",
"567 564 OFFCURVE",
"593 492 CURVE",
"730 558 LINE",
"691 668 OFFCURVE",
"572 757 OFFCURVE",
"411 757 CURVE SMOOTH",
"195 757 OFFCURVE",
"35 595 OFFCURVE",
"35 373 CURVE SMOOTH",
"35 152 OFFCURVE",
"197 -12 OFFCURVE",
"421 -12 CURVE SMOOTH"
);
}
);
};
layerId = "9398AC28-6BE1-4A79-9C94-3CBC2F226CE7";
paths = (
{
closed = 1;
nodes = (
"608 -12 OFFCURVE",
"723 88 OFFCURVE",
"753 210 CURVE",
"753 420 LINE",
"423 420 LINE",
"423 285 LINE",
"603 285 LINE",
"603 220 LINE",
"584 175 OFFCURVE",
"525 128 OFFCURVE",
"421 128 CURVE SMOOTH",
"279 128 OFFCURVE",
"190 227 OFFCURVE",
"190 373 CURVE SMOOTH",
"190 518 OFFCURVE",
"279 617 OFFCURVE",
"411 617 CURVE SMOOTH",
"501 617 OFFCURVE",
"567 564 OFFCURVE",
"593 492 CURVE",
"730 558 LINE",
"691 668 OFFCURVE",
"572 757 OFFCURVE",
"411 757 CURVE SMOOTH",
"195 757 OFFCURVE",
"35 595 OFFCURVE",
"35 373 CURVE SMOOTH",
"35 152 OFFCURVE",
"197 -12 OFFCURVE",
"421 -12 CURVE SMOOTH"
);
}
);
width = 783;
},
{
anchors = (
{
name = bottom;
position = "{406, -5}";
},
{
name = top;
position = "{555, 702}";
}
);
background = {
anchors = (
{
name = bottom;
position = "{406, -5}";
},
{
name = top;
position = "{555, 702}";
}
);
paths = (
{
closed = 1;
nodes = (
"545 -12 OFFCURVE",
"656 47 OFFCURVE",
"718 150 CURVE",
"767 384 LINE",
"455 383 LINE",
"441 313 LINE",
"677 314 LINE",
"646 168 LINE",
"599 97 OFFCURVE",
"519 57 OFFCURVE",
"422 57 CURVE SMOOTH",
"258 57 OFFCURVE",
"156 157 OFFCURVE",
"156 320 CURVE SMOOTH",
"156 522 OFFCURVE",
"301 687 OFFCURVE",
"479 687 CURVE SMOOTH",
"595 687 OFFCURVE",
"681 619 OFFCURVE",
"701 511 CURVE",
"779 538 LINE",
"757 667 OFFCURVE",
"636 757 OFFCURVE",
"486 757 CURVE SMOOTH",
"263 757 OFFCURVE",
"77 558 OFFCURVE",
"77 320 CURVE SMOOTH",
"77 122 OFFCURVE",
"213 -12 OFFCURVE",
"414 -12 CURVE SMOOTH"
);
}
);
};
layerId = "0E6515C6-4BDD-456A-90F7-F5B263F1D284";
paths = (
{
closed = 1;
nodes = (
"545 -12 OFFCURVE",
"656 47 OFFCURVE",
"718 150 CURVE",
"767 384 LINE",
"455 383 LINE",
"441 313 LINE",
"677 314 LINE",
"646 168 LINE",
"599 97 OFFCURVE",
"519 57 OFFCURVE",
"422 57 CURVE SMOOTH",
"258 57 OFFCURVE",
"156 157 OFFCURVE",
"156 320 CURVE SMOOTH",
"156 522 OFFCURVE",
"301 687 OFFCURVE",
"479 687 CURVE SMOOTH",
"595 687 OFFCURVE",
"681 619 OFFCURVE",
"701 511 CURVE",
"779 538 LINE",
"757 667 OFFCURVE",
"636 757 OFFCURVE",
"486 757 CURVE SMOOTH",
"263 757 OFFCURVE",
"77 558 OFFCURVE",
"77 320 CURVE SMOOTH",
"77 122 OFFCURVE",
"213 -12 OFFCURVE",
"414 -12 CURVE SMOOTH"
);
}
);
width = 792;
},
{
anchors = (
{
name = bottom;
position = "{353, 1}";
},
{
name = top;
position = "{502, 707}";
}
);
background = {
anchors = (
{
name = bottom;
position = "{353, 1}";
},
{
name = top;
position = "{502, 707}";
}
);
paths = (
{
closed = 1;
nodes = (
"560 -12 OFFCURVE",
"683 59 OFFCURVE",
"737 175 CURVE",
"789 420 LINE",
"457 419 LINE",
"429 284 LINE",
"610 285 LINE",
"592 201 LINE",
"562 155 OFFCURVE",
"503 128 OFFCURVE",
"418 128 CURVE SMOOTH",
"288 128 OFFCURVE",
"211 204 OFFCURVE",
"211 339 CURVE SMOOTH",
"211 494 OFFCURVE",
"321 617 OFFCURVE",
"459 617 CURVE SMOOTH",
"554 617 OFFCURVE",
"626 560 OFFCURVE",
"639 473 CURVE",
"788 524 LINE",
"769 660 OFFCURVE",
"638 757 OFFCURVE",
"471 757 CURVE SMOOTH",
"236 757 OFFCURVE",
"56 559 OFFCURVE",
"56 324 CURVE SMOOTH",
"56 123 OFFCURVE",
"210 -12 OFFCURVE",
"404 -12 CURVE SMOOTH"
);
}
);
};
layerId = "FF6420B2-C0A6-48EA-9EF6-B9F37DCCE47B";
paths = (
{
closed = 1;
nodes = (
"560 -12 OFFCURVE",
"683 59 OFFCURVE",
"737 175 CURVE",
"789 420 LINE",
"457 419 LINE",
"429 284 LINE",
"610 285 LINE",
"592 201 LINE",
"562 155 OFFCURVE",
"503 128 OFFCURVE",
"418 128 CURVE SMOOTH",
"288 128 OFFCURVE",
"211 204 OFFCURVE",
"211 339 CURVE SMOOTH",
"211 494 OFFCURVE",
"321 617 OFFCURVE",
"459 617 CURVE SMOOTH",
"554 617 OFFCURVE",
"626 560 OFFCURVE",
"639 473 CURVE",
"788 524 LINE",
"769 660 OFFCURVE",
"638 757 OFFCURVE",
"471 757 CURVE SMOOTH",
"236 757 OFFCURVE",
"56 559 OFFCURVE",
"56 324 CURVE SMOOTH",
"56 123 OFFCURVE",
"210 -12 OFFCURVE",
"404 -12 CURVE SMOOTH"
);
}
);
width = 788;
}
);
leftKerningGroup = O;
leftMetricsKey = "=O";
rightKerningGroup = G;
unicode = 0047;
},
{
color = 0;
glyphname = G.ss02;
lastChange = "2020-02-21 18:23:37 +0000";
layers = (
{
anchors = (
{
name = bottom;
position = "{458, 0}";
},
{
name = top;
position = "{458, 710}";
}
);
background = {
anchors = (
{
name = bottom;
position = "{458, 0}";
},
{
name = top;
position = "{458, 710}";
}
);
paths = (
{
closed = 1;
nodes = (
"529 -12 OFFCURVE",
"633 37 OFFCURVE",
"689 150 CURVE",
"676 162 LINE",
"676 0 LINE",
"746 0 LINE",
"746 385 LINE",
"418 385 LINE",
"418 315 LINE",
"711 315 LINE",
"675 349 LINE",
"684 137 OFFCURVE",
"551 58 OFFCURVE",
"421 58 CURVE SMOOTH",
"256 58 OFFCURVE",
"135 187 OFFCURVE",
"135 372 CURVE SMOOTH",
"135 557 OFFCURVE",
"253 687 OFFCURVE",
"418 687 CURVE SMOOTH",
"527 687 OFFCURVE",
"608 627 OFFCURVE",
"645 536 CURVE",
"717 571 LINE",
"680 664 OFFCURVE",
"569 757 OFFCURVE",
"418 757 CURVE SMOOTH",
"208 757 OFFCURVE",
"55 595 OFFCURVE",
"55 372 CURVE SMOOTH",
"55 149 OFFCURVE",
"211 -12 OFFCURVE",
"421 -12 CURVE SMOOTH"
);
}
);
};
layerId = "30C2FD74-1A74-41AC-9C29-B288AE1DBDD7";
paths = (
{
closed = 1;
nodes = (
"529 -12 OFFCURVE",
"633 37 OFFCURVE",
"689 150 CURVE",
"676 162 LINE",
"676 0 LINE",
"746 0 LINE",
"746 385 LINE",
"418 385 LINE",
"418 315 LINE",
"711 315 LINE",
"675 349 LINE",
"684 137 OFFCURVE",
"551 58 OFFCURVE",
"421 58 CURVE SMOOTH",
"256 58 OFFCURVE",
"135 187 OFFCURVE",
"135 372 CURVE SMOOTH",
"135 557 OFFCURVE",
"253 687 OFFCURVE",
"418 687 CURVE SMOOTH",
"527 687 OFFCURVE",
"608 627 OFFCURVE",
"645 536 CURVE",
"717 571 LINE",
"680 664 OFFCURVE",
"569 757 OFFCURVE",
"418 757 CURVE SMOOTH",
"208 757 OFFCURVE",
"55 595 OFFCURVE",
"55 372 CURVE SMOOTH",
"55 149 OFFCURVE",
"211 -12 OFFCURVE",
"421 -12 CURVE SMOOTH"
);
}
);
width = 796;
},
{
anchors = (
{
name = bottom;
position = "{410, 0}";
},
{
name = top;
position = "{411, 710}";
}
);
background = {
anchors = (
{
name = bottom;
position = "{410, 0}";
},
{
name = top;
position = "{411, 710}";
}
);
paths = (
{
closed = 1;
nodes = (
"508 -12 OFFCURVE",
"593 25 OFFCURVE",
"651 105 CURVE",
"618 136 LINE",
"616 0 LINE",
"756 0 LINE",
"756 415 LINE",
"376 415 LINE",
"377 285 LINE",
"684 285 LINE",
"611 330 LINE",
"641 217 OFFCURVE",
"552 128 OFFCURVE",
"418 128 CURVE SMOOTH",
"282 128 OFFCURVE",
"190 228 OFFCURVE",
"190 375 CURVE SMOOTH",
"190 510 OFFCURVE",
"281 617 OFFCURVE",
"411 617 CURVE SMOOTH",
"497 617 OFFCURVE",
"565 571 OFFCURVE",
"594 492 CURVE",
"731 558 LINE",
"688 678 OFFCURVE",
"561 757 OFFCURVE",
"412 757 CURVE SMOOTH",
"195 757 OFFCURVE",
"35 587 OFFCURVE",
"35 376 CURVE SMOOTH",
"35 158 OFFCURVE",
"198 -12 OFFCURVE",
"409 -12 CURVE SMOOTH"
);
}
);
};
layerId = "9398AC28-6BE1-4A79-9C94-3CBC2F226CE7";
paths = (
{
closed = 1;
nodes = (
"508 -12 OFFCURVE",
"593 25 OFFCURVE",
"651 105 CURVE",
"618 136 LINE",
"616 0 LINE",
"756 0 LINE",
"756 415 LINE",
"376 415 LINE",
"377 285 LINE",
"684 285 LINE",
"611 330 LINE",
"641 217 OFFCURVE",
"552 128 OFFCURVE",
"418 128 CURVE SMOOTH",
"282 128 OFFCURVE",
"190 228 OFFCURVE",
"190 375 CURVE SMOOTH",
"190 510 OFFCURVE",
"281 617 OFFCURVE",
"411 617 CURVE SMOOTH",
"497 617 OFFCURVE",
"565 571 OFFCURVE",
"594 492 CURVE",
"731 558 LINE",
"688 678 OFFCURVE",
"561 757 OFFCURVE",
"412 757 CURVE SMOOTH",
"195 757 OFFCURVE",
"35 587 OFFCURVE",
"35 376 CURVE SMOOTH",
"35 158 OFFCURVE",
"198 -12 OFFCURVE",
"409 -12 CURVE SMOOTH"
);
}
);
width = 786;
},
{
anchors = (
{
name = bottom;
position = "{482, 0}";
},
{
name = top;
position = "{482, 710}";
}
);
background = {
anchors = (
{
name = bottom;
position = "{482, 0}";
},
{
name = top;
position = "{482, 710}";
}
);
paths = (
{
closed = 1;
nodes = (
"509 -12 OFFCURVE",
"595 32 OFFCURVE",
"661 121 CURVE",
"652 136 LINE",
"624 0 LINE",
"695 0 LINE",
"775 385 LINE",
"446 385 LINE",
"431 315 LINE",
"726 315 LINE",
"694 343 LINE",
"681 171 OFFCURVE",
"569 58 OFFCURVE",
"413 58 CURVE SMOOTH",
"255 58 OFFCURVE",
"156 159 OFFCURVE",
"156 320 CURVE SMOOTH",
"156 521 OFFCURVE",
"300 687 OFFCURVE",
"476 687 CURVE SMOOTH",
"592 687 OFFCURVE",
"682 616 OFFCURVE",
"700 512 CURVE",
"779 539 LINE",
"756 666 OFFCURVE",
"632 757 OFFCURVE",
"482 757 CURVE SMOOTH",
"264 757 OFFCURVE",
"76 553 OFFCURVE",
"76 316 CURVE SMOOTH",
"76 124 OFFCURVE",
"211 -12 OFFCURVE",
"401 -12 CURVE SMOOTH"
);
}
);
};
layerId = "0E6515C6-4BDD-456A-90F7-F5B263F1D284";
paths = (
{
closed = 1;
nodes = (
"509 -12 OFFCURVE",
"595 32 OFFCURVE",
"661 121 CURVE",
"652 136 LINE",
"624 0 LINE",
"695 0 LINE",
"775 385 LINE",
"446 385 LINE",
"431 315 LINE",
"726 315 LINE",
"694 343 LINE",
"681 171 OFFCURVE",
"569 58 OFFCURVE",
"413 58 CURVE SMOOTH",
"255 58 OFFCURVE",
"156 159 OFFCURVE",
"156 320 CURVE SMOOTH",
"156 521 OFFCURVE",
"300 687 OFFCURVE",
"476 687 CURVE SMOOTH",
"592 687 OFFCURVE",
"682 616 OFFCURVE",
"700 512 CURVE",
"779 539 LINE",
"756 666 OFFCURVE",
"632 757 OFFCURVE",
"482 757 CURVE SMOOTH",
"264 757 OFFCURVE",
"76 553 OFFCURVE",
"76 316 CURVE SMOOTH",
"76 124 OFFCURVE",
"211 -12 OFFCURVE",
"401 -12 CURVE SMOOTH"
);
}
);
width = 801;
},
{
anchors = (
{
name = bottom;
position = "{356, 1}";
},
{
name = top;
position = "{505, 707}";
}
);
background = {
anchors = (
{
name = bottom;
position = "{356, 1}";
},
{
name = top;
position = "{505, 707}";
}
);
paths = (
{
closed = 1;
nodes = (
"471 -12 OFFCURVE",
"543 20 OFFCURVE",
"612 81 CURVE",
"586 116 LINE",
"563 0 LINE",
"704 0 LINE",
"790 415 LINE",
"410 415 LINE",
"383 285 LINE",
"688 285 LINE",
"618 332 LINE",
"641 215 OFFCURVE",
"545 126 OFFCURVE",
"421 126 CURVE SMOOTH",
"290 126 OFFCURVE",
"211 209 OFFCURVE",
"211 329 CURVE SMOOTH",
"211 477 OFFCURVE",
"311 617 OFFCURVE",
"460 617 CURVE SMOOTH",
"561 617 OFFCURVE",
"626 562 OFFCURVE",
"639 473 CURVE",
"788 524 LINE",
"768 669 OFFCURVE",
"622 757 OFFCURVE",
"471 757 CURVE SMOOTH",
"238 757 OFFCURVE",
"56 560 OFFCURVE",
"56 326 CURVE SMOOTH",
"56 133 OFFCURVE",
"190 -12 OFFCURVE",
"390 -12 CURVE SMOOTH"
);
}
);
};
layerId = "FF6420B2-C0A6-48EA-9EF6-B9F37DCCE47B";
paths = (
{
closed = 1;
nodes = (
"471 -12 OFFCURVE",
"543 20 OFFCURVE",
"612 81 CURVE",
"586 116 LINE",
"563 0 LINE",
"704 0 LINE",
"790 415 LINE",
"410 415 LINE",
"383 285 LINE",
"688 285 LINE",
"618 332 LINE",
"641 215 OFFCURVE",
"545 126 OFFCURVE",
"421 126 CURVE SMOOTH",
"290 126 OFFCURVE",
"211 209 OFFCURVE",
"211 329 CURVE SMOOTH",
"211 477 OFFCURVE",
"311 617 OFFCURVE",
"460 617 CURVE SMOOTH",
"561 617 OFFCURVE",
"626 562 OFFCURVE",
"639 473 CURVE",
"788 524 LINE",
"768 669 OFFCURVE",
"622 757 OFFCURVE",
"471 757 CURVE SMOOTH",
"238 757 OFFCURVE",
"56 560 OFFCURVE",
"56 326 CURVE SMOOTH",
"56 133 OFFCURVE",
"190 -12 OFFCURVE",
"390 -12 CURVE SMOOTH"
);
}
);
width = 792;
}
);
leftKerningGroup = O;
leftMetricsKey = "=G";
rightKerningGroup = G;
rightMetricsKey = "=G";
},
{
color = 6;
glyphname = G.ss03;
lastChange = "2020-02-21 18:23:37 +0000";
layers = (
{
anchors = (
{
name = bottom;
position = "{458, 0}";
},
{
name = top;
position = "{458, 710}";
}
);
background = {
anchors = (
{
name = bottom;
position = "{458, 0}";
},
{
name = top;
position = "{458, 710}";
}
);
paths = (
{
closed = 1;
nodes = (
"592 -12 OFFCURVE",
"759 94 OFFCURVE",
"756 353 CURVE SMOOTH",
"756 384 LINE",
"366 384 LINE",
"366 315 LINE",
"708 315 LINE",
"672 349 LINE",
"681 137 OFFCURVE",
"548 58 OFFCURVE",
"418 58 CURVE SMOOTH",
"253 58 OFFCURVE",
"135 187 OFFCURVE",
"135 372 CURVE SMOOTH",
"135 557 OFFCURVE",
"253 686 OFFCURVE",
"418 686 CURVE SMOOTH",
"527 686 OFFCURVE",
"608 627 OFFCURVE",
"645 536 CURVE",
"717 571 LINE",
"680 664 OFFCURVE",
"569 756 OFFCURVE",
"418 756 CURVE SMOOTH",
"208 756 OFFCURVE",
"55 595 OFFCURVE",
"55 372 CURVE SMOOTH",
"55 149 OFFCURVE",
"208 -12 OFFCURVE",
"418 -12 CURVE SMOOTH"
);
}
);
};
layerId = "30C2FD74-1A74-41AC-9C29-B288AE1DBDD7";
paths = (
{
closed = 1;
nodes = (
"592 -12 OFFCURVE",
"759 94 OFFCURVE",
"756 353 CURVE SMOOTH",
"756 384 LINE",
"366 384 LINE",
"366 315 LINE",
"708 315 LINE",
"672 349 LINE",
"681 137 OFFCURVE",
"548 58 OFFCURVE",
"418 58 CURVE SMOOTH",
"253 58 OFFCURVE",
"135 187 OFFCURVE",
"135 372 CURVE SMOOTH",
"135 557 OFFCURVE",
"253 686 OFFCURVE",
"418 686 CURVE SMOOTH",
"527 686 OFFCURVE",
"608 627 OFFCURVE",
"645 536 CURVE",
"717 571 LINE",
"680 664 OFFCURVE",
"569 756 OFFCURVE",
"418 756 CURVE SMOOTH",
"208 756 OFFCURVE",
"55 595 OFFCURVE",
"55 372 CURVE SMOOTH",
"55 149 OFFCURVE",
"208 -12 OFFCURVE",
"418 -12 CURVE SMOOTH"
);
}
);
width = 806;
},
{
anchors = (
{
name = bottom;
position = "{410, 0}";
},
{
name = top;
position = "{410, 710}";
}
);
background = {
anchors = (
{
name = bottom;
position = "{410, 0}";
},
{
name = top;
position = "{410, 710}";
}
);
paths = (
{
closed = 1;
nodes = (
"599 -12 OFFCURVE",
"776 104 OFFCURVE",
"776 366 CURVE SMOOTH",
"776 425 LINE",
"406 425 LINE",
"406 295 LINE",
"679 295 LINE",
"608 355 LINE",
"635 196 OFFCURVE",
"531 128 OFFCURVE",
"418 128 CURVE SMOOTH",
"279 128 OFFCURVE",
"190 227 OFFCURVE",
"190 373 CURVE SMOOTH",
"190 518 OFFCURVE",
"279 617 OFFCURVE",
"411 617 CURVE SMOOTH",
"501 617 OFFCURVE",
"567 564 OFFCURVE",
"593 492 CURVE",
"730 558 LINE",
"691 668 OFFCURVE",
"572 757 OFFCURVE",
"411 757 CURVE SMOOTH",
"195 757 OFFCURVE",
"35 595 OFFCURVE",
"35 373 CURVE SMOOTH",
"35 152 OFFCURVE",
"197 -12 OFFCURVE",
"418 -12 CURVE SMOOTH"
);
}
);
};
layerId = "9398AC28-6BE1-4A79-9C94-3CBC2F226CE7";
paths = (
{
closed = 1;
nodes = (
"599 -12 OFFCURVE",
"776 104 OFFCURVE",
"776 366 CURVE SMOOTH",
"776 425 LINE",
"406 425 LINE",
"406 295 LINE",
"679 295 LINE",
"608 355 LINE",
"635 196 OFFCURVE",
"531 128 OFFCURVE",
"418 128 CURVE SMOOTH",
"279 128 OFFCURVE",
"190 227 OFFCURVE",
"190 373 CURVE SMOOTH",
"190 518 OFFCURVE",
"279 617 OFFCURVE",
"411 617 CURVE SMOOTH",
"501 617 OFFCURVE",
"567 564 OFFCURVE",
"593 492 CURVE",
"730 558 LINE",
"691 668 OFFCURVE",
"572 757 OFFCURVE",
"411 757 CURVE SMOOTH",
"195 757 OFFCURVE",
"35 595 OFFCURVE",
"35 373 CURVE SMOOTH",
"35 152 OFFCURVE",
"197 -12 OFFCURVE",
"418 -12 CURVE SMOOTH"
);
}
);
width = 806;
},
{
anchors = (
{
name = bottom;
position = "{405, -3}";
},
{
name = top;
position = "{554, 703}";
}
);
background = {
anchors = (
{
name = bottom;
position = "{405, -3}";
},
{
name = top;
position = "{554, 703}";
}
);
paths = (
{
closed = 1;
nodes = (
"597 -11 OFFCURVE",
"739 116 OFFCURVE",
"772 318 CURVE SMOOTH",
"783 384 LINE",
"401 384 LINE",
"386 315 LINE",
"718 315 LINE",
"692 326 LINE",
"667 162 OFFCURVE",
"557 58 OFFCURVE",
"409 58 CURVE SMOOTH",
"257 58 OFFCURVE",
"157 161 OFFCURVE",
"157 319 CURVE SMOOTH",
"157 527 OFFCURVE",
"306 687 OFFCURVE",
"479 687 CURVE SMOOTH",
"592 687 OFFCURVE",
"681 617 OFFCURVE",
"701 512 CURVE",
"780 539 LINE",
"758 665 OFFCURVE",
"633 757 OFFCURVE",
"483 757 CURVE SMOOTH",
"265 757 OFFCURVE",
"77 563 OFFCURVE",
"77 316 CURVE SMOOTH",
"77 122 OFFCURVE",
"211 -11 OFFCURVE",
"407 -11 CURVE SMOOTH"
);
}
);
};
layerId = "0E6515C6-4BDD-456A-90F7-F5B263F1D284";
paths = (
{
closed = 1;
nodes = (
"597 -11 OFFCURVE",
"739 116 OFFCURVE",
"772 318 CURVE SMOOTH",
"783 384 LINE",
"401 384 LINE",
"386 315 LINE",
"718 315 LINE",
"692 326 LINE",
"667 162 OFFCURVE",
"557 58 OFFCURVE",
"409 58 CURVE SMOOTH",
"257 58 OFFCURVE",
"157 161 OFFCURVE",
"157 319 CURVE SMOOTH",
"157 527 OFFCURVE",
"306 687 OFFCURVE",
"479 687 CURVE SMOOTH",
"592 687 OFFCURVE",
"681 617 OFFCURVE",
"701 512 CURVE",
"780 539 LINE",
"758 665 OFFCURVE",
"633 757 OFFCURVE",
"483 757 CURVE SMOOTH",
"265 757 OFFCURVE",
"77 563 OFFCURVE",
"77 316 CURVE SMOOTH",
"77 122 OFFCURVE",
"211 -11 OFFCURVE",
"407 -11 CURVE SMOOTH"
);
}
);
width = 811;
},
{
anchors = (
{
name = bottom;
position = "{356, 2}";
},
{
name = top;
position = "{505, 708}";
}
);
background = {
anchors = (
{
name = bottom;
position = "{356, 2}";
},
{
name = top;
position = "{505, 708}";
}
);
paths = (
{
closed = 1;
nodes = (
"571 -12 OFFCURVE",
"757 89 OFFCURVE",
"796 328 CURVE SMOOTH",
"812 425 LINE",
"441 426 LINE",
"414 296 LINE",
"683 295 LINE",
"624 333 LINE",
"618 187 OFFCURVE",
"521 128 OFFCURVE",
"419 128 CURVE SMOOTH",
"294 128 OFFCURVE",
"211 205 OFFCURVE",
"211 329 CURVE SMOOTH",
"211 480 OFFCURVE",
"309 617 OFFCURVE",
"459 617 CURVE SMOOTH",
"564 617 OFFCURVE",
"627 554 OFFCURVE",
"639 473 CURVE",
"788 524 LINE",
"768 668 OFFCURVE",
"631 757 OFFCURVE",
"471 757 CURVE SMOOTH",
"239 757 OFFCURVE",
"56 558 OFFCURVE",
"56 324 CURVE SMOOTH",
"56 125 OFFCURVE",
"203 -12 OFFCURVE",
"405 -12 CURVE SMOOTH"
);
}
);
};
layerId = "FF6420B2-C0A6-48EA-9EF6-B9F37DCCE47B";
paths = (
{
closed = 1;
nodes = (
"571 -12 OFFCURVE",
"757 89 OFFCURVE",
"796 328 CURVE SMOOTH",
"812 425 LINE",
"441 426 LINE",
"414 296 LINE",
"683 295 LINE",
"624 333 LINE",
"618 187 OFFCURVE",
"521 128 OFFCURVE",
"419 128 CURVE SMOOTH",
"294 128 OFFCURVE",
"211 205 OFFCURVE",
"211 329 CURVE SMOOTH",
"211 480 OFFCURVE",
"309 617 OFFCURVE",
"459 617 CURVE SMOOTH",
"564 617 OFFCURVE",
"627 554 OFFCURVE",
"639 473 CURVE",
"788 524 LINE",
"768 668 OFFCURVE",
"631 757 OFFCURVE",
"471 757 CURVE SMOOTH",
"239 757 OFFCURVE",
"56 558 OFFCURVE",
"56 324 CURVE SMOOTH",
"56 125 OFFCURVE",
"203 -12 OFFCURVE",
"405 -12 CURVE SMOOTH"
);
}
);
width = 815;
}
);
leftKerningGroup = O;
leftMetricsKey = "=G";
rightKerningGroup = G;
rightMetricsKey = "=G";
},
{
glyphname = H;
lastChange = "2020-02-21 18:23:37 +0000";
layers = (
{
anchors = (
{
name = bottom;
position = "{337, 0}";
},
{
name = center;
position = "{337, 536}";
},
{
name = top;
position = "{337, 710}";
}
);
background = {
anchors = (
{
name = bottom;
position = "{337, 0}";
},
{
name = center;
position = "{337, 536}";
},
{
name = top;
position = "{337, 710}";
}
);
paths = (
{
closed = 1;
nodes = (
"160 0 LINE",
"160 320 LINE",
"560 320 LINE",
"560 0 LINE",
"640 0 LINE",
"640 745 LINE",
"560 745 LINE",
"560 390 LINE",
"160 390 LINE",
"160 745 LINE",
"80 745 LINE",
"80 0 LINE"
);
}
);
};
layerId = "30C2FD74-1A74-41AC-9C29-B288AE1DBDD7";
paths = (
{
closed = 1;
nodes = (
"160 0 LINE",
"160 320 LINE",
"560 320 LINE",
"560 0 LINE",
"640 0 LINE",
"640 745 LINE",
"560 745 LINE",
"560 390 LINE",
"160 390 LINE",
"160 745 LINE",
"80 745 LINE",
"80 0 LINE"
);
}
);
width = 720;
},
{
anchors = (
{
name = bottom;
position = "{358, 0}";
},
{
name = center;
position = "{358, 563}";
},
{
name = top;
position = "{358, 710}";
}
);
background = {
anchors = (
{
name = bottom;
position = "{358, 0}";
},
{
name = center;
position = "{358, 563}";
},
{
name = top;
position = "{358, 710}";
}
);
paths = (
{
closed = 1;
nodes = (
"215 0 LINE",
"215 288 LINE",
"505 288 LINE",
"505 0 LINE",
"660 0 LINE",
"660 745 LINE",
"505 745 LINE",
"505 423 LINE",
"215 423 LINE",
"215 745 LINE",
"60 745 LINE",
"60 0 LINE"
);
}
);
};
layerId = "9398AC28-6BE1-4A79-9C94-3CBC2F226CE7";
paths = (
{
closed = 1;
nodes = (
"215 0 LINE",
"215 288 LINE",
"505 288 LINE",
"505 0 LINE",
"660 0 LINE",
"660 745 LINE",
"505 745 LINE",
"505 423 LINE",
"215 423 LINE",
"215 745 LINE",
"60 745 LINE",
"60 0 LINE"
);
}
);
width = 720;
},
{
anchors = (
{
name = bottom;
position = "{281, 0}";
},
{
name = center;
position = "{395, 536}";
},
{
name = top;
position = "{432, 710}";
}
);
background = {
anchors = (
{
name = bottom;
position = "{281, 0}";
},
{
name = center;
position = "{395, 536}";
},
{
name = top;
position = "{432, 710}";
}
);
paths = (
{
closed = 1;
nodes = (
"104 0 LINE",
"172 320 LINE",
"572 320 LINE",
"504 0 LINE",
"584 0 LINE",
"742 745 LINE",
"662 745 LINE",
"587 390 LINE",
"187 390 LINE",
"262 745 LINE",
"182 745 LINE",
"24 0 LINE"
);
}
);
};
layerId = "0E6515C6-4BDD-456A-90F7-F5B263F1D284";
paths = (
{
closed = 1;
nodes = (
"104 0 LINE",
"172 320 LINE",
"572 320 LINE",
"504 0 LINE",
"584 0 LINE",
"742 745 LINE",
"662 745 LINE",
"587 390 LINE",
"187 390 LINE",
"262 745 LINE",
"182 745 LINE",
"24 0 LINE"
);
}
);
width = 720;
},
{
anchors = (
{
name = bottom;
position = "{300, 0}";
},
{
name = center;
position = "{419, 563}";
},
{
name = top;
position = "{451, 710}";
}
);
background = {
anchors = (
{
name = bottom;
position = "{300, 0}";
},
{
name = center;
position = "{419, 563}";
},
{
name = top;
position = "{451, 710}";
}
);
paths = (
{
closed = 1;
nodes = (
"157 0 LINE",
"218 288 LINE",
"508 288 LINE",
"447 0 LINE",
"602 0 LINE",
"760 745 LINE",
"605 745 LINE",
"537 423 LINE",
"247 423 LINE",
"315 745 LINE",
"160 745 LINE",
"2 0 LINE"
);
}
);
};
layerId = "FF6420B2-C0A6-48EA-9EF6-B9F37DCCE47B";
paths = (
{
closed = 1;
nodes = (
"157 0 LINE",
"218 288 LINE",
"508 288 LINE",
"447 0 LINE",
"602 0 LINE",
"760 745 LINE",
"605 745 LINE",
"537 423 LINE",
"247 423 LINE",
"315 745 LINE",
"160 745 LINE",
"2 0 LINE"
);
}
);
width = 720;
}
);
leftKerningGroup = I;
rightKerningGroup = I;
unicode = 0048;
},
{
glyphname = I;
lastChange = "2020-02-21 18:23:37 +0000";
layers = (
{
anchors = (
{
name = bottom;
position = "{120, 0}";
},
{
name = top;
position = "{120, 745}";
}
);
background = {
anchors = (
{
name = bottom;
position = "{120, 0}";
},
{
name = top;
position = "{120, 745}";
}
);
paths = (
{
closed = 1;
nodes = (
"160 0 LINE",
"160 745 LINE",
"80 745 LINE",
"80 0 LINE"
);
}
);
};
layerId = "30C2FD74-1A74-41AC-9C29-B288AE1DBDD7";
paths = (
{
closed = 1;
nodes = (
"160 0 LINE",
"160 745 LINE",
"80 745 LINE",
"80 0 LINE"
);
}
);
width = 240;
},
{
anchors = (
{
name = bottom;
position = "{138, 0}";
},
{
name = top;
position = "{138, 745}";
}
);
background = {
anchors = (
{
name = bottom;
position = "{138, 0}";
},
{
name = top;
position = "{138, 745}";
}
);
paths = (
{
closed = 1;
nodes = (
"215 0 LINE",
"215 745 LINE",
"60 745 LINE",
"60 0 LINE"
);
}
);
};
layerId = "9398AC28-6BE1-4A79-9C94-3CBC2F226CE7";
paths = (
{
closed = 1;
nodes = (
"215 0 LINE",
"215 745 LINE",
"60 745 LINE",
"60 0 LINE"
);
}
);
width = 275;
},
{
anchors = (
{
name = bottom;
position = "{64, 0}";
},
{
name = top;
position = "{222, 745}";
}
);
background = {
anchors = (
{
name = bottom;
position = "{64, 0}";
},
{
name = top;
position = "{222, 745}";
}
);
paths = (
{
closed = 1;
nodes = (
"104 0 LINE",
"262 745 LINE",
"182 745 LINE",
"24 0 LINE"
);
}
);
};
layerId = "0E6515C6-4BDD-456A-90F7-F5B263F1D284";
paths = (
{
closed = 1;
nodes = (
"104 0 LINE",
"262 745 LINE",
"182 745 LINE",
"24 0 LINE"
);
}
);
width = 240;
},
{
anchors = (
{
name = bottom;
position = "{80, 0}";
},
{
name = top;
position = "{238, 745}";
}
);
background = {
anchors = (
{
name = bottom;
position = "{80, 0}";
},
{
name = top;
position = "{238, 745}";
}
);
paths = (
{
closed = 1;
nodes = (
"157 0 LINE",
"315 745 LINE",
"160 745 LINE",
"2 0 LINE"
);
}
);
};
layerId = "FF6420B2-C0A6-48EA-9EF6-B9F37DCCE47B";
paths = (
{
closed = 1;
nodes = (
"157 0 LINE",
"315 745 LINE",
"160 745 LINE",
"2 0 LINE"
);
}
);
width = 275;
}
);
leftKerningGroup = I;
rightKerningGroup = I;
unicode = 0049;
},
{
color = 0;
glyphname = I.ss02;
lastChange = "2020-02-21 18:23:37 +0000";
layers = (
{
anchors = (
{
name = bottom;
position = "{182, 0}";
},
{
name = top;
position = "{182, 710}";
}
);
background = {
anchors = (
{
name = bottom;
position = "{182, 0}";
},
{
name = top;
position = "{182, 710}";
}
);
paths = (
{
closed = 1;
nodes = (
"327 0 LINE",
"327 70 LINE",
"222 70 LINE",
"222 675 LINE",
"327 675 LINE",
"327 745 LINE",
"37 745 LINE",
"37 675 LINE",
"142 675 LINE",
"142 70 LINE",
"37 70 LINE",
"37 0 LINE"
);
}
);
};
layerId = "30C2FD74-1A74-41AC-9C29-B288AE1DBDD7";
paths = (
{
closed = 1;
nodes = (
"327 0 LINE",
"327 70 LINE",
"222 70 LINE",
"222 675 LINE",
"327 675 LINE",
"327 745 LINE",
"37 745 LINE",
"37 675 LINE",
"142 675 LINE",
"142 70 LINE",
"37 70 LINE",
"37 0 LINE"
);
}
);
width = 364;
},
{
anchors = (
{
name = bottom;
position = "{319, 0}";
},
{
name = top;
position = "{319, 710}";
}
);
background = {
anchors = (
{
name = bottom;
position = "{319, 0}";
},
{
name = top;
position = "{319, 710}";
}
);
paths = (
{
closed = 1;
nodes = (
"470 0 LINE",
"470 135 LINE",
"340 135 LINE",
"340 610 LINE",
"470 610 LINE",
"470 745 LINE",
"50 745 LINE",
"50 610 LINE",
"180 610 LINE",
"180 135 LINE",
"50 135 LINE",
"50 0 LINE"
);
}
);
};
layerId = "9398AC28-6BE1-4A79-9C94-3CBC2F226CE7";
paths = (
{
closed = 1;
nodes = (
"470 0 LINE",
"470 135 LINE",
"340 135 LINE",
"340 610 LINE",
"470 610 LINE",
"470 745 LINE",
"50 745 LINE",
"50 610 LINE",
"180 610 LINE",
"180 135 LINE",
"50 135 LINE",
"50 0 LINE"
);
}
);
width = 520;
},
{
anchors = (
{
name = bottom;
position = "{127, 0}";
},
{
name = top;
position = "{278, 710}";
}
);
background = {
anchors = (
{
name = bottom;
position = "{127, 0}";
},
{
name = top;
position = "{278, 710}";
}
);
paths = (
{
closed = 1;
nodes = (
"272 0 LINE",
"287 70 LINE",
"182 70 LINE",
"310 675 LINE",
"415 675 LINE",
"430 745 LINE",
"140 745 LINE",
"125 675 LINE",
"230 675 LINE",
"102 70 LINE",
"-3 70 LINE",
"-18 0 LINE"
);
}
);
};
layerId = "0E6515C6-4BDD-456A-90F7-F5B263F1D284";
paths = (
{
closed = 1;
nodes = (
"272 0 LINE",
"287 70 LINE",
"182 70 LINE",
"310 675 LINE",
"415 675 LINE",
"430 745 LINE",
"140 745 LINE",
"125 675 LINE",
"230 675 LINE",
"102 70 LINE",
"-3 70 LINE",
"-18 0 LINE"
);
}
);
width = 365;
},
{
anchors = (
{
name = bottom;
position = "{262, 0}";
},
{
name = top;
position = "{413, 710}";
}
);
background = {
anchors = (
{
name = bottom;
position = "{262, 0}";
},
{
name = top;
position = "{413, 710}";
}
);
paths = (
{
closed = 1;
nodes = (
"413 0 LINE",
"442 135 LINE",
"312 135 LINE",
"412 610 LINE",
"542 610 LINE",
"571 745 LINE",
"151 745 LINE",
"122 610 LINE",
"252 610 LINE",
"152 135 LINE",
"22 135 LINE",
"-7 0 LINE"
);
}
);
};
layerId = "FF6420B2-C0A6-48EA-9EF6-B9F37DCCE47B";
paths = (
{
closed = 1;
nodes = (
"413 0 LINE",
"442 135 LINE",
"312 135 LINE",
"412 610 LINE",
"542 610 LINE",
"571 745 LINE",
"151 745 LINE",
"122 610 LINE",
"252 610 LINE",
"152 135 LINE",
"22 135 LINE",
"-7 0 LINE"
);
}
);
width = 521;
}
);
leftKerningGroup = I;
rightKerningGroup = I;
},
{
glyphname = J;
lastChange = "2020-02-21 18:23:37 +0000";
layers = (
{
anchors = (
{
name = bottom;
position = "{68, 0}";
},
{
name = top;
position = "{233, 710}";
}
);
background = {
anchors = (
{
name = bottom;
position = "{68, 0}";
},
{
name = top;
position = "{233, 710}";
}
);
paths = (
{
closed = 1;
nodes = (
"64 0 LINE SMOOTH",
"186 0 OFFCURVE",
"264 79 OFFCURVE",
"264 205 CURVE SMOOTH",
"264 745 LINE",
"184 745 LINE",
"184 205 LINE SMOOTH",
"184 128 OFFCURVE",
"138 80 OFFCURVE",
"64 80 CURVE SMOOTH",
"30 80 LINE",
"30 0 LINE"
);
}
);
};
layerId = "30C2FD74-1A74-41AC-9C29-B288AE1DBDD7";
paths = (
{
closed = 1;
nodes = (
"64 0 LINE SMOOTH",
"186 0 OFFCURVE",
"264 79 OFFCURVE",
"264 205 CURVE SMOOTH",
"264 745 LINE",
"184 745 LINE",
"184 205 LINE SMOOTH",
"184 128 OFFCURVE",
"138 80 OFFCURVE",
"64 80 CURVE SMOOTH",
"30 80 LINE",
"30 0 LINE"
);
}
);
width = 344;
},
{
anchors = (
{
name = bottom;
position = "{84, 0}";
},
{
name = top;
position = "{243, 710}";
}
);
background = {
anchors = (
{
name = bottom;
position = "{84, 0}";
},
{
name = top;
position = "{243, 710}";
}
);
paths = (
{
closed = 1;
nodes = (
"60 0 LINE SMOOTH",
"216 0 OFFCURVE",
"315 96 OFFCURVE",
"315 240 CURVE SMOOTH",
"315 745 LINE",
"160 745 LINE",
"160 233 LINE SMOOTH",
"160 177 OFFCURVE",
"120 140 OFFCURVE",
"60 140 CURVE SMOOTH",
"10 140 LINE",
"10 0 LINE"
);
}
);
};
layerId = "9398AC28-6BE1-4A79-9C94-3CBC2F226CE7";
paths = (
{
closed = 1;
nodes = (
"60 0 LINE SMOOTH",
"216 0 OFFCURVE",
"315 96 OFFCURVE",
"315 240 CURVE SMOOTH",
"315 745 LINE",
"160 745 LINE",
"160 233 LINE SMOOTH",
"160 177 OFFCURVE",
"120 140 OFFCURVE",
"60 140 CURVE SMOOTH",
"10 140 LINE",
"10 0 LINE"
);
}
);
width = 375;
},
{
anchors = (
{
name = bottom;
position = "{12, 0}";
},
{
name = top;
position = "{328, 710}";
}
);
background = {
anchors = (
{
name = bottom;
position = "{12, 0}";
},
{
name = top;
position = "{328, 710}";
}
);
paths = (
{
closed = 1;
nodes = (
"28 0 LINE SMOOTH",
"130 0 OFFCURVE",
"221 60 OFFCURVE",
"244 167 CURVE SMOOTH",
"366 745 LINE",
"286 745 LINE",
"163 165 LINE SMOOTH",
"151 109 OFFCURVE",
"99 80 OFFCURVE",
"45 80 CURVE SMOOTH",
"-9 80 LINE",
"-26 0 LINE"
);
}
);
};
layerId = "0E6515C6-4BDD-456A-90F7-F5B263F1D284";
paths = (
{
closed = 1;
nodes = (
"28 0 LINE SMOOTH",
"130 0 OFFCURVE",
"221 60 OFFCURVE",
"244 167 CURVE SMOOTH",
"366 745 LINE",
"286 745 LINE",
"163 165 LINE SMOOTH",
"151 109 OFFCURVE",
"99 80 OFFCURVE",
"45 80 CURVE SMOOTH",
"-9 80 LINE",
"-26 0 LINE"
);
}
);
width = 344;
},
{
anchors = (
{
name = bottom;
position = "{26, 0}";
},
{
name = top;
position = "{336, 710}";
}
);
background = {
anchors = (
{
name = bottom;
position = "{26, 0}";
},
{
name = top;
position = "{336, 710}";
}
);
paths = (
{
closed = 1;
nodes = (
"22 0 LINE SMOOTH",
"158 0 OFFCURVE",
"271 67 OFFCURVE",
"296 184 CURVE SMOOTH",
"415 745 LINE",
"260 745 LINE",
"147 213 LINE SMOOTH",
"135 158 OFFCURVE",
"92 140 OFFCURVE",
"52 140 CURVE SMOOTH",
"-18 140 LINE",
"-48 0 LINE"
);
}
);
};
layerId = "FF6420B2-C0A6-48EA-9EF6-B9F37DCCE47B";
paths = (
{
closed = 1;
nodes = (
"22 0 LINE SMOOTH",
"158 0 OFFCURVE",
"271 67 OFFCURVE",
"296 184 CURVE SMOOTH",
"415 745 LINE",
"260 745 LINE",
"147 213 LINE SMOOTH",
"135 158 OFFCURVE",
"92 140 OFFCURVE",
"52 140 CURVE SMOOTH",
"-18 140 LINE",
"-48 0 LINE"
);
}
);
width = 375;
}
);
leftKerningGroup = J;
rightKerningGroup = J;
unicode = 004A;
},
{
color = 6;
glyphname = J.ss03;
lastChange = "2020-02-21 20:26:53 +0000";
layers = (
{
anchors = (
{
name = bottom;
position = "{282, 0}";
},
{
name = top;
position = "{447, 710}";
}
);
background = {
anchors = (
{
name = bottom;
position = "{282, 0}";
},
{
name = top;
position = "{447, 710}";
}
);
paths = (
{
closed = 1;
nodes = (
"390 -12 OFFCURVE",
"478 75 OFFCURVE",
"478 205 CURVE SMOOTH",
"478 745 LINE",
"398 745 LINE",
"398 205 LINE SMOOTH",
"398 117 OFFCURVE",
"342 58 OFFCURVE",
"259 58 CURVE SMOOTH",
"170 58 OFFCURVE",
"126 120 OFFCURVE",
"106 215 CURVE",
"32 193 LINE",
"52 77 OFFCURVE",
"123 -12 OFFCURVE",
"259 -12 CURVE SMOOTH"
);
}
);
};
layerId = "30C2FD74-1A74-41AC-9C29-B288AE1DBDD7";
paths = (
{
closed = 1;
nodes = (
"390 -12 OFFCURVE",
"478 75 OFFCURVE",
"478 205 CURVE SMOOTH",
"478 745 LINE",
"398 745 LINE",
"398 205 LINE SMOOTH",
"398 117 OFFCURVE",
"342 58 OFFCURVE",
"259 58 CURVE SMOOTH",
"170 58 OFFCURVE",
"126 120 OFFCURVE",
"106 215 CURVE",
"32 193 LINE",
"52 77 OFFCURVE",
"123 -12 OFFCURVE",
"259 -12 CURVE SMOOTH"
);
}
);
width = 558;
},
{
anchors = (
{
name = bottom;
position = "{318, 0}";
},
{
name = top;
position = "{477, 710}";
}
);
background = {
anchors = (
{
name = bottom;
position = "{318, 0}";
},
{
name = top;
position = "{477, 710}";
}
);
paths = (
{
closed = 1;
nodes = (
"444 -12 OFFCURVE",
"549 90 OFFCURVE",
"549 245 CURVE SMOOTH",
"549 745 LINE",
"394 745 LINE",
"394 245 LINE SMOOTH",
"394 172 OFFCURVE",
"352 128 OFFCURVE",
"284 128 CURVE SMOOTH",
"217 128 OFFCURVE",
"171 170 OFFCURVE",
"154 248 CURVE",
"10 209 LINE",
"35 72 OFFCURVE",
"138 -12 OFFCURVE",
"284 -12 CURVE SMOOTH"
);
}
);
};
layerId = "9398AC28-6BE1-4A79-9C94-3CBC2F226CE7";
paths = (
{
closed = 1;
nodes = (
"444 -12 OFFCURVE",
"549 90 OFFCURVE",
"549 245 CURVE SMOOTH",
"549 745 LINE",
"394 745 LINE",
"394 245 LINE SMOOTH",
"394 172 OFFCURVE",
"352 128 OFFCURVE",
"284 128 CURVE SMOOTH",
"217 128 OFFCURVE",
"171 170 OFFCURVE",
"154 248 CURVE",
"10 209 LINE",
"35 72 OFFCURVE",
"138 -12 OFFCURVE",
"284 -12 CURVE SMOOTH"
);
}
);
width = 609;
},
{
anchors = (
{
name = bottom;
position = "{231, 4}";
},
{
name = top;
position = "{543, 685}";
}
);
background = {
anchors = (
{
name = bottom;
position = "{231, 4}";
},
{
name = top;
position = "{543, 685}";
}
);
paths = (
{
closed = 1;
nodes = (
"351 -12 OFFCURVE",
"443 63 OFFCURVE",
"468 181 CURVE SMOOTH",
"588 745 LINE",
"507 745 LINE",
"388 189 LINE SMOOTH",
"369 100 OFFCURVE",
"312 58 OFFCURVE",
"238 58 CURVE SMOOTH",
"136 58 OFFCURVE",
"100 128 OFFCURVE",
"100 229 CURVE",
"22 215 LINE",
"17 73 OFFCURVE",
"97 -12 OFFCURVE",
"235 -12 CURVE SMOOTH"
);
}
);
};
layerId = "0E6515C6-4BDD-456A-90F7-F5B263F1D284";
paths = (
{
closed = 1;
nodes = (
"351 -12 OFFCURVE",
"443 63 OFFCURVE",
"468 181 CURVE SMOOTH",
"588 745 LINE",
"507 745 LINE",
"388 189 LINE SMOOTH",
"369 100 OFFCURVE",
"312 58 OFFCURVE",
"238 58 CURVE SMOOTH",
"136 58 OFFCURVE",
"100 128 OFFCURVE",
"100 229 CURVE",
"22 215 LINE",
"17 73 OFFCURVE",
"97 -12 OFFCURVE",
"235 -12 CURVE SMOOTH"
);
}
);
width = 566;
},
{
anchors = (
{
name = bottom;
position = "{265, 3}";
},
{
name = top;
position = "{572, 685}";
}
);
background = {
anchors = (
{
name = bottom;
position = "{265, 3}";
},
{
name = top;
position = "{572, 685}";
}
);
paths = (
{
closed = 1;
nodes = (
"407 -12 OFFCURVE",
"516 75 OFFCURVE",
"546 215 CURVE SMOOTH",
"658 745 LINE",
"500 745 LINE",
"392 231 LINE SMOOTH",
"378 165 OFFCURVE",
"334 127 OFFCURVE",
"275 127 CURVE SMOOTH",
"199 127 OFFCURVE",
"154 175 OFFCURVE",
"153 259 CURVE",
"2 236 LINE",
"-1 81 OFFCURVE",
"107 -12 OFFCURVE",
"266 -12 CURVE SMOOTH"
);
}
);
};
layerId = "FF6420B2-C0A6-48EA-9EF6-B9F37DCCE47B";
paths = (
{
closed = 1;
nodes = (
"407 -12 OFFCURVE",
"516 75 OFFCURVE",
"546 215 CURVE SMOOTH",
"658 745 LINE",
"500 745 LINE",
"392 231 LINE SMOOTH",
"378 165 OFFCURVE",
"334 127 OFFCURVE",
"275 127 CURVE SMOOTH",
"199 127 OFFCURVE",
"154 175 OFFCURVE",
"153 259 CURVE",
"2 236 LINE",
"-1 81 OFFCURVE",
"107 -12 OFFCURVE",
"266 -12 CURVE SMOOTH"
);
}
);
width = 618;
}
);
leftKerningGroup = J.ss03;
rightKerningGroup = J;
rightMetricsKey = "=J";
},
{
glyphname = K;
lastChange = "2020-02-21 18:23:37 +0000";
layers = (
{
background = {
paths = (
{
closed = 1;
nodes = (
"160 0 LINE",
"160 264 LINE",
"288 406 LINE",
"537 0 LINE",
"631 0 LINE",
"342 467 LINE",
"591 745 LINE",
"495 745 LINE",
"136 347 LINE",
"160 338 LINE",
"160 745 LINE",
"80 745 LINE",
"80 0 LINE"
);
}
);
};
layerId = "30C2FD74-1A74-41AC-9C29-B288AE1DBDD7";
paths = (
{
closed = 1;
nodes = (
"160 0 LINE",
"160 264 LINE",
"288 406 LINE",
"537 0 LINE",
"631 0 LINE",
"342 467 LINE",
"591 745 LINE",
"495 745 LINE",
"136 347 LINE",
"160 338 LINE",
"160 745 LINE",
"80 745 LINE",
"80 0 LINE"
);
}
);
width = 651;
},
{
background = {
paths = (
{
closed = 1;
nodes = (
"215 0 LINE",
"215 244 LINE",
"302 349 LINE",
"497 0 LINE",
"671 0 LINE",
"402 470 LINE",
"631 745 LINE",
"453 745 LINE",
"172 409 LINE",
"215 394 LINE",
"215 745 LINE",
"60 745 LINE",
"60 0 LINE"
);
}
);
};
layerId = "9398AC28-6BE1-4A79-9C94-3CBC2F226CE7";
paths = (
{
closed = 1;
nodes = (
"215 0 LINE",
"215 244 LINE",
"302 349 LINE",
"497 0 LINE",
"671 0 LINE",
"402 470 LINE",
"631 745 LINE",
"453 745 LINE",
"172 409 LINE",
"215 394 LINE",
"215 745 LINE",
"60 745 LINE",
"60 0 LINE"
);
}
);
width = 671;
},
{
background = {
paths = (
{
closed = 1;
nodes = (
"104 0 LINE",
"160 254 LINE",
"328 406 LINE",
"491 0 LINE",
"575 0 LINE",
"385 467 LINE",
"693 745 LINE",
"591 745 LINE",
"148 347 LINE",
"176 338 LINE",
"262 745 LINE",
"182 745 LINE",
"24 0 LINE"
);
}
);
};
layerId = "0E6515C6-4BDD-456A-90F7-F5B263F1D284";
paths = (
{
closed = 1;
nodes = (
"104 0 LINE",
"160 254 LINE",
"328 406 LINE",
"491 0 LINE",
"575 0 LINE",
"385 467 LINE",
"693 745 LINE",
"591 745 LINE",
"148 347 LINE",
"176 338 LINE",
"262 745 LINE",
"182 745 LINE",
"24 0 LINE"
);
}
);
width = 651;
},
{
background = {
paths = (
{
closed = 1;
nodes = (
"157 0 LINE",
"209 244 LINE",
"328 349 LINE",
"449 0 LINE",
"613 0 LINE",
"444 470 LINE",
"731 745 LINE",
"533 745 LINE",
"181 409 LINE",
"240 394 LINE",
"315 745 LINE",
"160 745 LINE",
"2 0 LINE"
);
}
);
};
layerId = "FF6420B2-C0A6-48EA-9EF6-B9F37DCCE47B";
paths = (
{
closed = 1;
nodes = (
"157 0 LINE",
"209 244 LINE",
"328 349 LINE",
"449 0 LINE",
"613 0 LINE",
"444 470 LINE",
"731 745 LINE",
"533 745 LINE",
"181 409 LINE",
"240 394 LINE",
"315 745 LINE",
"160 745 LINE",
"2 0 LINE"
);
}
);
width = 671;
}
);
leftKerningGroup = I;
rightKerningGroup = K;
unicode = 004B;
},
{
color = 6;
glyphname = K.ss03;
lastChange = "2020-02-21 18:23:37 +0000";
layers = (
{
background = {
paths = (
{
closed = 1;
nodes = (
"674 -6 LINE",
"674 64 LINE",
"654 64 LINE SMOOTH",
"596 64 OFFCURVE",
"579 84 OFFCURVE",
"540 147 CURVE SMOOTH",
"342 467 LINE",
"591 745 LINE",
"495 745 LINE",
"136 347 LINE",
"160 338 LINE",
"160 745 LINE",
"80 745 LINE",
"80 0 LINE",
"160 0 LINE",
"160 264 LINE",
"287 406 LINE",
"447 145 LINE SMOOTH",
"517 30 OFFCURVE",
"555 -6 OFFCURVE",
"654 -6 CURVE SMOOTH"
);
}
);
};
layerId = "30C2FD74-1A74-41AC-9C29-B288AE1DBDD7";
paths = (
{
closed = 1;
nodes = (
"674 -6 LINE",
"674 64 LINE",
"654 64 LINE SMOOTH",
"596 64 OFFCURVE",
"579 84 OFFCURVE",
"540 147 CURVE SMOOTH",
"342 467 LINE",
"591 745 LINE",
"495 745 LINE",
"136 347 LINE",
"160 338 LINE",
"160 745 LINE",
"80 745 LINE",
"80 0 LINE",
"160 0 LINE",
"160 264 LINE",
"287 406 LINE",
"447 145 LINE SMOOTH",
"517 30 OFFCURVE",
"555 -6 OFFCURVE",
"654 -6 CURVE SMOOTH"
);
}
);
width = 694;
},
{
background = {
paths = (
{
closed = 1;
nodes = (
"708 -6 LINE",
"708 124 LINE",
"666 124 LINE SMOOTH",
"618 124 OFFCURVE",
"587 149 OFFCURVE",
"549 215 CURVE SMOOTH",
"403 470 LINE",
"631 745 LINE",
"453 745 LINE",
"172 409 LINE",
"215 394 LINE",
"215 745 LINE",
"60 745 LINE",
"60 0 LINE",
"215 0 LINE",
"215 244 LINE",
"302 349 LINE",
"409 160 LINE SMOOTH",
"483 29 OFFCURVE",
"535 -6 OFFCURVE",
"666 -6 CURVE SMOOTH"
);
}
);
};
layerId = "9398AC28-6BE1-4A79-9C94-3CBC2F226CE7";
paths = (
{
closed = 1;
nodes = (
"708 -6 LINE",
"708 124 LINE",
"666 124 LINE SMOOTH",
"618 124 OFFCURVE",
"587 149 OFFCURVE",
"549 215 CURVE SMOOTH",
"403 470 LINE",
"631 745 LINE",
"453 745 LINE",
"172 409 LINE",
"215 394 LINE",
"215 745 LINE",
"60 745 LINE",
"60 0 LINE",
"215 0 LINE",
"215 244 LINE",
"302 349 LINE",
"409 160 LINE SMOOTH",
"483 29 OFFCURVE",
"535 -6 OFFCURVE",
"666 -6 CURVE SMOOTH"
);
}
);
width = 708;
},
{
background = {
paths = (
{
closed = 1;
nodes = (
"617 -6 LINE",
"632 64 LINE",
"612 64 LINE SMOOTH",
"554 64 OFFCURVE",
"541 84 OFFCURVE",
"516 147 CURVE SMOOTH",
"386 467 LINE",
"694 745 LINE",
"588 745 LINE",
"147 347 LINE",
"177 339 LINE",
"263 745 LINE",
"183 745 LINE",
"24 0 LINE",
"104 0 LINE",
"161 254 LINE",
"328 406 LINE",
"432 145 LINE SMOOTH",
"478 30 OFFCURVE",
"498 -6 OFFCURVE",
"597 -6 CURVE SMOOTH"
);
}
);
};
layerId = "0E6515C6-4BDD-456A-90F7-F5B263F1D284";
paths = (
{
closed = 1;
nodes = (
"617 -6 LINE",
"632 64 LINE",
"612 64 LINE SMOOTH",
"554 64 OFFCURVE",
"541 84 OFFCURVE",
"516 147 CURVE SMOOTH",
"386 467 LINE",
"694 745 LINE",
"588 745 LINE",
"147 347 LINE",
"177 339 LINE",
"263 745 LINE",
"183 745 LINE",
"24 0 LINE",
"104 0 LINE",
"161 254 LINE",
"328 406 LINE",
"432 145 LINE SMOOTH",
"478 30 OFFCURVE",
"498 -6 OFFCURVE",
"597 -6 CURVE SMOOTH"
);
}
);
width = 694;
},
{
background = {
paths = (
{
closed = 1;
nodes = (
"649 -6 LINE",
"677 124 LINE",
"635 124 LINE SMOOTH",
"587 124 OFFCURVE",
"561 149 OFFCURVE",
"537 215 CURVE SMOOTH",
"445 470 LINE",
"732 745 LINE",
"534 745 LINE",
"181 409 LINE",
"241 394 LINE",
"316 745 LINE",
"161 745 LINE",
"2 0 LINE",
"157 0 LINE",
"209 244 LINE",
"329 349 LINE",
"395 160 LINE SMOOTH",
"431 56 OFFCURVE",
"476 -6 OFFCURVE",
"607 -6 CURVE SMOOTH"
);
}
);
};
layerId = "FF6420B2-C0A6-48EA-9EF6-B9F37DCCE47B";
paths = (
{
closed = 1;
nodes = (
"649 -6 LINE",
"677 124 LINE",
"635 124 LINE SMOOTH",
"587 124 OFFCURVE",
"561 149 OFFCURVE",
"537 215 CURVE SMOOTH",
"445 470 LINE",
"732 745 LINE",
"534 745 LINE",
"181 409 LINE",
"241 394 LINE",
"316 745 LINE",
"161 745 LINE",
"2 0 LINE",
"157 0 LINE",
"209 244 LINE",
"329 349 LINE",
"395 160 LINE SMOOTH",
"431 56 OFFCURVE",
"476 -6 OFFCURVE",
"607 -6 CURVE SMOOTH"
);
}
);
width = 709;
}
);
leftKerningGroup = I;
leftMetricsKey = "=K";
rightKerningGroup = K;
rightMetricsKey = "=K";
},
{
glyphname = L;
lastChange = "2020-02-21 18:23:37 +0000";
layers = (
{
anchors = (
{
name = bottom;
position = "{259, 0}";
},
{
name = center;
position = "{119, 373}";
},
{
name = top;
position = "{93, 710}";
}
);
background = {
anchors = (
{
name = bottom;
position = "{259, 0}";
},
{
name = center;
position = "{119, 373}";
},
{
name = top;
position = "{93, 710}";
}
);
paths = (
{
closed = 1;
nodes = (
"490 0 LINE",
"490 70 LINE",
"160 70 LINE",
"160 745 LINE",
"80 745 LINE",
"80 0 LINE"
);
}
);
};
layerId = "30C2FD74-1A74-41AC-9C29-B288AE1DBDD7";
paths = (
{
closed = 1;
nodes = (
"490 0 LINE",
"490 70 LINE",
"160 70 LINE",
"160 745 LINE",
"80 745 LINE",
"80 0 LINE"
);
}
);
width = 530;
},
{
anchors = (
{
name = bottom;
position = "{301, 0}";
},
{
name = center;
position = "{136, 355}";
},
{
name = top;
position = "{147, 710}";
}
);
background = {
anchors = (
{
name = bottom;
position = "{301, 0}";
},
{
name = center;
position = "{136, 355}";
},
{
name = top;
position = "{147, 710}";
}
);
paths = (
{
closed = 1;
nodes = (
"550 0 LINE",
"550 135 LINE",
"215 135 LINE",
"215 745 LINE",
"60 745 LINE",
"60 0 LINE"
);
}
);
};
layerId = "9398AC28-6BE1-4A79-9C94-3CBC2F226CE7";
paths = (
{
closed = 1;
nodes = (
"550 0 LINE",
"550 135 LINE",
"215 135 LINE",
"215 745 LINE",
"60 745 LINE",
"60 0 LINE"
);
}
);
width = 570;
},
{
anchors = (
{
name = bottom;
position = "{203, 0}";
},
{
name = center;
position = "{143, 373}";
},
{
name = top;
position = "{188, 710}";
}
);
background = {
anchors = (
{
name = bottom;
position = "{203, 0}";
},
{
name = center;
position = "{143, 373}";
},
{
name = top;
position = "{188, 710}";
}
);
paths = (
{
closed = 1;
nodes = (
"434 0 LINE",
"449 70 LINE",
"119 70 LINE",
"262 745 LINE",
"182 745 LINE",
"24 0 LINE"
);
}
);
};
layerId = "0E6515C6-4BDD-456A-90F7-F5B263F1D284";
paths = (
{
closed = 1;
nodes = (
"434 0 LINE",
"449 70 LINE",
"119 70 LINE",
"262 745 LINE",
"182 745 LINE",
"24 0 LINE"
);
}
);
width = 530;
},
{
anchors = (
{
name = bottom;
position = "{243, 0}";
},
{
name = center;
position = "{162, 355}";
},
{
name = top;
position = "{240, 710}";
}
);
background = {
anchors = (
{
name = bottom;
position = "{243, 0}";
},
{
name = center;
position = "{162, 355}";
},
{
name = top;
position = "{240, 710}";
}
);
paths = (
{
closed = 1;
nodes = (
"492 0 LINE",
"521 135 LINE",
"186 135 LINE",
"315 745 LINE",
"160 745 LINE",
"2 0 LINE"
);
}
);
};
layerId = "FF6420B2-C0A6-48EA-9EF6-B9F37DCCE47B";
paths = (
{
closed = 1;
nodes = (
"492 0 LINE",
"521 135 LINE",
"186 135 LINE",
"315 745 LINE",
"160 745 LINE",
"2 0 LINE"
);
}
);
width = 570;
}
);
leftKerningGroup = I;
rightKerningGroup = L;
unicode = 004C;
},
{
glyphname = Lslash;
lastChange = "2020-02-21 19:14:33 +0000";
layers = (
{
background = {
components = (
{
name = L;
},
{
name = slashshortcomb.case;
transform = "{1, 0, 0, 1, -85, 0}";
}
);
};
layerId = "30C2FD74-1A74-41AC-9C29-B288AE1DBDD7";
paths = (
{
closed = 1;
nodes = (
"490 0 LINE",
"490 70 LINE",
"160 70 LINE",
"160 349 LINE",
"303 388 LINE",
"303 458 LINE",
"160 419 LINE",
"160 745 LINE",
"80 745 LINE",
"80 397 LINE",
"-65 358 LINE",
"-65 288 LINE",
"80 327 LINE",
"80 0 LINE"
);
}
);
width = 530;
},
{
background = {
components = (
{
name = L;
},
{
name = slashshortcomb.case;
transform = "{1, 0, 0, 1, -84, 0}";
}
);
};
layerId = "0E6515C6-4BDD-456A-90F7-F5B263F1D284";
paths = (
{
closed = 1;
nodes = (
"434 0 LINE",
"449 70 LINE",
"119 70 LINE",
"178 349 LINE",
"330 388 LINE",
"345 458 LINE",
"193 419 LINE",
"262 745 LINE",
"182 745 LINE",
"108 397 LINE",
"-44 358 LINE",
"-59 288 LINE",
"93 327 LINE",
"24 0 LINE"
);
}
);
width = 530;
},
{
background = {
components = (
{
name = L;
},
{
name = slashshortcomb.case;
transform = "{1, 0, 0, 1, -84, 0}";
}
);
};
layerId = "9398AC28-6BE1-4A79-9C94-3CBC2F226CE7";
paths = (
{
closed = 1;
nodes = (
"550 0 LINE",
"550 135 LINE",
"215 135 LINE",
"215 310 LINE",
"336 340 LINE",
"336 470 LINE",
"215 440 LINE",
"215 745 LINE",
"60 745 LINE",
"60 401 LINE",
"-64 370 LINE",
"-64 240 LINE",
"60 271 LINE",
"60 0 LINE"
);
}
);
width = 570;
},
{
background = {
components = (
{
name = L;
},
{
name = slashshortcomb.case;
transform = "{1, 0, 0, 1, -76, 0}";
}
);
};
layerId = "FF6420B2-C0A6-48EA-9EF6-B9F37DCCE47B";
paths = (
{
closed = 1;
nodes = (
"492 0 LINE",
"521 135 LINE",
"186 135 LINE",
"222 308 LINE",
"359 340 LINE",
"386 470 LINE",
"250 438 LINE",
"315 745 LINE",
"160 745 LINE",
"87 399 LINE",
"-35 370 LINE",
"-62 240 LINE",
"59 269 LINE",
"2 0 LINE"
);
}
);
width = 570;
}
);
leftKerningGroup = I;
rightKerningGroup = L;
unicode = 0141;
},
{
glyphname = M;
lastChange = "2020-02-21 18:23:37 +0000";
layers = (
{
background = {
paths = (
{
closed = 1;
nodes = (
"391 339 LINE",
"429 339 LINE",
"150 745 LINE",
"80 745 LINE",
"80 0 LINE",
"160 0 LINE",
"160 637 LINE",
"135 627 LINE",
"408 230 LINE",
"412 230 LINE",
"686 627 LINE",
"660 637 LINE",
"660 0 LINE",
"740 0 LINE",
"740 745 LINE",
"670 745 LINE"
);
}
);
};
layerId = "30C2FD74-1A74-41AC-9C29-B288AE1DBDD7";
paths = (
{
closed = 1;
nodes = (
"391 339 LINE",
"429 339 LINE",
"150 745 LINE",
"80 745 LINE",
"80 0 LINE",
"160 0 LINE",
"160 637 LINE",
"135 627 LINE",
"408 230 LINE",
"412 230 LINE",
"686 627 LINE",
"660 637 LINE",
"660 0 LINE",
"740 0 LINE",
"740 745 LINE",
"670 745 LINE"
);
}
);
width = 820;
},
{
background = {
paths = (
{
closed = 1;
nodes = (
"407 375 LINE",
"491 375 LINE",
"210 745 LINE",
"60 745 LINE",
"60 0 LINE",
"215 0 LINE",
"215 574 LINE",
"163 560 LINE",
"440 190 LINE",
"460 190 LINE",
"747 560 LINE",
"685 574 LINE",
"685 0 LINE",
"840 0 LINE",
"840 745 LINE",
"690 745 LINE"
);
}
);
};
layerId = "9398AC28-6BE1-4A79-9C94-3CBC2F226CE7";
paths = (
{
closed = 1;
nodes = (
"407 375 LINE",
"491 375 LINE",
"210 745 LINE",
"60 745 LINE",
"60 0 LINE",
"215 0 LINE",
"215 574 LINE",
"163 560 LINE",
"440 190 LINE",
"460 190 LINE",
"747 560 LINE",
"685 574 LINE",
"685 0 LINE",
"840 0 LINE",
"840 745 LINE",
"690 745 LINE"
);
}
);
width = 900;
},
{
background = {
paths = (
{
closed = 1;
nodes = (
"397 339 LINE",
"445 339 LINE",
"252 745 LINE",
"182 745 LINE",
"24 0 LINE",
"104 0 LINE",
"239 637 LINE",
"212 627 LINE",
"401 230 LINE",
"405 230 LINE",
"763 617 LINE",
"739 637 LINE",
"604 0 LINE",
"684 0 LINE",
"842 745 LINE",
"772 745 LINE"
);
}
);
};
layerId = "0E6515C6-4BDD-456A-90F7-F5B263F1D284";
paths = (
{
closed = 1;
nodes = (
"397 339 LINE",
"445 339 LINE",
"252 745 LINE",
"182 745 LINE",
"24 0 LINE",
"104 0 LINE",
"239 637 LINE",
"212 627 LINE",
"401 230 LINE",
"405 230 LINE",
"763 617 LINE",
"739 637 LINE",
"604 0 LINE",
"684 0 LINE",
"842 745 LINE",
"772 745 LINE"
);
}
);
width = 820;
},
{
background = {
paths = (
{
closed = 1;
nodes = (
"419 375 LINE",
"513 375 LINE",
"310 745 LINE",
"160 745 LINE",
"2 0 LINE",
"157 0 LINE",
"279 574 LINE",
"224 560 LINE",
"422 190 LINE",
"442 190 LINE",
"808 560 LINE",
"749 574 LINE",
"627 0 LINE",
"782 0 LINE",
"940 745 LINE",
"780 745 LINE"
);
}
);
};
layerId = "FF6420B2-C0A6-48EA-9EF6-B9F37DCCE47B";
paths = (
{
closed = 1;
nodes = (
"419 375 LINE",
"513 375 LINE",
"310 745 LINE",
"160 745 LINE",
"2 0 LINE",
"157 0 LINE",
"279 574 LINE",
"224 560 LINE",
"422 190 LINE",
"442 190 LINE",
"808 560 LINE",
"749 574 LINE",
"627 0 LINE",
"782 0 LINE",
"940 745 LINE",
"780 745 LINE"
);
}
);
width = 900;
}
);
leftKerningGroup = I;
rightKerningGroup = I;
unicode = 004D;
},
{
glyphname = N;
lastChange = "2020-02-21 18:23:37 +0000";
layers = (
{
anchors = (
{
name = bottom;
position = "{360, 0}";
},
{
name = top;
position = "{360, 745}";
}
);
background = {
anchors = (
{
name = bottom;
position = "{360, 0}";
},
{
name = top;
position = "{360, 745}";
}
);
paths = (
{
closed = 1;
nodes = (
"560 118 LINE",
"584 118 LINE",
"150 745 LINE",
"80 745 LINE",
"80 0 LINE",
"160 0 LINE",
"160 631 LINE",
"136 631 LINE",
"570 0 LINE",
"640 0 LINE",
"640 745 LINE",
"560 745 LINE"
);
}
);
};
layerId = "30C2FD74-1A74-41AC-9C29-B288AE1DBDD7";
paths = (
{
closed = 1;
nodes = (
"560 118 LINE",
"584 118 LINE",
"150 745 LINE",
"80 745 LINE",
"80 0 LINE",
"160 0 LINE",
"160 631 LINE",
"136 631 LINE",
"570 0 LINE",
"640 0 LINE",
"640 745 LINE",
"560 745 LINE"
);
}
);
width = 720;
},
{
anchors = (
{
name = bottom;
position = "{365, 0}";
},
{
name = top;
position = "{365, 745}";
}
);
background = {
anchors = (
{
name = bottom;
position = "{365, 0}";
},
{
name = top;
position = "{365, 745}";
}
);
paths = (
{
closed = 1;
nodes = (
"515 203 LINE",
"574 218 LINE",
"179 745 LINE",
"60 745 LINE",
"60 0 LINE",
"215 0 LINE",
"215 546 LINE",
"156 531 LINE",
"550 0 LINE",
"670 0 LINE",
"670 745 LINE",
"515 745 LINE"
);
}
);
};
layerId = "9398AC28-6BE1-4A79-9C94-3CBC2F226CE7";
paths = (
{
closed = 1;
nodes = (
"515 203 LINE",
"574 218 LINE",
"179 745 LINE",
"60 745 LINE",
"60 0 LINE",
"215 0 LINE",
"215 546 LINE",
"156 531 LINE",
"550 0 LINE",
"670 0 LINE",
"670 745 LINE",
"515 745 LINE"
);
}
);
width = 730;
},
{
anchors = (
{
name = bottom;
position = "{304, 0}";
},
{
name = top;
position = "{462, 745}";
}
);
background = {
anchors = (
{
name = bottom;
position = "{304, 0}";
},
{
name = top;
position = "{462, 745}";
}
);
paths = (
{
closed = 1;
nodes = (
"529 118 LINE",
"553 98 LINE",
"252 745 LINE",
"182 745 LINE",
"24 0 LINE",
"104 0 LINE",
"238 631 LINE",
"214 651 LINE",
"514 0 LINE",
"584 0 LINE",
"742 745 LINE",
"662 745 LINE"
);
}
);
};
layerId = "0E6515C6-4BDD-456A-90F7-F5B263F1D284";
paths = (
{
closed = 1;
nodes = (
"529 118 LINE",
"553 98 LINE",
"252 745 LINE",
"182 745 LINE",
"24 0 LINE",
"104 0 LINE",
"238 631 LINE",
"214 651 LINE",
"514 0 LINE",
"584 0 LINE",
"742 745 LINE",
"662 745 LINE"
);
}
);
width = 720;
},
{
anchors = (
{
name = bottom;
position = "{307, 0}";
},
{
name = top;
position = "{465, 745}";
}
);
background = {
anchors = (
{
name = bottom;
position = "{307, 0}";
},
{
name = top;
position = "{465, 745}";
}
);
paths = (
{
closed = 1;
nodes = (
"500 203 LINE",
"562 198 LINE",
"279 745 LINE",
"160 745 LINE",
"2 0 LINE",
"157 0 LINE",
"273 546 LINE",
"211 551 LINE",
"492 0 LINE",
"612 0 LINE",
"770 745 LINE",
"615 745 LINE"
);
}
);
};
layerId = "FF6420B2-C0A6-48EA-9EF6-B9F37DCCE47B";
paths = (
{
closed = 1;
nodes = (
"500 203 LINE",
"562 198 LINE",
"279 745 LINE",
"160 745 LINE",
"2 0 LINE",
"157 0 LINE",
"273 546 LINE",
"211 551 LINE",
"492 0 LINE",
"612 0 LINE",
"770 745 LINE",
"615 745 LINE"
);
}
);
width = 730;
}
);
leftKerningGroup = I;
rightKerningGroup = I;
unicode = 004E;
},
{
glyphname = O;
lastChange = "2020-02-21 18:23:37 +0000";
layers = (
{
anchors = (
{
name = bottom;
position = "{428, 0}";
},
{
name = center;
position = "{428, 373}";
},
{
name = top;
position = "{428, 745}";
}
);
background = {
anchors = (
{
name = bottom;
position = "{428, 0}";
},
{
name = center;
position = "{428, 373}";
},
{
name = top;
position = "{428, 745}";
}
);
paths = (
{
closed = 1;
nodes = (
"635 -12 OFFCURVE",
"801 149 OFFCURVE",
"801 373 CURVE SMOOTH",
"801 596 OFFCURVE",
"635 757 OFFCURVE",
"428 757 CURVE SMOOTH",
"221 757 OFFCURVE",
"55 597 OFFCURVE",
"55 373 CURVE SMOOTH",
"55 148 OFFCURVE",
"221 -12 OFFCURVE",
"428 -12 CURVE SMOOTH"
);
},
{
closed = 1;
nodes = (
"256 63 OFFCURVE",
"135 202 OFFCURVE",
"135 373 CURVE SMOOTH",
"135 542 OFFCURVE",
"255 682 OFFCURVE",
"428 682 CURVE SMOOTH",
"601 682 OFFCURVE",
"721 542 OFFCURVE",
"721 373 CURVE SMOOTH",
"721 202 OFFCURVE",
"600 63 OFFCURVE",
"428 63 CURVE SMOOTH"
);
}
);
};
layerId = "30C2FD74-1A74-41AC-9C29-B288AE1DBDD7";
paths = (
{
closed = 1;
nodes = (
"635 -12 OFFCURVE",
"801 149 OFFCURVE",
"801 373 CURVE SMOOTH",
"801 596 OFFCURVE",
"635 757 OFFCURVE",
"428 757 CURVE SMOOTH",
"221 757 OFFCURVE",
"55 597 OFFCURVE",
"55 373 CURVE SMOOTH",
"55 148 OFFCURVE",
"221 -12 OFFCURVE",
"428 -12 CURVE SMOOTH"
);
},
{
closed = 1;
nodes = (
"256 63 OFFCURVE",
"135 202 OFFCURVE",
"135 373 CURVE SMOOTH",
"135 542 OFFCURVE",
"255 682 OFFCURVE",
"428 682 CURVE SMOOTH",
"601 682 OFFCURVE",
"721 542 OFFCURVE",
"721 373 CURVE SMOOTH",
"721 202 OFFCURVE",
"600 63 OFFCURVE",
"428 63 CURVE SMOOTH"
);
}
);
width = 856;
},
{
anchors = (
{
name = bottom;
position = "{430, 0}";
},
{
name = center;
position = "{430, 373}";
},
{
name = top;
position = "{430, 745}";
}
);
background = {
anchors = (
{
name = bottom;
position = "{430, 0}";
},
{
name = center;
position = "{430, 373}";
},
{
name = top;
position = "{430, 745}";
}
);
paths = (
{
closed = 1;
nodes = (
"655 -12 OFFCURVE",
"825 154 OFFCURVE",
"825 373 CURVE SMOOTH",
"825 592 OFFCURVE",
"656 757 OFFCURVE",
"430 757 CURVE SMOOTH",
"204 757 OFFCURVE",
"35 592 OFFCURVE",
"35 373 CURVE SMOOTH",
"35 154 OFFCURVE",
"205 -12 OFFCURVE",
"430 -12 CURVE SMOOTH"
);
},
{
closed = 1;
nodes = (
"294 128 OFFCURVE",
"190 229 OFFCURVE",
"190 373 CURVE SMOOTH",
"190 517 OFFCURVE",
"294 617 OFFCURVE",
"430 617 CURVE SMOOTH",
"566 617 OFFCURVE",
"670 517 OFFCURVE",
"670 373 CURVE SMOOTH",
"670 229 OFFCURVE",
"566 128 OFFCURVE",
"430 128 CURVE SMOOTH"
);
}
);
};
layerId = "9398AC28-6BE1-4A79-9C94-3CBC2F226CE7";
paths = (
{
closed = 1;
nodes = (
"655 -12 OFFCURVE",
"825 154 OFFCURVE",
"825 373 CURVE SMOOTH",
"825 592 OFFCURVE",
"656 757 OFFCURVE",
"430 757 CURVE SMOOTH",
"204 757 OFFCURVE",
"35 592 OFFCURVE",
"35 373 CURVE SMOOTH",
"35 154 OFFCURVE",
"205 -12 OFFCURVE",
"430 -12 CURVE SMOOTH"
);
},
{
closed = 1;
nodes = (
"294 128 OFFCURVE",
"190 229 OFFCURVE",
"190 373 CURVE SMOOTH",
"190 517 OFFCURVE",
"294 617 OFFCURVE",
"430 617 CURVE SMOOTH",
"566 617 OFFCURVE",
"670 517 OFFCURVE",
"670 373 CURVE SMOOTH",
"670 229 OFFCURVE",
"566 128 OFFCURVE",
"430 128 CURVE SMOOTH"
);
}
);
width = 860;
},
{
anchors = (
{
name = bottom;
position = "{376, 0}";
},
{
name = center;
position = "{455, 373}";
},
{
name = top;
position = "{534, 745}";
}
);
background = {
anchors = (
{
name = bottom;
position = "{376, 0}";
},
{
name = center;
position = "{455, 373}";
},
{
name = top;
position = "{534, 745}";
}
);
paths = (
{
closed = 1;
nodes = (
"643 -12 OFFCURVE",
"830 182 OFFCURVE",
"830 419 CURVE SMOOTH",
"830 618 OFFCURVE",
"687 757 OFFCURVE",
"495 757 CURVE SMOOTH",
"266 757 OFFCURVE",
"79 564 OFFCURVE",
"79 327 CURVE SMOOTH",
"79 126 OFFCURVE",
"222 -12 OFFCURVE",
"414 -12 CURVE SMOOTH"
);
},
{
closed = 1;
nodes = (
"263 63 OFFCURVE",
"159 182 OFFCURVE",
"159 336 CURVE SMOOTH",
"159 526 OFFCURVE",
"307 682 OFFCURVE",
"487 682 CURVE SMOOTH",
"647 682 OFFCURVE",
"749 562 OFFCURVE",
"749 410 CURVE SMOOTH",
"749 220 OFFCURVE",
"602 63 OFFCURVE",
"422 63 CURVE SMOOTH"
);
}
);
};
layerId = "0E6515C6-4BDD-456A-90F7-F5B263F1D284";
paths = (
{
closed = 1;
nodes = (
"643 -12 OFFCURVE",
"830 182 OFFCURVE",
"830 419 CURVE SMOOTH",
"830 618 OFFCURVE",
"687 757 OFFCURVE",
"495 757 CURVE SMOOTH",
"266 757 OFFCURVE",
"79 564 OFFCURVE",
"79 327 CURVE SMOOTH",
"79 126 OFFCURVE",
"222 -12 OFFCURVE",
"414 -12 CURVE SMOOTH"
);
},
{
closed = 1;
nodes = (
"263 63 OFFCURVE",
"159 182 OFFCURVE",
"159 336 CURVE SMOOTH",
"159 526 OFFCURVE",
"307 682 OFFCURVE",
"487 682 CURVE SMOOTH",
"647 682 OFFCURVE",
"749 562 OFFCURVE",
"749 410 CURVE SMOOTH",
"749 220 OFFCURVE",
"602 63 OFFCURVE",
"422 63 CURVE SMOOTH"
);
}
);
width = 862;
},
{
anchors = (
{
name = bottom;
position = "{375.822, 0}";
},
{
name = center;
position = "{455.106, 373}";
},
{
name = top;
position = "{534.177, 745}";
}
);
background = {
anchors = (
{
name = bottom;
position = "{375.822, 0}";
},
{
name = center;
position = "{455.106, 373}";
},
{
name = top;
position = "{534.177, 745}";
}
);
paths = (
{
closed = 1;
nodes = (
"655 -12 OFFCURVE",
"852 180 OFFCURVE",
"852 416 CURVE SMOOTH",
"852 613 OFFCURVE",
"705 757 OFFCURVE",
"495 757 CURVE SMOOTH",
"252 757 OFFCURVE",
"57 566 OFFCURVE",
"57 330 CURVE SMOOTH",
"57 133 OFFCURVE",
"204 -12 OFFCURVE",
"414 -12 CURVE SMOOTH"
);
},
{
closed = 1;
nodes = (
"303 128 OFFCURVE",
"213 215 OFFCURVE",
"213 343 CURVE SMOOTH",
"213 496 OFFCURVE",
"330 617 OFFCURVE",
"480 617 CURVE SMOOTH",
"605 617 OFFCURVE",
"696 531 OFFCURVE",
"696 403 CURVE SMOOTH",
"696 250 OFFCURVE",
"578 128 OFFCURVE",
"429 128 CURVE SMOOTH"
);
}
);
};
layerId = "FF6420B2-C0A6-48EA-9EF6-B9F37DCCE47B";
paths = (
{
closed = 1;
nodes = (
"655 -12 OFFCURVE",
"852 180 OFFCURVE",
"852 416 CURVE SMOOTH",
"852 613 OFFCURVE",
"705 757 OFFCURVE",
"495 757 CURVE SMOOTH",
"252 757 OFFCURVE",
"57 566 OFFCURVE",
"57 330 CURVE SMOOTH",
"57 133 OFFCURVE",
"204 -12 OFFCURVE",
"414 -12 CURVE SMOOTH"
);
},
{
closed = 1;
nodes = (
"303 128 OFFCURVE",
"213 215 OFFCURVE",
"213 343 CURVE SMOOTH",
"213 496 OFFCURVE",
"330 617 OFFCURVE",
"480 617 CURVE SMOOTH",
"605 617 OFFCURVE",
"696 531 OFFCURVE",
"696 403 CURVE SMOOTH",
"696 250 OFFCURVE",
"578 128 OFFCURVE",
"429 128 CURVE SMOOTH"
);
}
);
width = 866;
}
);
leftKerningGroup = O;
rightKerningGroup = O;
unicode = 004F;
},
{
glyphname = OE;
lastChange = "2020-02-21 18:23:37 +0000";
layers = (
{
background = {
paths = (
{
closed = 1;
nodes = (
"558 -12 OFFCURVE",
"673 52 OFFCURVE",
"740 156 CURVE",
"726 172 LINE",
"726 0 LINE",
"1206 0 LINE",
"1206 70 LINE",
"806 70 LINE",
"806 338 LINE",
"1186 338 LINE",
"1186 408 LINE",
"806 408 LINE",
"806 675 LINE",
"1206 675 LINE",
"1206 745 LINE",
"726 745 LINE",
"726 573 LINE",
"740 589 LINE",
"673 693 OFFCURVE",
"558 757 OFFCURVE",
"428 757 CURVE SMOOTH",
"221 757 OFFCURVE",
"55 597 OFFCURVE",
"55 373 CURVE SMOOTH",
"55 148 OFFCURVE",
"221 -12 OFFCURVE",
"428 -12 CURVE SMOOTH"
);
},
{
closed = 1;
nodes = (
"256 63 OFFCURVE",
"135 202 OFFCURVE",
"135 373 CURVE SMOOTH",
"135 542 OFFCURVE",
"255 682 OFFCURVE",
"428 682 CURVE SMOOTH",
"601 682 OFFCURVE",
"721 542 OFFCURVE",
"721 373 CURVE SMOOTH",
"721 202 OFFCURVE",
"600 63 OFFCURVE",
"428 63 CURVE SMOOTH"
);
}
);
};
layerId = "30C2FD74-1A74-41AC-9C29-B288AE1DBDD7";
paths = (
{
closed = 1;
nodes = (
"558 -12 OFFCURVE",
"673 52 OFFCURVE",
"740 156 CURVE",
"726 172 LINE",
"726 0 LINE",
"1206 0 LINE",
"1206 70 LINE",
"806 70 LINE",
"806 338 LINE",
"1186 338 LINE",
"1186 408 LINE",
"806 408 LINE",
"806 675 LINE",
"1206 675 LINE",
"1206 745 LINE",
"726 745 LINE",
"726 573 LINE",
"740 589 LINE",
"673 693 OFFCURVE",
"558 757 OFFCURVE",
"428 757 CURVE SMOOTH",
"221 757 OFFCURVE",
"55 597 OFFCURVE",
"55 373 CURVE SMOOTH",
"55 148 OFFCURVE",
"221 -12 OFFCURVE",
"428 -12 CURVE SMOOTH"
);
},
{
closed = 1;
nodes = (
"256 63 OFFCURVE",
"135 202 OFFCURVE",
"135 373 CURVE SMOOTH",
"135 542 OFFCURVE",
"255 682 OFFCURVE",
"428 682 CURVE SMOOTH",
"601 682 OFFCURVE",
"721 542 OFFCURVE",
"721 373 CURVE SMOOTH",
"721 202 OFFCURVE",
"600 63 OFFCURVE",
"428 63 CURVE SMOOTH"
);
}
);
width = 1266;
},
{
background = {
paths = (
{
closed = 1;
nodes = (
"532 -12 OFFCURVE",
"639 40 OFFCURVE",
"714 122 CURVE",
"705 140 LINE",
"676 0 LINE",
"1156 0 LINE",
"1171 70 LINE",
"771 70 LINE",
"828 338 LINE",
"1208 338 LINE",
"1223 408 LINE",
"843 408 LINE",
"899 675 LINE",
"1299 675 LINE",
"1314 745 LINE",
"834 745 LINE",
"789 538 LINE",
"806 551 LINE",
"759 677 OFFCURVE",
"641 757 OFFCURVE",
"495 757 CURVE SMOOTH",
"266 757 OFFCURVE",
"79 564 OFFCURVE",
"79 327 CURVE SMOOTH",
"79 126 OFFCURVE",
"222 -12 OFFCURVE",
"414 -12 CURVE SMOOTH"
);
},
{
closed = 1;
nodes = (
"263 63 OFFCURVE",
"159 182 OFFCURVE",
"159 336 CURVE SMOOTH",
"159 526 OFFCURVE",
"307 682 OFFCURVE",
"487 682 CURVE SMOOTH",
"647 682 OFFCURVE",
"749 562 OFFCURVE",
"749 410 CURVE SMOOTH",
"749 220 OFFCURVE",
"602 63 OFFCURVE",
"422 63 CURVE SMOOTH"
);
}
);
};
layerId = "0E6515C6-4BDD-456A-90F7-F5B263F1D284";
paths = (
{
closed = 1;
nodes = (
"532 -12 OFFCURVE",
"639 40 OFFCURVE",
"714 122 CURVE",
"705 140 LINE",
"676 0 LINE",
"1156 0 LINE",
"1171 70 LINE",
"771 70 LINE",
"828 338 LINE",
"1208 338 LINE",
"1223 408 LINE",
"843 408 LINE",
"899 675 LINE",
"1299 675 LINE",
"1314 745 LINE",
"834 745 LINE",
"789 538 LINE",
"806 551 LINE",
"759 677 OFFCURVE",
"641 757 OFFCURVE",
"495 757 CURVE SMOOTH",
"266 757 OFFCURVE",
"79 564 OFFCURVE",
"79 327 CURVE SMOOTH",
"79 126 OFFCURVE",
"222 -12 OFFCURVE",
"414 -12 CURVE SMOOTH"
);
},
{
closed = 1;
nodes = (
"263 63 OFFCURVE",
"159 182 OFFCURVE",
"159 336 CURVE SMOOTH",
"159 526 OFFCURVE",
"307 682 OFFCURVE",
"487 682 CURVE SMOOTH",
"647 682 OFFCURVE",
"749 562 OFFCURVE",
"749 410 CURVE SMOOTH",
"749 220 OFFCURVE",
"602 63 OFFCURVE",
"422 63 CURVE SMOOTH"
);
}
);
width = 1272;
},
{
background = {
paths = (
{
closed = 1;
nodes = (
"547 -12 OFFCURVE",
"650 34 OFFCURVE",
"721 108 CURVE",
"690 146 LINE",
"690 0 LINE",
"1190 0 LINE",
"1191 135 LINE",
"845 135 LINE",
"845 306 LINE",
"1171 306 LINE",
"1171 441 LINE",
"845 441 LINE",
"845 610 LINE",
"1191 610 LINE",
"1191 745 LINE",
"690 745 LINE",
"690 600 LINE",
"721 638 LINE",
"651 713 OFFCURVE",
"548 757 OFFCURVE",
"430 757 CURVE SMOOTH",
"204 757 OFFCURVE",
"35 592 OFFCURVE",
"35 373 CURVE SMOOTH",
"35 154 OFFCURVE",
"205 -12 OFFCURVE",
"430 -12 CURVE SMOOTH"
);
},
{
closed = 1;
nodes = (
"294 128 OFFCURVE",
"190 229 OFFCURVE",
"190 373 CURVE SMOOTH",
"190 517 OFFCURVE",
"294 617 OFFCURVE",
"430 617 CURVE SMOOTH",
"566 617 OFFCURVE",
"670 517 OFFCURVE",
"670 373 CURVE SMOOTH",
"670 229 OFFCURVE",
"566 128 OFFCURVE",
"430 128 CURVE SMOOTH"
);
}
);
};
layerId = "9398AC28-6BE1-4A79-9C94-3CBC2F226CE7";
paths = (
{
closed = 1;
nodes = (
"547 -12 OFFCURVE",
"650 34 OFFCURVE",
"721 108 CURVE",
"690 146 LINE",
"690 0 LINE",
"1190 0 LINE",
"1191 135 LINE",
"845 135 LINE",
"845 306 LINE",
"1171 306 LINE",
"1171 441 LINE",
"845 441 LINE",
"845 610 LINE",
"1191 610 LINE",
"1191 745 LINE",
"690 745 LINE",
"690 600 LINE",
"721 638 LINE",
"651 713 OFFCURVE",
"548 757 OFFCURVE",
"430 757 CURVE SMOOTH",
"204 757 OFFCURVE",
"35 592 OFFCURVE",
"35 373 CURVE SMOOTH",
"35 154 OFFCURVE",
"205 -12 OFFCURVE",
"430 -12 CURVE SMOOTH"
);
},
{
closed = 1;
nodes = (
"294 128 OFFCURVE",
"190 229 OFFCURVE",
"190 373 CURVE SMOOTH",
"190 517 OFFCURVE",
"294 617 OFFCURVE",
"430 617 CURVE SMOOTH",
"566 617 OFFCURVE",
"670 517 OFFCURVE",
"670 373 CURVE SMOOTH",
"670 229 OFFCURVE",
"566 128 OFFCURVE",
"430 128 CURVE SMOOTH"
);
}
);
width = 1231;
},
{
background = {
paths = (
{
closed = 1;
nodes = (
"517 -12 OFFCURVE",
"611 23 OFFCURVE",
"686 81 CURVE",
"664 122 LINE",
"638 0 LINE",
"1138 0 LINE",
"1168 135 LINE",
"822 135 LINE",
"858 306 LINE",
"1184 306 LINE",
"1213 441 LINE",
"887 441 LINE",
"922 610 LINE",
"1268 610 LINE",
"1297 745 LINE",
"796 745 LINE",
"759 572 LINE",
"798 604 LINE",
"738 698 OFFCURVE",
"629 757 OFFCURVE",
"495 757 CURVE SMOOTH",
"252 757 OFFCURVE",
"57 566 OFFCURVE",
"57 330 CURVE SMOOTH",
"57 133 OFFCURVE",
"204 -12 OFFCURVE",
"414 -12 CURVE SMOOTH"
);
},
{
closed = 1;
nodes = (
"303 128 OFFCURVE",
"213 215 OFFCURVE",
"213 343 CURVE SMOOTH",
"213 496 OFFCURVE",
"330 617 OFFCURVE",
"480 617 CURVE SMOOTH",
"605 617 OFFCURVE",
"696 531 OFFCURVE",
"696 403 CURVE SMOOTH",
"696 250 OFFCURVE",
"578 128 OFFCURVE",
"429 128 CURVE SMOOTH"
);
}
);
};
layerId = "FF6420B2-C0A6-48EA-9EF6-B9F37DCCE47B";
paths = (
{
closed = 1;
nodes = (
"517 -12 OFFCURVE",
"611 23 OFFCURVE",
"686 81 CURVE",
"664 122 LINE",
"638 0 LINE",
"1138 0 LINE",
"1168 135 LINE",
"822 135 LINE",
"858 306 LINE",
"1184 306 LINE",
"1213 441 LINE",
"887 441 LINE",
"922 610 LINE",
"1268 610 LINE",
"1297 745 LINE",
"796 745 LINE",
"759 572 LINE",
"798 604 LINE",
"738 698 OFFCURVE",
"629 757 OFFCURVE",
"495 757 CURVE SMOOTH",
"252 757 OFFCURVE",
"57 566 OFFCURVE",
"57 330 CURVE SMOOTH",
"57 133 OFFCURVE",
"204 -12 OFFCURVE",
"414 -12 CURVE SMOOTH"
);
},
{
closed = 1;
nodes = (
"303 128 OFFCURVE",
"213 215 OFFCURVE",
"213 343 CURVE SMOOTH",
"213 496 OFFCURVE",
"330 617 OFFCURVE",
"480 617 CURVE SMOOTH",
"605 617 OFFCURVE",
"696 531 OFFCURVE",
"696 403 CURVE SMOOTH",
"696 250 OFFCURVE",
"578 128 OFFCURVE",
"429 128 CURVE SMOOTH"
);
}
);
width = 1237;
}
);
leftKerningGroup = O;
leftMetricsKey = "=O";
rightKerningGroup = E;
rightMetricsKey = "=E";
unicode = 0152;
},
{
glyphname = P;
lastChange = "2020-02-21 18:23:37 +0000";
layers = (
{
background = {
paths = (
{
closed = 1;
nodes = (
"160 0 LINE",
"160 290 LINE",
"336 290 LINE SMOOTH",
"489 290 OFFCURVE",
"590 381 OFFCURVE",
"590 517 CURVE SMOOTH",
"590 653 OFFCURVE",
"488 745 OFFCURVE",
"336 745 CURVE SMOOTH",
"80 745 LINE",
"80 0 LINE"
);
},
{
closed = 1;
nodes = (
"160 675 LINE",
"336 675 LINE SMOOTH",
"438 675 OFFCURVE",
"506 612 OFFCURVE",
"506 518 CURVE SMOOTH",
"506 423 OFFCURVE",
"438 360 OFFCURVE",
"336 360 CURVE SMOOTH",
"160 360 LINE"
);
}
);
};
layerId = "30C2FD74-1A74-41AC-9C29-B288AE1DBDD7";
paths = (
{
closed = 1;
nodes = (
"160 0 LINE",
"160 290 LINE",
"336 290 LINE SMOOTH",
"489 290 OFFCURVE",
"590 381 OFFCURVE",
"590 517 CURVE SMOOTH",
"590 653 OFFCURVE",
"488 745 OFFCURVE",
"336 745 CURVE SMOOTH",
"80 745 LINE",
"80 0 LINE"
);
},
{
closed = 1;
nodes = (
"160 675 LINE",
"336 675 LINE SMOOTH",
"438 675 OFFCURVE",
"506 612 OFFCURVE",
"506 518 CURVE SMOOTH",
"506 423 OFFCURVE",
"438 360 OFFCURVE",
"336 360 CURVE SMOOTH",
"160 360 LINE"
);
}
);
width = 635;
},
{
background = {
paths = (
{
closed = 1;
nodes = (
"215 0 LINE",
"215 270 LINE",
"366 270 LINE SMOOTH",
"518 270 OFFCURVE",
"630 354 OFFCURVE",
"630 507 CURVE SMOOTH",
"630 663 OFFCURVE",
"520 745 OFFCURVE",
"366 745 CURVE SMOOTH",
"60 745 LINE",
"60 0 LINE"
);
},
{
closed = 1;
nodes = (
"215 610 LINE",
"367 610 LINE SMOOTH",
"432 610 OFFCURVE",
"475 569 OFFCURVE",
"475 507 CURVE SMOOTH",
"475 446 OFFCURVE",
"432 405 OFFCURVE",
"367 405 CURVE SMOOTH",
"215 405 LINE"
);
}
);
};
layerId = "9398AC28-6BE1-4A79-9C94-3CBC2F226CE7";
paths = (
{
closed = 1;
nodes = (
"215 0 LINE",
"215 270 LINE",
"366 270 LINE SMOOTH",
"518 270 OFFCURVE",
"630 354 OFFCURVE",
"630 507 CURVE SMOOTH",
"630 663 OFFCURVE",
"520 745 OFFCURVE",
"366 745 CURVE SMOOTH",
"60 745 LINE",
"60 0 LINE"
);
},
{
closed = 1;
nodes = (
"215 610 LINE",
"367 610 LINE SMOOTH",
"432 610 OFFCURVE",
"475 569 OFFCURVE",
"475 507 CURVE SMOOTH",
"475 446 OFFCURVE",
"432 405 OFFCURVE",
"367 405 CURVE SMOOTH",
"215 405 LINE"
);
}
);
width = 655;
},
{
background = {
paths = (
{
closed = 1;
nodes = (
"104 0 LINE",
"165 290 LINE",
"347 290 LINE SMOOTH",
"512 290 OFFCURVE",
"650 393 OFFCURVE",
"650 552 CURVE SMOOTH",
"650 661 OFFCURVE",
"571 745 OFFCURVE",
"442 745 CURVE SMOOTH",
"182 745 LINE",
"24 0 LINE"
);
},
{
closed = 1;
nodes = (
"247 675 LINE",
"427 675 LINE SMOOTH",
"512 675 OFFCURVE",
"565 621 OFFCURVE",
"565 547 CURVE SMOOTH",
"565 438 OFFCURVE",
"478 360 OFFCURVE",
"361 360 CURVE SMOOTH",
"180 360 LINE"
);
}
);
};
layerId = "0E6515C6-4BDD-456A-90F7-F5B263F1D284";
paths = (
{
closed = 1;
nodes = (
"104 0 LINE",
"165 290 LINE",
"347 290 LINE SMOOTH",
"512 290 OFFCURVE",
"650 393 OFFCURVE",
"650 552 CURVE SMOOTH",
"650 661 OFFCURVE",
"571 745 OFFCURVE",
"442 745 CURVE SMOOTH",
"182 745 LINE",
"24 0 LINE"
);
},
{
closed = 1;
nodes = (
"247 675 LINE",
"427 675 LINE SMOOTH",
"512 675 OFFCURVE",
"565 621 OFFCURVE",
"565 547 CURVE SMOOTH",
"565 438 OFFCURVE",
"478 360 OFFCURVE",
"361 360 CURVE SMOOTH",
"180 360 LINE"
);
}
);
width = 639;
},
{
background = {
paths = (
{
closed = 1;
nodes = (
"159 0 LINE",
"215 270 LINE",
"371 270 LINE SMOOTH",
"555 270 OFFCURVE",
"686 373 OFFCURVE",
"686 549 CURVE SMOOTH",
"686 670 OFFCURVE",
"591 745 OFFCURVE",
"470 745 CURVE SMOOTH",
"160 745 LINE",
"4 0 LINE"
);
},
{
closed = 1;
nodes = (
"287 610 LINE",
"443 610 LINE SMOOTH",
"497 610 OFFCURVE",
"530 578 OFFCURVE",
"530 531 CURVE SMOOTH",
"530 456 OFFCURVE",
"472 405 OFFCURVE",
"400 405 CURVE SMOOTH",
"244 405 LINE"
);
}
);
};
layerId = "FF6420B2-C0A6-48EA-9EF6-B9F37DCCE47B";
paths = (
{
closed = 1;
nodes = (
"159 0 LINE",
"215 270 LINE",
"371 270 LINE SMOOTH",
"555 270 OFFCURVE",
"686 373 OFFCURVE",
"686 549 CURVE SMOOTH",
"686 670 OFFCURVE",
"591 745 OFFCURVE",
"470 745 CURVE SMOOTH",
"160 745 LINE",
"4 0 LINE"
);
},
{
closed = 1;
nodes = (
"287 610 LINE",
"443 610 LINE SMOOTH",
"497 610 OFFCURVE",
"530 578 OFFCURVE",
"530 531 CURVE SMOOTH",
"530 456 OFFCURVE",
"472 405 OFFCURVE",
"400 405 CURVE SMOOTH",
"244 405 LINE"
);
}
);
width = 660;
}
);
leftKerningGroup = I;
rightKerningGroup = P;
unicode = 0050;
},
{
glyphname = Thorn;
lastChange = "2020-02-21 18:23:37 +0000";
layers = (
{
background = {
paths = (
{
closed = 1;
nodes = (
"160 0 LINE",
"160 146 LINE",
"336 146 LINE SMOOTH",
"489 146 OFFCURVE",
"590 237 OFFCURVE",
"590 373 CURVE SMOOTH",
"590 509 OFFCURVE",
"488 601 OFFCURVE",
"336 601 CURVE SMOOTH",
"160 601 LINE",
"160 745 LINE",
"80 745 LINE",
"80 0 LINE"
);
},
{
closed = 1;
nodes = (
"160 531 LINE",
"336 531 LINE SMOOTH",
"438 531 OFFCURVE",
"506 468 OFFCURVE",
"506 374 CURVE SMOOTH",
"506 279 OFFCURVE",
"438 216 OFFCURVE",
"336 216 CURVE SMOOTH",
"160 216 LINE"
);
}
);
};
layerId = "30C2FD74-1A74-41AC-9C29-B288AE1DBDD7";
paths = (
{
closed = 1;
nodes = (
"160 0 LINE",
"160 146 LINE",
"336 146 LINE SMOOTH",
"489 146 OFFCURVE",
"590 237 OFFCURVE",
"590 373 CURVE SMOOTH",
"590 509 OFFCURVE",
"488 601 OFFCURVE",
"336 601 CURVE SMOOTH",
"160 601 LINE",
"160 745 LINE",
"80 745 LINE",
"80 0 LINE"
);
},
{
closed = 1;
nodes = (
"160 531 LINE",
"336 531 LINE SMOOTH",
"438 531 OFFCURVE",
"506 468 OFFCURVE",
"506 374 CURVE SMOOTH",
"506 279 OFFCURVE",
"438 216 OFFCURVE",
"336 216 CURVE SMOOTH",
"160 216 LINE"
);
}
);
width = 635;
},
{
background = {
paths = (
{
closed = 1;
nodes = (
"104 0 LINE",
"135 147 LINE",
"317 147 LINE SMOOTH",
"482 147 OFFCURVE",
"620 250 OFFCURVE",
"620 409 CURVE SMOOTH",
"620 518 OFFCURVE",
"541 602 OFFCURVE",
"412 602 CURVE SMOOTH",
"232 602 LINE",
"262 745 LINE",
"182 745 LINE",
"24 0 LINE"
);
},
{
closed = 1;
nodes = (
"217 532 LINE",
"397 532 LINE SMOOTH",
"482 532 OFFCURVE",
"535 478 OFFCURVE",
"535 404 CURVE SMOOTH",
"535 295 OFFCURVE",
"448 217 OFFCURVE",
"331 217 CURVE SMOOTH",
"150 217 LINE"
);
}
);
};
layerId = "0E6515C6-4BDD-456A-90F7-F5B263F1D284";
paths = (
{
closed = 1;
nodes = (
"104 0 LINE",
"135 147 LINE",
"317 147 LINE SMOOTH",
"482 147 OFFCURVE",
"620 250 OFFCURVE",
"620 409 CURVE SMOOTH",
"620 518 OFFCURVE",
"541 602 OFFCURVE",
"412 602 CURVE SMOOTH",
"232 602 LINE",
"262 745 LINE",
"182 745 LINE",
"24 0 LINE"
);
},
{
closed = 1;
nodes = (
"217 532 LINE",
"397 532 LINE SMOOTH",
"482 532 OFFCURVE",
"535 478 OFFCURVE",
"535 404 CURVE SMOOTH",
"535 295 OFFCURVE",
"448 217 OFFCURVE",
"331 217 CURVE SMOOTH",
"150 217 LINE"
);
}
);
width = 640;
},
{
background = {
paths = (
{
closed = 1;
nodes = (
"215 0 LINE",
"215 140 LINE",
"366 140 LINE SMOOTH",
"518 140 OFFCURVE",
"630 224 OFFCURVE",
"630 377 CURVE SMOOTH",
"630 533 OFFCURVE",
"520 615 OFFCURVE",
"366 615 CURVE SMOOTH",
"215 615 LINE",
"215 745 LINE",
"60 745 LINE",
"60 0 LINE"
);
},
{
closed = 1;
nodes = (
"215 480 LINE",
"367 480 LINE SMOOTH",
"432 480 OFFCURVE",
"475 439 OFFCURVE",
"475 377 CURVE SMOOTH",
"475 316 OFFCURVE",
"432 275 OFFCURVE",
"367 275 CURVE SMOOTH",
"215 275 LINE"
);
}
);
};
layerId = "9398AC28-6BE1-4A79-9C94-3CBC2F226CE7";
paths = (
{
closed = 1;
nodes = (
"215 0 LINE",
"215 140 LINE",
"366 140 LINE SMOOTH",
"518 140 OFFCURVE",
"630 224 OFFCURVE",
"630 377 CURVE SMOOTH",
"630 533 OFFCURVE",
"520 615 OFFCURVE",
"366 615 CURVE SMOOTH",
"215 615 LINE",
"215 745 LINE",
"60 745 LINE",
"60 0 LINE"
);
},
{
closed = 1;
nodes = (
"215 480 LINE",
"367 480 LINE SMOOTH",
"432 480 OFFCURVE",
"475 439 OFFCURVE",
"475 377 CURVE SMOOTH",
"475 316 OFFCURVE",
"432 275 OFFCURVE",
"367 275 CURVE SMOOTH",
"215 275 LINE"
);
}
);
width = 655;
},
{
background = {
paths = (
{
closed = 1;
nodes = (
"157 0 LINE",
"187 140 LINE",
"343 140 LINE SMOOTH",
"527 140 OFFCURVE",
"658 243 OFFCURVE",
"658 419 CURVE SMOOTH",
"658 540 OFFCURVE",
"563 615 OFFCURVE",
"442 615 CURVE SMOOTH",
"287 615 LINE",
"315 745 LINE",
"160 745 LINE",
"2 0 LINE"
);
},
{
closed = 1;
nodes = (
"259 480 LINE",
"415 480 LINE SMOOTH",
"469 480 OFFCURVE",
"502 448 OFFCURVE",
"502 401 CURVE SMOOTH",
"502 326 OFFCURVE",
"444 275 OFFCURVE",
"372 275 CURVE SMOOTH",
"216 275 LINE"
);
}
);
};
layerId = "FF6420B2-C0A6-48EA-9EF6-B9F37DCCE47B";
paths = (
{
closed = 1;
nodes = (
"157 0 LINE",
"187 140 LINE",
"343 140 LINE SMOOTH",
"527 140 OFFCURVE",
"658 243 OFFCURVE",
"658 419 CURVE SMOOTH",
"658 540 OFFCURVE",
"563 615 OFFCURVE",
"442 615 CURVE SMOOTH",
"287 615 LINE",
"315 745 LINE",
"160 745 LINE",
"2 0 LINE"
);
},
{
closed = 1;
nodes = (
"259 480 LINE",
"415 480 LINE SMOOTH",
"469 480 OFFCURVE",
"502 448 OFFCURVE",
"502 401 CURVE SMOOTH",
"502 326 OFFCURVE",
"444 275 OFFCURVE",
"372 275 CURVE SMOOTH",
"216 275 LINE"
);
}
);
width = 659;
}
);
leftKerningGroup = I;
rightKerningGroup = P;
unicode = 00DE;
},
{
glyphname = Q;
lastChange = "2020-02-21 18:23:37 +0000";
layers = (
{
anchors = (
{
name = bottom;
position = "{475, 0}";
},
{
name = center;
position = "{466, 356}";
},
{
name = top;
position = "{475, 710}";
}
);
background = {
anchors = (
{
name = bottom;
position = "{475, 0}";
},
{
name = center;
position = "{466, 356}";
},
{
name = top;
position = "{475, 710}";
}
);
paths = (
{
closed = 1;
nodes = (
"399 298 LINE",
"638 -130 LINE",
"727 -130 LINE",
"482 298 LINE"
);
},
{
closed = 1;
nodes = (
"635 -12 OFFCURVE",
"801 149 OFFCURVE",
"801 373 CURVE SMOOTH",
"801 596 OFFCURVE",
"635 757 OFFCURVE",
"428 757 CURVE SMOOTH",
"221 757 OFFCURVE",
"55 597 OFFCURVE",
"55 373 CURVE SMOOTH",
"55 148 OFFCURVE",
"221 -12 OFFCURVE",
"428 -12 CURVE SMOOTH"
);
},
{
closed = 1;
nodes = (
"256 63 OFFCURVE",
"135 202 OFFCURVE",
"135 373 CURVE SMOOTH",
"135 542 OFFCURVE",
"255 682 OFFCURVE",
"428 682 CURVE SMOOTH",
"601 682 OFFCURVE",
"721 542 OFFCURVE",
"721 373 CURVE SMOOTH",
"721 202 OFFCURVE",
"600 63 OFFCURVE",
"428 63 CURVE SMOOTH"
);
}
);
};
layerId = "30C2FD74-1A74-41AC-9C29-B288AE1DBDD7";
paths = (
{
closed = 1;
nodes = (
"399 298 LINE",
"638 -130 LINE",
"727 -130 LINE",
"482 298 LINE"
);
},
{
closed = 1;
nodes = (
"635 -12 OFFCURVE",
"801 149 OFFCURVE",
"801 373 CURVE SMOOTH",
"801 596 OFFCURVE",
"635 757 OFFCURVE",
"428 757 CURVE SMOOTH",
"221 757 OFFCURVE",
"55 597 OFFCURVE",
"55 373 CURVE SMOOTH",
"55 148 OFFCURVE",
"221 -12 OFFCURVE",
"428 -12 CURVE SMOOTH"
);
},
{
closed = 1;
nodes = (
"256 63 OFFCURVE",
"135 202 OFFCURVE",
"135 373 CURVE SMOOTH",
"135 542 OFFCURVE",
"255 682 OFFCURVE",
"428 682 CURVE SMOOTH",
"601 682 OFFCURVE",
"721 542 OFFCURVE",
"721 373 CURVE SMOOTH",
"721 202 OFFCURVE",
"600 63 OFFCURVE",
"428 63 CURVE SMOOTH"
);
}
);
width = 856;
},
{
anchors = (
{
name = bottom;
position = "{412, 0}";
},
{
name = center;
position = "{412, 355}";
},
{
name = top;
position = "{412, 710}";
}
);
background = {
anchors = (
{
name = bottom;
position = "{412, 0}";
},
{
name = center;
position = "{412, 355}";
},
{
name = top;
position = "{412, 710}";
}
);
paths = (
{
closed = 1;
nodes = (
"368 298 LINE",
"607 -130 LINE",
"771 -130 LINE",
"526 298 LINE"
);
},
{
closed = 1;
nodes = (
"655 -12 OFFCURVE",
"825 154 OFFCURVE",
"825 373 CURVE SMOOTH",
"825 592 OFFCURVE",
"656 757 OFFCURVE",
"430 757 CURVE SMOOTH",
"204 757 OFFCURVE",
"35 592 OFFCURVE",
"35 373 CURVE SMOOTH",
"35 154 OFFCURVE",
"205 -12 OFFCURVE",
"430 -12 CURVE SMOOTH"
);
},
{
closed = 1;
nodes = (
"294 128 OFFCURVE",
"190 229 OFFCURVE",
"190 373 CURVE SMOOTH",
"190 517 OFFCURVE",
"294 617 OFFCURVE",
"430 617 CURVE SMOOTH",
"566 617 OFFCURVE",
"670 517 OFFCURVE",
"670 373 CURVE SMOOTH",
"670 229 OFFCURVE",
"566 128 OFFCURVE",
"430 128 CURVE SMOOTH"
);
}
);
};
layerId = "9398AC28-6BE1-4A79-9C94-3CBC2F226CE7";
paths = (
{
closed = 1;
nodes = (
"368 298 LINE",
"607 -130 LINE",
"771 -130 LINE",
"526 298 LINE"
);
},
{
closed = 1;
nodes = (
"655 -12 OFFCURVE",
"825 154 OFFCURVE",
"825 373 CURVE SMOOTH",
"825 592 OFFCURVE",
"656 757 OFFCURVE",
"430 757 CURVE SMOOTH",
"204 757 OFFCURVE",
"35 592 OFFCURVE",
"35 373 CURVE SMOOTH",
"35 154 OFFCURVE",
"205 -12 OFFCURVE",
"430 -12 CURVE SMOOTH"
);
},
{
closed = 1;
nodes = (
"294 128 OFFCURVE",
"190 229 OFFCURVE",
"190 373 CURVE SMOOTH",
"190 517 OFFCURVE",
"294 617 OFFCURVE",
"430 617 CURVE SMOOTH",
"566 617 OFFCURVE",
"670 517 OFFCURVE",
"670 373 CURVE SMOOTH",
"670 229 OFFCURVE",
"566 128 OFFCURVE",
"430 128 CURVE SMOOTH"
);
}
);
width = 860;
},
{
anchors = (
{
name = bottom;
position = "{462, 0}";
},
{
name = center;
position = "{491, 356}";
},
{
name = top;
position = "{537, 710}";
}
);
background = {
anchors = (
{
name = bottom;
position = "{462, 0}";
},
{
name = center;
position = "{491, 356}";
},
{
name = top;
position = "{537, 710}";
}
);
paths = (
{
closed = 1;
nodes = (
"418 298 LINE",
"612 -130 LINE",
"696 -130 LINE",
"496 298 LINE"
);
},
{
closed = 1;
nodes = (
"643 -12 OFFCURVE",
"830 182 OFFCURVE",
"830 419 CURVE SMOOTH",
"830 618 OFFCURVE",
"687 757 OFFCURVE",
"495 757 CURVE SMOOTH",
"266 757 OFFCURVE",
"79 564 OFFCURVE",
"79 327 CURVE SMOOTH",
"79 126 OFFCURVE",
"222 -12 OFFCURVE",
"414 -12 CURVE SMOOTH"
);
},
{
closed = 1;
nodes = (
"263 63 OFFCURVE",
"159 182 OFFCURVE",
"159 336 CURVE SMOOTH",
"159 526 OFFCURVE",
"307 682 OFFCURVE",
"487 682 CURVE SMOOTH",
"647 682 OFFCURVE",
"749 562 OFFCURVE",
"749 410 CURVE SMOOTH",
"749 220 OFFCURVE",
"602 63 OFFCURVE",
"422 63 CURVE SMOOTH"
);
}
);
};
layerId = "0E6515C6-4BDD-456A-90F7-F5B263F1D284";
paths = (
{
closed = 1;
nodes = (
"418 298 LINE",
"612 -130 LINE",
"696 -130 LINE",
"496 298 LINE"
);
},
{
closed = 1;
nodes = (
"643 -12 OFFCURVE",
"830 182 OFFCURVE",
"830 419 CURVE SMOOTH",
"830 618 OFFCURVE",
"687 757 OFFCURVE",
"495 757 CURVE SMOOTH",
"266 757 OFFCURVE",
"79 564 OFFCURVE",
"79 327 CURVE SMOOTH",
"79 126 OFFCURVE",
"222 -12 OFFCURVE",
"414 -12 CURVE SMOOTH"
);
},
{
closed = 1;
nodes = (
"263 63 OFFCURVE",
"159 182 OFFCURVE",
"159 336 CURVE SMOOTH",
"159 526 OFFCURVE",
"307 682 OFFCURVE",
"487 682 CURVE SMOOTH",
"647 682 OFFCURVE",
"749 562 OFFCURVE",
"749 410 CURVE SMOOTH",
"749 220 OFFCURVE",
"602 63 OFFCURVE",
"422 63 CURVE SMOOTH"
);
}
);
width = 862;
},
{
anchors = (
{
name = bottom;
position = "{397, 0}";
},
{
name = center;
position = "{434, 355}";
},
{
name = top;
position = "{472, 710}";
}
);
background = {
anchors = (
{
name = bottom;
position = "{397, 0}";
},
{
name = center;
position = "{434, 355}";
},
{
name = top;
position = "{472, 710}";
}
);
paths = (
{
closed = 1;
nodes = (
"389 298 LINE",
"583 -130 LINE",
"737 -130 LINE",
"537 298 LINE"
);
},
{
closed = 1;
nodes = (
"655 -12 OFFCURVE",
"852 180 OFFCURVE",
"852 416 CURVE SMOOTH",
"852 613 OFFCURVE",
"705 757 OFFCURVE",
"495 757 CURVE SMOOTH",
"252 757 OFFCURVE",
"57 566 OFFCURVE",
"57 330 CURVE SMOOTH",
"57 133 OFFCURVE",
"204 -12 OFFCURVE",
"414 -12 CURVE SMOOTH"
);
},
{
closed = 1;
nodes = (
"303 128 OFFCURVE",
"213 215 OFFCURVE",
"213 343 CURVE SMOOTH",
"213 496 OFFCURVE",
"330 617 OFFCURVE",
"480 617 CURVE SMOOTH",
"605 617 OFFCURVE",
"696 531 OFFCURVE",
"696 403 CURVE SMOOTH",
"696 250 OFFCURVE",
"578 128 OFFCURVE",
"429 128 CURVE SMOOTH"
);
}
);
};
layerId = "FF6420B2-C0A6-48EA-9EF6-B9F37DCCE47B";
paths = (
{
closed = 1;
nodes = (
"389 298 LINE",
"583 -130 LINE",
"737 -130 LINE",
"537 298 LINE"
);
},
{
closed = 1;
nodes = (
"655 -12 OFFCURVE",
"852 180 OFFCURVE",
"852 416 CURVE SMOOTH",
"852 613 OFFCURVE",
"705 757 OFFCURVE",
"495 757 CURVE SMOOTH",
"252 757 OFFCURVE",
"57 566 OFFCURVE",
"57 330 CURVE SMOOTH",
"57 133 OFFCURVE",
"204 -12 OFFCURVE",
"414 -12 CURVE SMOOTH"
);
},
{
closed = 1;
nodes = (
"303 128 OFFCURVE",
"213 215 OFFCURVE",
"213 343 CURVE SMOOTH",
"213 496 OFFCURVE",
"330 617 OFFCURVE",
"480 617 CURVE SMOOTH",
"605 617 OFFCURVE",
"696 531 OFFCURVE",
"696 403 CURVE SMOOTH",
"696 250 OFFCURVE",
"578 128 OFFCURVE",
"429 128 CURVE SMOOTH"
);
}
);
width = 866;
}
);
leftKerningGroup = O;
leftMetricsKey = "=O";
rightKerningGroup = O;
rightMetricsKey = "=O";
unicode = 0051;
},
{
color = 6;
glyphname = Q.ss03;
lastChange = "2020-02-21 18:23:37 +0000";
layers = (
{
anchors = (
{
name = bottom;
position = "{475, 0}";
},
{
name = center;
position = "{466, 356}";
},
{
name = top;
position = "{475, 710}";
}
);
background = {
anchors = (
{
name = bottom;
position = "{475, 0}";
},
{
name = center;
position = "{466, 356}";
},
{
name = top;
position = "{475, 710}";
}
);
paths = (
{
closed = 1;
nodes = (
"379 -116 OFFCURVE",
"479 -205 OFFCURVE",
"627 -205 CURVE SMOOTH",
"730 -205 LINE",
"730 -135 LINE",
"627 -135 LINE SMOOTH",
"520 -135 OFFCURVE",
"449 -75 OFFCURVE",
"449 16 CURVE SMOOTH",
"449 40 LINE",
"379 40 LINE",
"379 16 LINE SMOOTH"
);
},
{
closed = 1;
nodes = (
"635 -12 OFFCURVE",
"801 149 OFFCURVE",
"801 373 CURVE SMOOTH",
"801 596 OFFCURVE",
"635 757 OFFCURVE",
"428 757 CURVE SMOOTH",
"221 757 OFFCURVE",
"55 597 OFFCURVE",
"55 373 CURVE SMOOTH",
"55 148 OFFCURVE",
"221 -12 OFFCURVE",
"428 -12 CURVE SMOOTH"
);
},
{
closed = 1;
nodes = (
"256 63 OFFCURVE",
"135 202 OFFCURVE",
"135 373 CURVE SMOOTH",
"135 542 OFFCURVE",
"255 682 OFFCURVE",
"428 682 CURVE SMOOTH",
"601 682 OFFCURVE",
"721 542 OFFCURVE",
"721 373 CURVE SMOOTH",
"721 202 OFFCURVE",
"600 63 OFFCURVE",
"428 63 CURVE SMOOTH"
);
}
);
};
layerId = "30C2FD74-1A74-41AC-9C29-B288AE1DBDD7";
paths = (
{
closed = 1;
nodes = (
"379 -116 OFFCURVE",
"479 -205 OFFCURVE",
"627 -205 CURVE SMOOTH",
"730 -205 LINE",
"730 -135 LINE",
"627 -135 LINE SMOOTH",
"520 -135 OFFCURVE",
"449 -75 OFFCURVE",
"449 16 CURVE SMOOTH",
"449 40 LINE",
"379 40 LINE",
"379 16 LINE SMOOTH"
);
},
{
closed = 1;
nodes = (
"635 -12 OFFCURVE",
"801 149 OFFCURVE",
"801 373 CURVE SMOOTH",
"801 596 OFFCURVE",
"635 757 OFFCURVE",
"428 757 CURVE SMOOTH",
"221 757 OFFCURVE",
"55 597 OFFCURVE",
"55 373 CURVE SMOOTH",
"55 148 OFFCURVE",
"221 -12 OFFCURVE",
"428 -12 CURVE SMOOTH"
);
},
{
closed = 1;
nodes = (
"256 63 OFFCURVE",
"135 202 OFFCURVE",
"135 373 CURVE SMOOTH",
"135 542 OFFCURVE",
"255 682 OFFCURVE",
"428 682 CURVE SMOOTH",
"601 682 OFFCURVE",
"721 542 OFFCURVE",
"721 373 CURVE SMOOTH",
"721 202 OFFCURVE",
"600 63 OFFCURVE",
"428 63 CURVE SMOOTH"
);
}
);
width = 846;
},
{
anchors = (
{
name = bottom;
position = "{411, 0}";
},
{
name = center;
position = "{411, 355}";
},
{
name = top;
position = "{411, 710}";
}
);
background = {
anchors = (
{
name = bottom;
position = "{411, 0}";
},
{
name = center;
position = "{411, 355}";
},
{
name = top;
position = "{411, 710}";
}
);
paths = (
{
closed = 1;
nodes = (
"363 -113 OFFCURVE",
"462 -205 OFFCURVE",
"611 -205 CURVE SMOOTH",
"799 -205 LINE",
"799 -75 LINE",
"611 -75 LINE SMOOTH",
"552 -75 OFFCURVE",
"513 -35 OFFCURVE",
"513 26 CURVE SMOOTH",
"513 85 LINE",
"363 85 LINE",
"363 26 LINE SMOOTH"
);
},
{
closed = 1;
nodes = (
"654 -12 OFFCURVE",
"824 154 OFFCURVE",
"824 373 CURVE SMOOTH",
"824 592 OFFCURVE",
"655 757 OFFCURVE",
"429 757 CURVE SMOOTH",
"203 757 OFFCURVE",
"34 592 OFFCURVE",
"34 373 CURVE SMOOTH",
"34 154 OFFCURVE",
"204 -12 OFFCURVE",
"429 -12 CURVE SMOOTH"
);
},
{
closed = 1;
nodes = (
"293 128 OFFCURVE",
"189 229 OFFCURVE",
"189 373 CURVE SMOOTH",
"189 517 OFFCURVE",
"293 617 OFFCURVE",
"429 617 CURVE SMOOTH",
"565 617 OFFCURVE",
"669 517 OFFCURVE",
"669 373 CURVE SMOOTH",
"669 229 OFFCURVE",
"565 128 OFFCURVE",
"429 128 CURVE SMOOTH"
);
}
);
};
layerId = "9398AC28-6BE1-4A79-9C94-3CBC2F226CE7";
paths = (
{
closed = 1;
nodes = (
"363 -113 OFFCURVE",
"462 -205 OFFCURVE",
"611 -205 CURVE SMOOTH",
"799 -205 LINE",
"799 -75 LINE",
"611 -75 LINE SMOOTH",
"552 -75 OFFCURVE",
"513 -35 OFFCURVE",
"513 26 CURVE SMOOTH",
"513 85 LINE",
"363 85 LINE",
"363 26 LINE SMOOTH"
);
},
{
closed = 1;
nodes = (
"654 -12 OFFCURVE",
"824 154 OFFCURVE",
"824 373 CURVE SMOOTH",
"824 592 OFFCURVE",
"655 757 OFFCURVE",
"429 757 CURVE SMOOTH",
"203 757 OFFCURVE",
"34 592 OFFCURVE",
"34 373 CURVE SMOOTH",
"34 154 OFFCURVE",
"204 -12 OFFCURVE",
"429 -12 CURVE SMOOTH"
);
},
{
closed = 1;
nodes = (
"293 128 OFFCURVE",
"189 229 OFFCURVE",
"189 373 CURVE SMOOTH",
"189 517 OFFCURVE",
"293 617 OFFCURVE",
"429 617 CURVE SMOOTH",
"565 617 OFFCURVE",
"669 517 OFFCURVE",
"669 373 CURVE SMOOTH",
"669 229 OFFCURVE",
"565 128 OFFCURVE",
"429 128 CURVE SMOOTH"
);
}
);
width = 886;
},
{
anchors = (
{
name = bottom;
position = "{462, 0}";
},
{
name = center;
position = "{491, 356}";
},
{
name = top;
position = "{537, 710}";
}
);
background = {
anchors = (
{
name = bottom;
position = "{462, 0}";
},
{
name = center;
position = "{491, 356}";
},
{
name = top;
position = "{537, 710}";
}
);
paths = (
{
closed = 1;
nodes = (
"357 -116 OFFCURVE",
"445 -205 OFFCURVE",
"593 -205 CURVE SMOOTH",
"688 -205 LINE",
"703 -135 LINE",
"600 -135 LINE SMOOTH",
"493 -135 OFFCURVE",
"430 -75 OFFCURVE",
"438 16 CURVE SMOOTH",
"440 40 LINE",
"370 40 LINE",
"368 16 LINE SMOOTH"
);
},
{
closed = 1;
nodes = (
"643 -12 OFFCURVE",
"830 182 OFFCURVE",
"830 419 CURVE SMOOTH",
"830 618 OFFCURVE",
"687 757 OFFCURVE",
"495 757 CURVE SMOOTH",
"266 757 OFFCURVE",
"79 564 OFFCURVE",
"79 327 CURVE SMOOTH",
"79 126 OFFCURVE",
"222 -12 OFFCURVE",
"414 -12 CURVE SMOOTH"
);
},
{
closed = 1;
nodes = (
"263 63 OFFCURVE",
"159 182 OFFCURVE",
"159 336 CURVE SMOOTH",
"159 526 OFFCURVE",
"307 682 OFFCURVE",
"487 682 CURVE SMOOTH",
"647 682 OFFCURVE",
"749 562 OFFCURVE",
"749 410 CURVE SMOOTH",
"749 220 OFFCURVE",
"602 63 OFFCURVE",
"422 63 CURVE SMOOTH"
);
}
);
};
layerId = "0E6515C6-4BDD-456A-90F7-F5B263F1D284";
paths = (
{
closed = 1;
nodes = (
"357 -116 OFFCURVE",
"445 -205 OFFCURVE",
"593 -205 CURVE SMOOTH",
"688 -205 LINE",
"703 -135 LINE",
"600 -135 LINE SMOOTH",
"493 -135 OFFCURVE",
"430 -75 OFFCURVE",
"438 16 CURVE SMOOTH",
"440 40 LINE",
"370 40 LINE",
"368 16 LINE SMOOTH"
);
},
{
closed = 1;
nodes = (
"643 -12 OFFCURVE",
"830 182 OFFCURVE",
"830 419 CURVE SMOOTH",
"830 618 OFFCURVE",
"687 757 OFFCURVE",
"495 757 CURVE SMOOTH",
"266 757 OFFCURVE",
"79 564 OFFCURVE",
"79 327 CURVE SMOOTH",
"79 126 OFFCURVE",
"222 -12 OFFCURVE",
"414 -12 CURVE SMOOTH"
);
},
{
closed = 1;
nodes = (
"263 63 OFFCURVE",
"159 182 OFFCURVE",
"159 336 CURVE SMOOTH",
"159 526 OFFCURVE",
"307 682 OFFCURVE",
"487 682 CURVE SMOOTH",
"647 682 OFFCURVE",
"749 562 OFFCURVE",
"749 410 CURVE SMOOTH",
"749 220 OFFCURVE",
"602 63 OFFCURVE",
"422 63 CURVE SMOOTH"
);
}
);
width = 852;
},
{
anchors = (
{
name = bottom;
position = "{396, 0}";
},
{
name = center;
position = "{433, 355}";
},
{
name = top;
position = "{471, 710}";
}
);
background = {
anchors = (
{
name = bottom;
position = "{396, 0}";
},
{
name = center;
position = "{433, 355}";
},
{
name = top;
position = "{471, 710}";
}
);
paths = (
{
closed = 1;
nodes = (
"327 -113 OFFCURVE",
"416 -205 OFFCURVE",
"565 -205 CURVE SMOOTH",
"736 -205 LINE",
"766 -75 LINE",
"578 -75 LINE SMOOTH",
"519 -75 OFFCURVE",
"485 -35 OFFCURVE",
"491 26 CURVE SMOOTH",
"497 85 LINE",
"347 85 LINE",
"341 26 LINE SMOOTH"
);
},
{
closed = 1;
nodes = (
"654 -12 OFFCURVE",
"851 180 OFFCURVE",
"851 416 CURVE SMOOTH",
"851 613 OFFCURVE",
"704 757 OFFCURVE",
"494 757 CURVE SMOOTH",
"251 757 OFFCURVE",
"56 566 OFFCURVE",
"56 330 CURVE SMOOTH",
"56 133 OFFCURVE",
"203 -12 OFFCURVE",
"413 -12 CURVE SMOOTH"
);
},
{
closed = 1;
nodes = (
"302 128 OFFCURVE",
"212 215 OFFCURVE",
"212 343 CURVE SMOOTH",
"212 496 OFFCURVE",
"329 617 OFFCURVE",
"479 617 CURVE SMOOTH",
"604 617 OFFCURVE",
"695 531 OFFCURVE",
"695 403 CURVE SMOOTH",
"695 250 OFFCURVE",
"577 128 OFFCURVE",
"428 128 CURVE SMOOTH"
);
}
);
};
layerId = "FF6420B2-C0A6-48EA-9EF6-B9F37DCCE47B";
paths = (
{
closed = 1;
nodes = (
"327 -113 OFFCURVE",
"416 -205 OFFCURVE",
"565 -205 CURVE SMOOTH",
"736 -205 LINE",
"766 -75 LINE",
"578 -75 LINE SMOOTH",
"519 -75 OFFCURVE",
"485 -35 OFFCURVE",
"491 26 CURVE SMOOTH",
"497 85 LINE",
"347 85 LINE",
"341 26 LINE SMOOTH"
);
},
{
closed = 1;
nodes = (
"654 -12 OFFCURVE",
"851 180 OFFCURVE",
"851 416 CURVE SMOOTH",
"851 613 OFFCURVE",
"704 757 OFFCURVE",
"494 757 CURVE SMOOTH",
"251 757 OFFCURVE",
"56 566 OFFCURVE",
"56 330 CURVE SMOOTH",
"56 133 OFFCURVE",
"203 -12 OFFCURVE",
"413 -12 CURVE SMOOTH"
);
},
{
closed = 1;
nodes = (
"302 128 OFFCURVE",
"212 215 OFFCURVE",
"212 343 CURVE SMOOTH",
"212 496 OFFCURVE",
"329 617 OFFCURVE",
"479 617 CURVE SMOOTH",
"604 617 OFFCURVE",
"695 531 OFFCURVE",
"695 403 CURVE SMOOTH",
"695 250 OFFCURVE",
"577 128 OFFCURVE",
"428 128 CURVE SMOOTH"
);
}
);
width = 902;
}
);
leftKerningGroup = O;
rightKerningGroup = O;
},
{
glyphname = R;
lastChange = "2020-02-21 19:11:52 +0000";
layers = (
{
background = {
paths = (
{
closed = 1;
nodes = (
"160 0 LINE",
"160 290 LINE",
"336 290 LINE SMOOTH",
"489 290 OFFCURVE",
"590 381 OFFCURVE",
"590 517 CURVE SMOOTH",
"590 653 OFFCURVE",
"488 745 OFFCURVE",
"336 745 CURVE SMOOTH",
"80 745 LINE",
"80 0 LINE"
);
},
{
closed = 1;
nodes = (
"160 675 LINE",
"336 675 LINE SMOOTH",
"438 675 OFFCURVE",
"506 612 OFFCURVE",
"506 518 CURVE SMOOTH",
"506 423 OFFCURVE",
"438 360 OFFCURVE",
"336 360 CURVE SMOOTH",
"160 360 LINE"
);
},
{
closed = 1;
nodes = (
"328 332 LINE",
"517 0 LINE",
"611 0 LINE",
"421 332 LINE"
);
}
);
};
layerId = "30C2FD74-1A74-41AC-9C29-B288AE1DBDD7";
paths = (
{
closed = 1;
nodes = (
"160 0 LINE",
"160 290 LINE",
"352 290 LINE",
"517 0 LINE",
"611 0 LINE",
"436 305 LINE",
"532 336 OFFCURVE",
"590 414 OFFCURVE",
"590 517 CURVE SMOOTH",
"590 653 OFFCURVE",
"488 745 OFFCURVE",
"336 745 CURVE SMOOTH",
"80 745 LINE",
"80 0 LINE"
);
},
{
closed = 1;
nodes = (
"160 675 LINE",
"336 675 LINE SMOOTH",
"438 675 OFFCURVE",
"506 612 OFFCURVE",
"506 518 CURVE SMOOTH",
"506 423 OFFCURVE",
"438 360 OFFCURVE",
"336 360 CURVE SMOOTH",
"160 360 LINE"
);
}
);
width = 656;
},
{
background = {
paths = (
{
closed = 1;
nodes = (
"215 0 LINE",
"215 270 LINE",
"366 270 LINE SMOOTH",
"518 270 OFFCURVE",
"630 354 OFFCURVE",
"630 507 CURVE SMOOTH",
"630 663 OFFCURVE",
"520 745 OFFCURVE",
"366 745 CURVE SMOOTH",
"60 745 LINE",
"60 0 LINE"
);
},
{
closed = 1;
nodes = (
"215 610 LINE",
"367 610 LINE SMOOTH",
"432 610 OFFCURVE",
"475 569 OFFCURVE",
"475 507 CURVE SMOOTH",
"475 446 OFFCURVE",
"432 405 OFFCURVE",
"367 405 CURVE SMOOTH",
"215 405 LINE"
);
},
{
closed = 1;
nodes = (
"304 344 LINE",
"497 0 LINE",
"671 0 LINE",
"474 344 LINE"
);
}
);
};
layerId = "9398AC28-6BE1-4A79-9C94-3CBC2F226CE7";
paths = (
{
closed = 1;
nodes = (
"215 0 LINE",
"215 270 LINE",
"346 270 LINE",
"497 0 LINE",
"671 0 LINE",
"501 297 LINE",
"580 333 OFFCURVE",
"630 405 OFFCURVE",
"630 507 CURVE SMOOTH",
"630 663 OFFCURVE",
"520 745 OFFCURVE",
"366 745 CURVE SMOOTH",
"60 745 LINE",
"60 0 LINE"
);
},
{
closed = 1;
nodes = (
"215 610 LINE",
"367 610 LINE SMOOTH",
"432 610 OFFCURVE",
"475 569 OFFCURVE",
"475 507 CURVE SMOOTH",
"475 446 OFFCURVE",
"432 405 OFFCURVE",
"367 405 CURVE SMOOTH",
"215 405 LINE"
);
}
);
width = 696;
},
{
background = {
paths = (
{
closed = 1;
nodes = (
"104 0 LINE",
"165 290 LINE",
"347 290 LINE SMOOTH",
"512 290 OFFCURVE",
"650 393 OFFCURVE",
"650 552 CURVE SMOOTH",
"650 661 OFFCURVE",
"571 745 OFFCURVE",
"442 745 CURVE SMOOTH",
"182 745 LINE",
"24 0 LINE"
);
},
{
closed = 1;
nodes = (
"546 0 LINE",
"426 332 LINE",
"342 332 LINE",
"461 0 LINE"
);
},
{
closed = 1;
nodes = (
"247 675 LINE",
"427 675 LINE SMOOTH",
"512 675 OFFCURVE",
"565 621 OFFCURVE",
"565 547 CURVE SMOOTH",
"565 438 OFFCURVE",
"478 360 OFFCURVE",
"361 360 CURVE SMOOTH",
"180 360 LINE"
);
}
);
};
layerId = "0E6515C6-4BDD-456A-90F7-F5B263F1D284";
paths = (
{
closed = 1;
nodes = (
"104 0 LINE",
"165 290 LINE",
"357 290 LINE",
"461 0 LINE",
"546 0 LINE",
"437 301 LINE",
"559 331 OFFCURVE",
"650 423 OFFCURVE",
"650 552 CURVE SMOOTH",
"650 661 OFFCURVE",
"571 745 OFFCURVE",
"442 745 CURVE SMOOTH",
"182 745 LINE",
"24 0 LINE"
);
},
{
closed = 1;
nodes = (
"247 675 LINE",
"427 675 LINE SMOOTH",
"512 675 OFFCURVE",
"565 621 OFFCURVE",
"565 547 CURVE SMOOTH",
"565 438 OFFCURVE",
"478 360 OFFCURVE",
"361 360 CURVE SMOOTH",
"180 360 LINE"
);
}
);
width = 647;
},
{
background = {
paths = (
{
closed = 1;
nodes = (
"159 0 LINE",
"215 270 LINE",
"371 270 LINE SMOOTH",
"555 270 OFFCURVE",
"686 373 OFFCURVE",
"686 549 CURVE SMOOTH",
"686 670 OFFCURVE",
"591 745 OFFCURVE",
"470 745 CURVE SMOOTH",
"160 745 LINE",
"4 0 LINE"
);
},
{
closed = 1;
nodes = (
"614 0 LINE",
"490 344 LINE",
"330 344 LINE",
"450 0 LINE"
);
},
{
closed = 1;
nodes = (
"287 610 LINE",
"443 610 LINE SMOOTH",
"497 610 OFFCURVE",
"530 578 OFFCURVE",
"530 531 CURVE SMOOTH",
"530 456 OFFCURVE",
"472 405 OFFCURVE",
"400 405 CURVE SMOOTH",
"244 405 LINE"
);
}
);
};
layerId = "FF6420B2-C0A6-48EA-9EF6-B9F37DCCE47B";
paths = (
{
closed = 1;
nodes = (
"159 0 LINE",
"215 270 LINE",
"356 270 LINE",
"450 0 LINE",
"614 0 LINE",
"509 293 LINE",
"617 332 OFFCURVE",
"686 421 OFFCURVE",
"686 549 CURVE SMOOTH",
"686 670 OFFCURVE",
"591 745 OFFCURVE",
"470 745 CURVE SMOOTH",
"160 745 LINE",
"4 0 LINE"
);
},
{
closed = 1;
nodes = (
"287 610 LINE",
"443 610 LINE SMOOTH",
"497 610 OFFCURVE",
"530 578 OFFCURVE",
"530 531 CURVE SMOOTH",
"530 456 OFFCURVE",
"472 405 OFFCURVE",
"400 405 CURVE SMOOTH",
"244 405 LINE"
);
}
);
width = 697;
}
);
leftKerningGroup = I;
rightKerningGroup = R;
unicode = 0052;
},
{
color = 6;
glyphname = R.ss03;
lastChange = "2020-02-21 18:23:37 +0000";
layers = (
{
background = {
paths = (
{
closed = 1;
nodes = (
"160 0 LINE",
"160 290 LINE",
"415 290 LINE SMOOTH",
"475 290 OFFCURVE",
"500 262 OFFCURVE",
"500 196 CURVE SMOOTH",
"500 0 LINE",
"580 0 LINE",
"580 206 LINE SMOOTH",
"580 292 OFFCURVE",
"550 324 OFFCURVE",
"465 338 CURVE",
"465 328 LINE",
"553 372 OFFCURVE",
"590 428 OFFCURVE",
"590 517 CURVE SMOOTH",
"590 652 OFFCURVE",
"486 745 OFFCURVE",
"336 745 CURVE SMOOTH",
"80 745 LINE",
"80 0 LINE"
);
},
{
closed = 1;
nodes = (
"160 675 LINE",
"336 675 LINE SMOOTH",
"438 675 OFFCURVE",
"506 612 OFFCURVE",
"506 518 CURVE SMOOTH",
"506 423 OFFCURVE",
"438 360 OFFCURVE",
"336 360 CURVE SMOOTH",
"160 360 LINE"
);
}
);
};
layerId = "30C2FD74-1A74-41AC-9C29-B288AE1DBDD7";
paths = (
{
closed = 1;
nodes = (
"160 0 LINE",
"160 290 LINE",
"415 290 LINE SMOOTH",
"475 290 OFFCURVE",
"500 262 OFFCURVE",
"500 196 CURVE SMOOTH",
"500 0 LINE",
"580 0 LINE",
"580 206 LINE SMOOTH",
"580 292 OFFCURVE",
"550 324 OFFCURVE",
"465 338 CURVE",
"465 328 LINE",
"553 372 OFFCURVE",
"590 428 OFFCURVE",
"590 517 CURVE SMOOTH",
"590 652 OFFCURVE",
"486 745 OFFCURVE",
"336 745 CURVE SMOOTH",
"80 745 LINE",
"80 0 LINE"
);
},
{
closed = 1;
nodes = (
"160 675 LINE",
"336 675 LINE SMOOTH",
"438 675 OFFCURVE",
"506 612 OFFCURVE",
"506 518 CURVE SMOOTH",
"506 423 OFFCURVE",
"438 360 OFFCURVE",
"336 360 CURVE SMOOTH",
"160 360 LINE"
);
}
);
width = 675;
},
{
background = {
paths = (
{
closed = 1;
nodes = (
"215 0 LINE",
"215 270 LINE",
"396 270 LINE SMOOTH",
"445 270 OFFCURVE",
"470 245 OFFCURVE",
"470 198 CURVE SMOOTH",
"470 0 LINE",
"630 0 LINE",
"630 178 LINE SMOOTH",
"630 283 OFFCURVE",
"596 329 OFFCURVE",
"520 352 CURVE",
"531 307 LINE",
"588 346 OFFCURVE",
"630 413 OFFCURVE",
"630 507 CURVE SMOOTH",
"630 663 OFFCURVE",
"520 745 OFFCURVE",
"366 745 CURVE SMOOTH",
"60 745 LINE",
"60 0 LINE"
);
},
{
closed = 1;
nodes = (
"215 610 LINE",
"367 610 LINE SMOOTH",
"432 610 OFFCURVE",
"475 569 OFFCURVE",
"475 507 CURVE SMOOTH",
"475 446 OFFCURVE",
"432 405 OFFCURVE",
"367 405 CURVE SMOOTH",
"215 405 LINE"
);
}
);
};
layerId = "9398AC28-6BE1-4A79-9C94-3CBC2F226CE7";
paths = (
{
closed = 1;
nodes = (
"215 0 LINE",
"215 270 LINE",
"396 270 LINE SMOOTH",
"445 270 OFFCURVE",
"470 245 OFFCURVE",
"470 198 CURVE SMOOTH",
"470 0 LINE",
"630 0 LINE",
"630 178 LINE SMOOTH",
"630 283 OFFCURVE",
"596 329 OFFCURVE",
"520 352 CURVE",
"531 307 LINE",
"588 346 OFFCURVE",
"630 413 OFFCURVE",
"630 507 CURVE SMOOTH",
"630 663 OFFCURVE",
"520 745 OFFCURVE",
"366 745 CURVE SMOOTH",
"60 745 LINE",
"60 0 LINE"
);
},
{
closed = 1;
nodes = (
"215 610 LINE",
"367 610 LINE SMOOTH",
"432 610 OFFCURVE",
"475 569 OFFCURVE",
"475 507 CURVE SMOOTH",
"475 446 OFFCURVE",
"432 405 OFFCURVE",
"367 405 CURVE SMOOTH",
"215 405 LINE"
);
}
);
width = 695;
},
{
background = {
paths = (
{
closed = 1;
nodes = (
"104 0 LINE",
"165 290 LINE",
"370 290 LINE SMOOTH",
"480 290 OFFCURVE",
"499 262 OFFCURVE",
"485 196 CURVE SMOOTH",
"444 0 LINE",
"524 0 LINE",
"566 197 LINE SMOOTH",
"581 269 OFFCURVE",
"565 320 OFFCURVE",
"491 337 CURVE",
"499 318 LINE",
"584 358 OFFCURVE",
"650 442 OFFCURVE",
"650 552 CURVE SMOOTH",
"650 668 OFFCURVE",
"567 745 OFFCURVE",
"442 745 CURVE SMOOTH",
"182 745 LINE",
"24 0 LINE"
);
},
{
closed = 1;
nodes = (
"247 675 LINE",
"427 675 LINE SMOOTH",
"510 675 OFFCURVE",
"565 624 OFFCURVE",
"565 547 CURVE SMOOTH",
"565 438 OFFCURVE",
"478 360 OFFCURVE",
"361 360 CURVE SMOOTH",
"180 360 LINE"
);
}
);
};
layerId = "0E6515C6-4BDD-456A-90F7-F5B263F1D284";
paths = (
{
closed = 1;
nodes = (
"104 0 LINE",
"165 290 LINE",
"370 290 LINE SMOOTH",
"480 290 OFFCURVE",
"499 262 OFFCURVE",
"485 196 CURVE SMOOTH",
"444 0 LINE",
"524 0 LINE",
"566 197 LINE SMOOTH",
"581 269 OFFCURVE",
"565 320 OFFCURVE",
"491 337 CURVE",
"499 318 LINE",
"584 358 OFFCURVE",
"650 442 OFFCURVE",
"650 552 CURVE SMOOTH",
"650 668 OFFCURVE",
"567 745 OFFCURVE",
"442 745 CURVE SMOOTH",
"182 745 LINE",
"24 0 LINE"
);
},
{
closed = 1;
nodes = (
"247 675 LINE",
"427 675 LINE SMOOTH",
"510 675 OFFCURVE",
"565 624 OFFCURVE",
"565 547 CURVE SMOOTH",
"565 438 OFFCURVE",
"478 360 OFFCURVE",
"361 360 CURVE SMOOTH",
"180 360 LINE"
);
}
);
width = 680;
},
{
background = {
paths = (
{
closed = 1;
nodes = (
"159 0 LINE",
"215 270 LINE",
"396 270 LINE SMOOTH",
"444 270 OFFCURVE",
"465 245 OFFCURVE",
"455 198 CURVE SMOOTH",
"413 0 LINE",
"573 0 LINE",
"610 178 LINE SMOOTH",
"631 279 OFFCURVE",
"611 323 OFFCURVE",
"550 349 CURVE",
"549 307 LINE",
"630 349 OFFCURVE",
"686 435 OFFCURVE",
"686 549 CURVE SMOOTH",
"686 670 OFFCURVE",
"591 745 OFFCURVE",
"470 745 CURVE SMOOTH",
"160 745 LINE",
"4 0 LINE"
);
},
{
closed = 1;
nodes = (
"287 610 LINE",
"443 610 LINE SMOOTH",
"497 610 OFFCURVE",
"530 578 OFFCURVE",
"530 531 CURVE SMOOTH",
"530 456 OFFCURVE",
"472 405 OFFCURVE",
"400 405 CURVE SMOOTH",
"244 405 LINE"
);
}
);
};
layerId = "FF6420B2-C0A6-48EA-9EF6-B9F37DCCE47B";
paths = (
{
closed = 1;
nodes = (
"159 0 LINE",
"215 270 LINE",
"396 270 LINE SMOOTH",
"444 270 OFFCURVE",
"465 245 OFFCURVE",
"455 198 CURVE SMOOTH",
"413 0 LINE",
"573 0 LINE",
"610 178 LINE SMOOTH",
"631 279 OFFCURVE",
"611 323 OFFCURVE",
"550 349 CURVE",
"549 307 LINE",
"630 349 OFFCURVE",
"686 435 OFFCURVE",
"686 549 CURVE SMOOTH",
"686 670 OFFCURVE",
"591 745 OFFCURVE",
"470 745 CURVE SMOOTH",
"160 745 LINE",
"4 0 LINE"
);
},
{
closed = 1;
nodes = (
"287 610 LINE",
"443 610 LINE SMOOTH",
"497 610 OFFCURVE",
"530 578 OFFCURVE",
"530 531 CURVE SMOOTH",
"530 456 OFFCURVE",
"472 405 OFFCURVE",
"400 405 CURVE SMOOTH",
"244 405 LINE"
);
}
);
width = 700;
}
);
leftKerningGroup = I;
leftMetricsKey = "=R";
rightKerningGroup = R;
rightMetricsKey = "=R+40";
},
{
glyphname = S;
lastChange = "2020-02-21 18:23:37 +0000";
layers = (
{
anchors = (
{
name = bottom;
position = "{315, 0}";
},
{
name = top;
position = "{315, 745}";
}
);
background = {
anchors = (
{
name = bottom;
position = "{315, 0}";
},
{
name = top;
position = "{315, 745}";
}
);
paths = (
{
closed = 1;
nodes = (
"480 -12 OFFCURVE",
"580 71 OFFCURVE",
"580 191 CURVE SMOOTH",
"580 290 OFFCURVE",
"519 353 OFFCURVE",
"398 389 CURVE SMOOTH",
"269 427 LINE SMOOTH",
"190 450 OFFCURVE",
"147 499 OFFCURVE",
"147 561 CURVE SMOOTH",
"147 637 OFFCURVE",
"210 687 OFFCURVE",
"305 687 CURVE SMOOTH",
"399 687 OFFCURVE",
"469 638 OFFCURVE",
"501 546 CURVE",
"573 579 LINE",
"540 676 OFFCURVE",
"440 757 OFFCURVE",
"304 757 CURVE SMOOTH",
"166 757 OFFCURVE",
"67 673 OFFCURVE",
"67 555 CURVE SMOOTH",
"67 465 OFFCURVE",
"127 389 OFFCURVE",
"244 355 CURVE SMOOTH",
"380 315 LINE SMOOTH",
"462 291 OFFCURVE",
"500 253 OFFCURVE",
"500 184 CURVE SMOOTH",
"500 109 OFFCURVE",
"433 58 OFFCURVE",
"335 58 CURVE SMOOTH",
"230 58 OFFCURVE",
"152 114 OFFCURVE",
"117 219 CURVE",
"45 188 LINE",
"80 78 OFFCURVE",
"189 -12 OFFCURVE",
"335 -12 CURVE SMOOTH"
);
}
);
};
layerId = "30C2FD74-1A74-41AC-9C29-B288AE1DBDD7";
paths = (
{
closed = 1;
nodes = (
"480 -12 OFFCURVE",
"580 71 OFFCURVE",
"580 191 CURVE SMOOTH",
"580 290 OFFCURVE",
"519 353 OFFCURVE",
"398 389 CURVE SMOOTH",
"269 427 LINE SMOOTH",
"190 450 OFFCURVE",
"147 499 OFFCURVE",
"147 561 CURVE SMOOTH",
"147 637 OFFCURVE",
"210 687 OFFCURVE",
"305 687 CURVE SMOOTH",
"399 687 OFFCURVE",
"469 638 OFFCURVE",
"501 546 CURVE",
"573 579 LINE",
"540 676 OFFCURVE",
"440 757 OFFCURVE",
"304 757 CURVE SMOOTH",
"166 757 OFFCURVE",
"67 673 OFFCURVE",
"67 555 CURVE SMOOTH",
"67 465 OFFCURVE",
"127 389 OFFCURVE",
"244 355 CURVE SMOOTH",
"380 315 LINE SMOOTH",
"462 291 OFFCURVE",
"500 253 OFFCURVE",
"500 184 CURVE SMOOTH",
"500 109 OFFCURVE",
"433 58 OFFCURVE",
"335 58 CURVE SMOOTH",
"230 58 OFFCURVE",
"152 114 OFFCURVE",
"117 219 CURVE",
"45 188 LINE",
"80 78 OFFCURVE",
"189 -12 OFFCURVE",
"335 -12 CURVE SMOOTH"
);
}
);
width = 630;
},
{
anchors = (
{
name = bottom;
position = "{323, 0}";
},
{
name = top;
position = "{323, 745}";
}
);
background = {
anchors = (
{
name = bottom;
position = "{323, 0}";
},
{
name = top;
position = "{323, 745}";
}
);
paths = (
{
closed = 1;
nodes = (
"506 -12 OFFCURVE",
"616 77 OFFCURVE",
"616 211 CURVE SMOOTH",
"616 313 OFFCURVE",
"553 380 OFFCURVE",
"428 419 CURVE SMOOTH",
"280 465 LINE SMOOTH",
"232 480 OFFCURVE",
"206 506 OFFCURVE",
"206 541 CURVE SMOOTH",
"206 587 OFFCURVE",
"251 622 OFFCURVE",
"319 622 CURVE SMOOTH",
"399 622 OFFCURVE",
"459 578 OFFCURVE",
"484 507 CURVE",
"614 568 LINE",
"574 678 OFFCURVE",
"462 757 OFFCURVE",
"319 757 CURVE SMOOTH",
"158 757 OFFCURVE",
"51 668 OFFCURVE",
"51 535 CURVE SMOOTH",
"51 436 OFFCURVE",
"111 364 OFFCURVE",
"238 324 CURVE SMOOTH",
"390 276 LINE SMOOTH",
"434 262 OFFCURVE",
"461 241 OFFCURVE",
"461 202 CURVE SMOOTH",
"461 158 OFFCURVE",
"416 123 OFFCURVE",
"340 123 CURVE SMOOTH",
"266 123 OFFCURVE",
"191 171 OFFCURVE",
"155 258 CURVE",
"25 197 LINE",
"66 71 OFFCURVE",
"192 -12 OFFCURVE",
"340 -12 CURVE SMOOTH"
);
}
);
};
layerId = "9398AC28-6BE1-4A79-9C94-3CBC2F226CE7";
paths = (
{
closed = 1;
nodes = (
"506 -12 OFFCURVE",
"616 77 OFFCURVE",
"616 211 CURVE SMOOTH",
"616 313 OFFCURVE",
"553 380 OFFCURVE",
"428 419 CURVE SMOOTH",
"280 465 LINE SMOOTH",
"232 480 OFFCURVE",
"206 506 OFFCURVE",
"206 541 CURVE SMOOTH",
"206 587 OFFCURVE",
"251 622 OFFCURVE",
"319 622 CURVE SMOOTH",
"399 622 OFFCURVE",
"459 578 OFFCURVE",
"484 507 CURVE",
"614 568 LINE",
"574 678 OFFCURVE",
"462 757 OFFCURVE",
"319 757 CURVE SMOOTH",
"158 757 OFFCURVE",
"51 668 OFFCURVE",
"51 535 CURVE SMOOTH",
"51 436 OFFCURVE",
"111 364 OFFCURVE",
"238 324 CURVE SMOOTH",
"390 276 LINE SMOOTH",
"434 262 OFFCURVE",
"461 241 OFFCURVE",
"461 202 CURVE SMOOTH",
"461 158 OFFCURVE",
"416 123 OFFCURVE",
"340 123 CURVE SMOOTH",
"266 123 OFFCURVE",
"191 171 OFFCURVE",
"155 258 CURVE",
"25 197 LINE",
"66 71 OFFCURVE",
"192 -12 OFFCURVE",
"340 -12 CURVE SMOOTH"
);
}
);
width = 646;
},
{
anchors = (
{
name = bottom;
position = "{261, 0}";
},
{
name = top;
position = "{419, 745}";
}
);
background = {
anchors = (
{
name = bottom;
position = "{261, 0}";
},
{
name = top;
position = "{419, 745}";
}
);
paths = (
{
closed = 1;
nodes = (
"456 -12 OFFCURVE",
"567 74 OFFCURVE",
"567 206 CURVE SMOOTH",
"567 282 OFFCURVE",
"519 338 OFFCURVE",
"424 379 CURVE SMOOTH",
"305 430 LINE SMOOTH",
"242 457 OFFCURVE",
"210 501 OFFCURVE",
"210 550 CURVE SMOOTH",
"210 630 OFFCURVE",
"277 686 OFFCURVE",
"369 686 CURVE SMOOTH",
"476 686 OFFCURVE",
"545 628 OFFCURVE",
"558 524 CURVE",
"636 550 LINE",
"621 672 OFFCURVE",
"510 757 OFFCURVE",
"376 757 CURVE SMOOTH",
"243 757 OFFCURVE",
"129 667 OFFCURVE",
"129 539 CURVE SMOOTH",
"129 465 OFFCURVE",
"174 401 OFFCURVE",
"266 361 CURVE SMOOTH",
"391 307 LINE SMOOTH",
"455 279 OFFCURVE",
"485 246 OFFCURVE",
"485 195 CURVE SMOOTH",
"485 105 OFFCURVE",
"414 58 OFFCURVE",
"320 58 CURVE SMOOTH",
"202 58 OFFCURVE",
"126 122 OFFCURVE",
"112 239 CURVE",
"35 216 LINE",
"48 79 OFFCURVE",
"167 -12 OFFCURVE",
"315 -12 CURVE SMOOTH"
);
}
);
};
layerId = "0E6515C6-4BDD-456A-90F7-F5B263F1D284";
paths = (
{
closed = 1;
nodes = (
"456 -12 OFFCURVE",
"567 74 OFFCURVE",
"567 206 CURVE SMOOTH",
"567 282 OFFCURVE",
"519 338 OFFCURVE",
"424 379 CURVE SMOOTH",
"305 430 LINE SMOOTH",
"242 457 OFFCURVE",
"210 501 OFFCURVE",
"210 550 CURVE SMOOTH",
"210 630 OFFCURVE",
"277 686 OFFCURVE",
"369 686 CURVE SMOOTH",
"476 686 OFFCURVE",
"545 628 OFFCURVE",
"558 524 CURVE",
"636 550 LINE",
"621 672 OFFCURVE",
"510 757 OFFCURVE",
"376 757 CURVE SMOOTH",
"243 757 OFFCURVE",
"129 667 OFFCURVE",
"129 539 CURVE SMOOTH",
"129 465 OFFCURVE",
"174 401 OFFCURVE",
"266 361 CURVE SMOOTH",
"391 307 LINE SMOOTH",
"455 279 OFFCURVE",
"485 246 OFFCURVE",
"485 195 CURVE SMOOTH",
"485 105 OFFCURVE",
"414 58 OFFCURVE",
"320 58 CURVE SMOOTH",
"202 58 OFFCURVE",
"126 122 OFFCURVE",
"112 239 CURVE",
"35 216 LINE",
"48 79 OFFCURVE",
"167 -12 OFFCURVE",
"315 -12 CURVE SMOOTH"
);
}
);
width = 634;
},
{
anchors = (
{
name = bottom;
position = "{267.822, 0}";
},
{
name = top;
position = "{426.177, 745}";
}
);
background = {
anchors = (
{
name = bottom;
position = "{267.822, 0}";
},
{
name = top;
position = "{426.177, 745}";
}
);
paths = (
{
closed = 1;
nodes = (
"483 -12 OFFCURVE",
"605 81 OFFCURVE",
"605 227 CURVE SMOOTH",
"605 305 OFFCURVE",
"556 364 OFFCURVE",
"459 408 CURVE SMOOTH",
"323 469 LINE SMOOTH",
"285 486 OFFCURVE",
"265 511 OFFCURVE",
"265 539 CURVE SMOOTH",
"265 589 OFFCURVE",
"314 622 OFFCURVE",
"375 622 CURVE SMOOTH",
"467 622 OFFCURVE",
"521 575 OFFCURVE",
"533 489 CURVE",
"673 536 LINE",
"654 672 OFFCURVE",
"532 757 OFFCURVE",
"380 757 CURVE SMOOTH",
"227 757 OFFCURVE",
"108 660 OFFCURVE",
"108 526 CURVE SMOOTH",
"108 442 OFFCURVE",
"153 378 OFFCURVE",
"252 333 CURVE SMOOTH",
"392 269 LINE SMOOTH",
"427 253 OFFCURVE",
"448 233 OFFCURVE",
"448 203 CURVE SMOOTH",
"448 157 OFFCURVE",
"404 123 OFFCURVE",
"334 123 CURVE SMOOTH",
"242 123 OFFCURVE",
"174 184 OFFCURVE",
"157 276 CURVE",
"16 229 LINE",
"32 82 OFFCURVE",
"164 -12 OFFCURVE",
"326 -12 CURVE SMOOTH"
);
}
);
};
layerId = "FF6420B2-C0A6-48EA-9EF6-B9F37DCCE47B";
paths = (
{
closed = 1;
nodes = (
"483 -12 OFFCURVE",
"605 81 OFFCURVE",
"605 227 CURVE SMOOTH",
"605 305 OFFCURVE",
"556 364 OFFCURVE",
"459 408 CURVE SMOOTH",
"323 469 LINE SMOOTH",
"285 486 OFFCURVE",
"265 511 OFFCURVE",
"265 539 CURVE SMOOTH",
"265 589 OFFCURVE",
"314 622 OFFCURVE",
"375 622 CURVE SMOOTH",
"467 622 OFFCURVE",
"521 575 OFFCURVE",
"533 489 CURVE",
"673 536 LINE",
"654 672 OFFCURVE",
"532 757 OFFCURVE",
"380 757 CURVE SMOOTH",
"227 757 OFFCURVE",
"108 660 OFFCURVE",
"108 526 CURVE SMOOTH",
"108 442 OFFCURVE",
"153 378 OFFCURVE",
"252 333 CURVE SMOOTH",
"392 269 LINE SMOOTH",
"427 253 OFFCURVE",
"448 233 OFFCURVE",
"448 203 CURVE SMOOTH",
"448 157 OFFCURVE",
"404 123 OFFCURVE",
"334 123 CURVE SMOOTH",
"242 123 OFFCURVE",
"174 184 OFFCURVE",
"157 276 CURVE",
"16 229 LINE",
"32 82 OFFCURVE",
"164 -12 OFFCURVE",
"326 -12 CURVE SMOOTH"
);
}
);
width = 650;
}
);
leftKerningGroup = S;
rightKerningGroup = S;
unicode = 0053;
},
{
glyphname = T;
lastChange = "2020-02-21 18:23:37 +0000";
layers = (
{
background = {
paths = (
{
closed = 1;
nodes = (
"321 0 LINE",
"321 675 LINE",
"526 675 LINE",
"526 745 LINE",
"35 745 LINE",
"35 675 LINE",
"241 675 LINE",
"241 0 LINE"
);
}
);
};
layerId = "30C2FD74-1A74-41AC-9C29-B288AE1DBDD7";
paths = (
{
closed = 1;
nodes = (
"321 0 LINE",
"321 675 LINE",
"526 675 LINE",
"526 745 LINE",
"35 745 LINE",
"35 675 LINE",
"241 675 LINE",
"241 0 LINE"
);
}
);
width = 561;
},
{
background = {
paths = (
{
closed = 1;
nodes = (
"359 0 LINE",
"359 610 LINE",
"546 610 LINE",
"546 745 LINE",
"15 745 LINE",
"15 610 LINE",
"204 610 LINE",
"204 0 LINE"
);
}
);
};
layerId = "9398AC28-6BE1-4A79-9C94-3CBC2F226CE7";
paths = (
{
closed = 1;
nodes = (
"359 0 LINE",
"359 610 LINE",
"546 610 LINE",
"546 745 LINE",
"15 745 LINE",
"15 610 LINE",
"204 610 LINE",
"204 0 LINE"
);
}
);
width = 561;
},
{
background = {
paths = (
{
closed = 1;
nodes = (
"266 0 LINE",
"409 675 LINE",
"614 675 LINE",
"629 745 LINE",
"138 745 LINE",
"123 675 LINE",
"329 675 LINE",
"186 0 LINE"
);
}
);
};
layerId = "0E6515C6-4BDD-456A-90F7-F5B263F1D284";
paths = (
{
closed = 1;
nodes = (
"266 0 LINE",
"409 675 LINE",
"614 675 LINE",
"629 745 LINE",
"138 745 LINE",
"123 675 LINE",
"329 675 LINE",
"186 0 LINE"
);
}
);
width = 562;
},
{
background = {
paths = (
{
closed = 1;
nodes = (
"302 0 LINE",
"431 610 LINE",
"618 610 LINE",
"647 745 LINE",
"116 745 LINE",
"87 610 LINE",
"276 610 LINE",
"147 0 LINE"
);
}
);
};
layerId = "FF6420B2-C0A6-48EA-9EF6-B9F37DCCE47B";
paths = (
{
closed = 1;
nodes = (
"302 0 LINE",
"431 610 LINE",
"618 610 LINE",
"647 745 LINE",
"116 745 LINE",
"87 610 LINE",
"276 610 LINE",
"147 0 LINE"
);
}
);
width = 562;
}
);
leftKerningGroup = T;
rightKerningGroup = T;
unicode = 0054;
},
{
glyphname = U;
lastChange = "2020-02-21 18:23:37 +0000";
layers = (
{
anchors = (
{
name = bottom;
position = "{345, 0}";
},
{
name = top;
position = "{345, 745}";
}
);
background = {
anchors = (
{
name = bottom;
position = "{345, 0}";
},
{
name = top;
position = "{345, 745}";
}
);
paths = (
{
closed = 1;
nodes = (
"529 233 LINE SMOOTH",
"529 133 OFFCURVE",
"449 58 OFFCURVE",
"345 58 CURVE SMOOTH",
"240 58 OFFCURVE",
"161 132 OFFCURVE",
"161 233 CURVE SMOOTH",
"161 745 LINE",
"80 745 LINE",
"80 233 LINE SMOOTH",
"80 84 OFFCURVE",
"184 -12 OFFCURVE",
"345 -12 CURVE SMOOTH",
"506 -12 OFFCURVE",
"610 85 OFFCURVE",
"610 233 CURVE SMOOTH",
"610 745 LINE",
"529 745 LINE"
);
}
);
};
layerId = "30C2FD74-1A74-41AC-9C29-B288AE1DBDD7";
paths = (
{
closed = 1;
nodes = (
"529 233 LINE SMOOTH",
"529 133 OFFCURVE",
"449 58 OFFCURVE",
"345 58 CURVE SMOOTH",
"240 58 OFFCURVE",
"161 132 OFFCURVE",
"161 233 CURVE SMOOTH",
"161 745 LINE",
"80 745 LINE",
"80 233 LINE SMOOTH",
"80 84 OFFCURVE",
"184 -12 OFFCURVE",
"345 -12 CURVE SMOOTH",
"506 -12 OFFCURVE",
"610 85 OFFCURVE",
"610 233 CURVE SMOOTH",
"610 745 LINE",
"529 745 LINE"
);
}
);
width = 690;
},
{
anchors = (
{
name = bottom;
position = "{365, 0}";
},
{
name = top;
position = "{365, 745}";
}
);
background = {
anchors = (
{
name = bottom;
position = "{365, 0}";
},
{
name = top;
position = "{365, 745}";
}
);
paths = (
{
closed = 1;
nodes = (
"515 283 LINE SMOOTH",
"515 190 OFFCURVE",
"455 128 OFFCURVE",
"365 128 CURVE SMOOTH",
"275 128 OFFCURVE",
"215 190 OFFCURVE",
"215 283 CURVE SMOOTH",
"215 745 LINE",
"60 745 LINE",
"60 283 LINE SMOOTH",
"60 116 OFFCURVE",
"182 -12 OFFCURVE",
"365 -12 CURVE SMOOTH",
"548 -12 OFFCURVE",
"670 116 OFFCURVE",
"670 283 CURVE SMOOTH",
"670 745 LINE",
"515 745 LINE"
);
}
);
};
layerId = "9398AC28-6BE1-4A79-9C94-3CBC2F226CE7";
paths = (
{
closed = 1;
nodes = (
"515 283 LINE SMOOTH",
"515 190 OFFCURVE",
"455 128 OFFCURVE",
"365 128 CURVE SMOOTH",
"275 128 OFFCURVE",
"215 190 OFFCURVE",
"215 283 CURVE SMOOTH",
"215 745 LINE",
"60 745 LINE",
"60 283 LINE SMOOTH",
"60 116 OFFCURVE",
"182 -12 OFFCURVE",
"365 -12 CURVE SMOOTH",
"548 -12 OFFCURVE",
"670 116 OFFCURVE",
"670 283 CURVE SMOOTH",
"670 745 LINE",
"515 745 LINE"
);
}
);
width = 730;
},
{
anchors = (
{
name = bottom;
position = "{291, 0}";
},
{
name = top;
position = "{449, 745}";
}
);
background = {
anchors = (
{
name = bottom;
position = "{291, 0}";
},
{
name = top;
position = "{449, 745}";
}
);
paths = (
{
closed = 1;
nodes = (
"469 -12 OFFCURVE",
"574 71 OFFCURVE",
"602 206 CURVE SMOOTH",
"715 745 LINE",
"634 745 LINE",
"523 214 LINE SMOOTH",
"504 122 OFFCURVE",
"420 59 OFFCURVE",
"327 59 CURVE SMOOTH",
"213 59 OFFCURVE",
"139 147 OFFCURVE",
"161 253 CURVE SMOOTH",
"264 745 LINE",
"182 745 LINE",
"81 261 LINE SMOOTH",
"48 102 OFFCURVE",
"157 -12 OFFCURVE",
"330 -12 CURVE SMOOTH"
);
}
);
};
layerId = "0E6515C6-4BDD-456A-90F7-F5B263F1D284";
paths = (
{
closed = 1;
nodes = (
"469 -12 OFFCURVE",
"574 71 OFFCURVE",
"602 206 CURVE SMOOTH",
"715 745 LINE",
"634 745 LINE",
"523 214 LINE SMOOTH",
"504 122 OFFCURVE",
"420 59 OFFCURVE",
"327 59 CURVE SMOOTH",
"213 59 OFFCURVE",
"139 147 OFFCURVE",
"161 253 CURVE SMOOTH",
"264 745 LINE",
"182 745 LINE",
"81 261 LINE SMOOTH",
"48 102 OFFCURVE",
"157 -12 OFFCURVE",
"330 -12 CURVE SMOOTH"
);
}
);
width = 694;
},
{
anchors = (
{
name = bottom;
position = "{309, 0}";
},
{
name = top;
position = "{467, 745}";
}
);
background = {
anchors = (
{
name = bottom;
position = "{309, 0}";
},
{
name = top;
position = "{467, 745}";
}
);
paths = (
{
closed = 1;
nodes = (
"508 -12 OFFCURVE",
"636 97 OFFCURVE",
"669 252 CURVE SMOOTH",
"773 745 LINE",
"617 745 LINE",
"517 268 LINE SMOOTH",
"499 182 OFFCURVE",
"435 128 OFFCURVE",
"356 128 CURVE SMOOTH",
"257 128 OFFCURVE",
"201 202 OFFCURVE",
"221 299 CURVE SMOOTH",
"315 745 LINE",
"160 745 LINE",
"69 315 LINE SMOOTH",
"32 141 OFFCURVE",
"149 -12 OFFCURVE",
"346 -12 CURVE SMOOTH"
);
}
);
};
layerId = "FF6420B2-C0A6-48EA-9EF6-B9F37DCCE47B";
paths = (
{
closed = 1;
nodes = (
"508 -12 OFFCURVE",
"636 97 OFFCURVE",
"669 252 CURVE SMOOTH",
"773 745 LINE",
"617 745 LINE",
"517 268 LINE SMOOTH",
"499 182 OFFCURVE",
"435 128 OFFCURVE",
"356 128 CURVE SMOOTH",
"257 128 OFFCURVE",
"201 202 OFFCURVE",
"221 299 CURVE SMOOTH",
"315 745 LINE",
"160 745 LINE",
"69 315 LINE SMOOTH",
"32 141 OFFCURVE",
"149 -12 OFFCURVE",
"346 -12 CURVE SMOOTH"
);
}
);
width = 733;
}
);
leftKerningGroup = U;
rightKerningGroup = U;
unicode = 0055;
},
{
color = 1;
glyphname = U.ss01;
lastChange = "2020-02-21 18:23:37 +0000";
layers = (
{
anchors = (
{
name = bottom;
position = "{301, 0}";
},
{
name = top;
position = "{301, 710}";
}
);
background = {
anchors = (
{
name = bottom;
position = "{301, 0}";
},
{
name = top;
position = "{301, 710}";
}
);
paths = (
{
closed = 1;
nodes = (
"580 0 LINE",
"580 745 LINE",
"500 745 LINE",
"500 70 LINE",
"160 70 LINE",
"160 745 LINE",
"80 745 LINE",
"80 0 LINE"
);
}
);
};
layerId = "30C2FD74-1A74-41AC-9C29-B288AE1DBDD7";
paths = (
{
closed = 1;
nodes = (
"580 0 LINE",
"580 745 LINE",
"500 745 LINE",
"500 70 LINE",
"160 70 LINE",
"160 745 LINE",
"80 745 LINE",
"80 0 LINE"
);
}
);
width = 660;
},
{
anchors = (
{
name = bottom;
position = "{350, 0}";
},
{
name = top;
position = "{350, 710}";
}
);
background = {
anchors = (
{
name = bottom;
position = "{350, 0}";
},
{
name = top;
position = "{350, 710}";
}
);
paths = (
{
closed = 1;
nodes = (
"640 0 LINE",
"640 745 LINE",
"485 745 LINE",
"485 135 LINE",
"215 135 LINE",
"215 745 LINE",
"60 745 LINE",
"60 0 LINE"
);
}
);
};
layerId = "9398AC28-6BE1-4A79-9C94-3CBC2F226CE7";
paths = (
{
closed = 1;
nodes = (
"640 0 LINE",
"640 745 LINE",
"485 745 LINE",
"485 135 LINE",
"215 135 LINE",
"215 745 LINE",
"60 745 LINE",
"60 0 LINE"
);
}
);
width = 700;
},
{
anchors = (
{
name = bottom;
position = "{245, 0}";
},
{
name = top;
position = "{396, 710}";
}
);
background = {
anchors = (
{
name = bottom;
position = "{245, 0}";
},
{
name = top;
position = "{396, 710}";
}
);
paths = (
{
closed = 1;
nodes = (
"524 0 LINE",
"682 745 LINE",
"602 745 LINE",
"459 70 LINE",
"119 70 LINE",
"262 745 LINE",
"182 745 LINE",
"24 0 LINE"
);
}
);
};
layerId = "0E6515C6-4BDD-456A-90F7-F5B263F1D284";
paths = (
{
closed = 1;
nodes = (
"524 0 LINE",
"682 745 LINE",
"602 745 LINE",
"459 70 LINE",
"119 70 LINE",
"262 745 LINE",
"182 745 LINE",
"24 0 LINE"
);
}
);
width = 660;
},
{
anchors = (
{
name = bottom;
position = "{292, 0}";
},
{
name = top;
position = "{443, 710}";
}
);
background = {
anchors = (
{
name = bottom;
position = "{292, 0}";
},
{
name = top;
position = "{443, 710}";
}
);
paths = (
{
closed = 1;
nodes = (
"582 0 LINE",
"740 745 LINE",
"585 745 LINE",
"456 135 LINE",
"186 135 LINE",
"315 745 LINE",
"160 745 LINE",
"2 0 LINE"
);
}
);
};
layerId = "FF6420B2-C0A6-48EA-9EF6-B9F37DCCE47B";
paths = (
{
closed = 1;
nodes = (
"582 0 LINE",
"740 745 LINE",
"585 745 LINE",
"456 135 LINE",
"186 135 LINE",
"315 745 LINE",
"160 745 LINE",
"2 0 LINE"
);
}
);
width = 700;
}
);
leftKerningGroup = U;
leftMetricsKey = "=U";
rightKerningGroup = U;
rightMetricsKey = "=U";
},
{
glyphname = V;
lastChange = "2020-02-21 18:23:37 +0000";
layers = (
{
background = {
paths = (
{
closed = 1;
nodes = (
"384 0 LINE",
"658 745 LINE",
"574 745 LINE",
"333 69 LINE",
"351 69 LINE",
"109 745 LINE",
"25 745 LINE",
"299 0 LINE"
);
}
);
};
layerId = "30C2FD74-1A74-41AC-9C29-B288AE1DBDD7";
paths = (
{
closed = 1;
nodes = (
"384 0 LINE",
"658 745 LINE",
"574 745 LINE",
"333 69 LINE",
"351 69 LINE",
"109 745 LINE",
"25 745 LINE",
"299 0 LINE"
);
}
);
width = 683;
},
{
background = {
paths = (
{
closed = 1;
nodes = (
"461 0 LINE",
"695 745 LINE",
"521 745 LINE",
"329 97 LINE",
"371 97 LINE",
"179 745 LINE",
"5 745 LINE",
"239 0 LINE"
);
}
);
};
layerId = "9398AC28-6BE1-4A79-9C94-3CBC2F226CE7";
paths = (
{
closed = 1;
nodes = (
"461 0 LINE",
"695 745 LINE",
"521 745 LINE",
"329 97 LINE",
"371 97 LINE",
"179 745 LINE",
"5 745 LINE",
"239 0 LINE"
);
}
);
width = 700;
},
{
background = {
paths = (
{
closed = 1;
nodes = (
"354 0 LINE",
"760 745 LINE",
"670 745 LINE",
"309 69 LINE",
"333 69 LINE",
"211 745 LINE",
"127 745 LINE",
"269 0 LINE"
);
}
);
};
layerId = "0E6515C6-4BDD-456A-90F7-F5B263F1D284";
paths = (
{
closed = 1;
nodes = (
"354 0 LINE",
"760 745 LINE",
"670 745 LINE",
"309 69 LINE",
"333 69 LINE",
"211 745 LINE",
"127 745 LINE",
"269 0 LINE"
);
}
);
width = 683;
},
{
background = {
paths = (
{
closed = 1;
nodes = (
"429 0 LINE",
"795 745 LINE",
"611 745 LINE",
"304 97 LINE",
"356 97 LINE",
"279 745 LINE",
"105 745 LINE",
"207 0 LINE"
);
}
);
};
layerId = "FF6420B2-C0A6-48EA-9EF6-B9F37DCCE47B";
paths = (
{
closed = 1;
nodes = (
"429 0 LINE",
"795 745 LINE",
"611 745 LINE",
"304 97 LINE",
"356 97 LINE",
"279 745 LINE",
"105 745 LINE",
"207 0 LINE"
);
}
);
width = 700;
}
);
unicode = 0056;
},
{
glyphname = W;
lastChange = "2020-02-21 18:23:37 +0000";
layers = (
{
background = {
paths = (
{
closed = 1;
nodes = (
"334 0 LINE",
"523 670 LINE",
"509 670 LINE",
"698 0 LINE",
"783 0 LINE",
"997 745 LINE",
"916 745 LINE",
"730 78 LINE",
"747 78 LINE",
"564 745 LINE",
"468 745 LINE",
"285 78 LINE",
"301 78 LINE",
"116 745 LINE",
"35 745 LINE",
"249 0 LINE"
);
}
);
};
layerId = "30C2FD74-1A74-41AC-9C29-B288AE1DBDD7";
paths = (
{
closed = 1;
nodes = (
"334 0 LINE",
"523 670 LINE",
"509 670 LINE",
"698 0 LINE",
"783 0 LINE",
"997 745 LINE",
"916 745 LINE",
"730 78 LINE",
"747 78 LINE",
"564 745 LINE",
"468 745 LINE",
"285 78 LINE",
"301 78 LINE",
"116 745 LINE",
"35 745 LINE",
"249 0 LINE"
);
}
);
width = 1032;
},
{
background = {
paths = (
{
closed = 1;
nodes = (
"401 0 LINE",
"536 600 LINE",
"504 600 LINE",
"639 0 LINE",
"841 0 LINE",
"1025 745 LINE",
"866 745 LINE",
"719 121 LINE",
"757 121 LINE",
"619 745 LINE",
"431 745 LINE",
"293 121 LINE",
"331 121 LINE",
"184 745 LINE",
"15 745 LINE",
"199 0 LINE"
);
}
);
};
layerId = "9398AC28-6BE1-4A79-9C94-3CBC2F226CE7";
paths = (
{
closed = 1;
nodes = (
"401 0 LINE",
"536 600 LINE",
"504 600 LINE",
"639 0 LINE",
"841 0 LINE",
"1025 745 LINE",
"866 745 LINE",
"719 121 LINE",
"757 121 LINE",
"619 745 LINE",
"431 745 LINE",
"293 121 LINE",
"331 121 LINE",
"184 745 LINE",
"15 745 LINE",
"199 0 LINE"
);
}
);
width = 1040;
},
{
background = {
paths = (
{
closed = 1;
nodes = (
"304 0 LINE",
"611 670 LINE",
"597 670 LINE",
"668 0 LINE",
"753 0 LINE",
"1099 745 LINE",
"1012 745 LINE",
"708 78 LINE",
"731 78 LINE",
"666 745 LINE",
"564 745 LINE",
"263 78 LINE",
"285 78 LINE",
"218 745 LINE",
"137 745 LINE",
"219 0 LINE"
);
}
);
};
layerId = "0E6515C6-4BDD-456A-90F7-F5B263F1D284";
paths = (
{
closed = 1;
nodes = (
"304 0 LINE",
"611 670 LINE",
"597 670 LINE",
"668 0 LINE",
"753 0 LINE",
"1099 745 LINE",
"1012 745 LINE",
"708 78 LINE",
"731 78 LINE",
"666 745 LINE",
"564 745 LINE",
"263 78 LINE",
"285 78 LINE",
"218 745 LINE",
"137 745 LINE",
"219 0 LINE"
);
}
);
width = 1032;
},
{
background = {
paths = (
{
closed = 1;
nodes = (
"369 0 LINE",
"610 600 LINE",
"578 600 LINE",
"607 0 LINE",
"809 0 LINE",
"1125 745 LINE",
"956 745 LINE",
"699 121 LINE",
"747 121 LINE",
"719 745 LINE",
"521 745 LINE",
"273 121 LINE",
"321 121 LINE",
"284 745 LINE",
"115 745 LINE",
"167 0 LINE"
);
}
);
};
layerId = "FF6420B2-C0A6-48EA-9EF6-B9F37DCCE47B";
paths = (
{
closed = 1;
nodes = (
"369 0 LINE",
"610 600 LINE",
"578 600 LINE",
"607 0 LINE",
"809 0 LINE",
"1125 745 LINE",
"956 745 LINE",
"699 121 LINE",
"747 121 LINE",
"719 745 LINE",
"521 745 LINE",
"273 121 LINE",
"321 121 LINE",
"284 745 LINE",
"115 745 LINE",
"167 0 LINE"
);
}
);
width = 1040;
}
);
leftKerningGroup = W;
rightKerningGroup = W;
unicode = 0057;
},
{
glyphname = X;
lastChange = "2020-02-21 18:23:37 +0000";
layers = (
{
background = {
paths = (
{
closed = 1;
nodes = (
"122 0 LINE",
"328 332 LINE",
"300 332 LINE",
"504 0 LINE",
"592 0 LINE",
"357 380 LINE",
"584 745 LINE",
"495 745 LINE",
"300 427 LINE",
"328 427 LINE",
"132 745 LINE",
"43 745 LINE",
"269 380 LINE",
"35 0 LINE"
);
}
);
};
layerId = "30C2FD74-1A74-41AC-9C29-B288AE1DBDD7";
paths = (
{
closed = 1;
nodes = (
"122 0 LINE",
"328 332 LINE",
"300 332 LINE",
"504 0 LINE",
"592 0 LINE",
"357 380 LINE",
"584 745 LINE",
"495 745 LINE",
"300 427 LINE",
"328 427 LINE",
"132 745 LINE",
"43 745 LINE",
"269 380 LINE",
"35 0 LINE"
);
}
);
width = 627;
},
{
background = {
paths = (
{
closed = 1;
nodes = (
"189 0 LINE",
"380 298 LINE",
"302 298 LINE",
"492 0 LINE",
"666 0 LINE",
"428 373 LINE",
"666 745 LINE",
"492 745 LINE",
"302 447 LINE",
"380 447 LINE",
"189 745 LINE",
"15 745 LINE",
"254 373 LINE",
"15 0 LINE"
);
}
);
};
layerId = "9398AC28-6BE1-4A79-9C94-3CBC2F226CE7";
paths = (
{
closed = 1;
nodes = (
"189 0 LINE",
"380 298 LINE",
"302 298 LINE",
"492 0 LINE",
"666 0 LINE",
"428 373 LINE",
"666 745 LINE",
"492 745 LINE",
"302 447 LINE",
"380 447 LINE",
"189 745 LINE",
"15 745 LINE",
"254 373 LINE",
"15 0 LINE"
);
}
);
width = 681;
},
{
background = {
paths = (
{
closed = 1;
nodes = (
"88 0 LINE",
"353 332 LINE",
"321 332 LINE",
"466 0 LINE",
"554 0 LINE",
"386 380 LINE",
"678 745 LINE",
"585 745 LINE",
"334 427 LINE",
"366 427 LINE",
"226 745 LINE",
"137 745 LINE",
"298 380 LINE",
"-3 0 LINE"
);
}
);
};
layerId = "0E6515C6-4BDD-456A-90F7-F5B263F1D284";
paths = (
{
closed = 1;
nodes = (
"88 0 LINE",
"353 332 LINE",
"321 332 LINE",
"466 0 LINE",
"554 0 LINE",
"386 380 LINE",
"678 745 LINE",
"585 745 LINE",
"334 427 LINE",
"366 427 LINE",
"226 745 LINE",
"137 745 LINE",
"298 380 LINE",
"-3 0 LINE"
);
}
);
width = 645;
},
{
background = {
paths = (
{
closed = 1;
nodes = (
"167 0 LINE",
"411 298 LINE",
"323 298 LINE",
"460 0 LINE",
"634 0 LINE",
"462 373 LINE",
"766 745 LINE",
"582 745 LINE",
"339 447 LINE",
"427 447 LINE",
"289 745 LINE",
"115 745 LINE",
"288 373 LINE",
"-17 0 LINE"
);
}
);
};
layerId = "FF6420B2-C0A6-48EA-9EF6-B9F37DCCE47B";
paths = (
{
closed = 1;
nodes = (
"167 0 LINE",
"411 298 LINE",
"323 298 LINE",
"460 0 LINE",
"634 0 LINE",
"462 373 LINE",
"766 745 LINE",
"582 745 LINE",
"339 447 LINE",
"427 447 LINE",
"289 745 LINE",
"115 745 LINE",
"288 373 LINE",
"-17 0 LINE"
);
}
);
width = 707;
}
);
unicode = 0058;
},
{
glyphname = Y;
lastChange = "2020-02-21 18:23:37 +0000";
layers = (
{
anchors = (
{
name = bottom;
position = "{326, 0}";
},
{
name = top;
position = "{326, 745}";
},
{
name = topleft;
position = "{20, 745}";
}
);
background = {
anchors = (
{
name = bottom;
position = "{326, 0}";
},
{
name = top;
position = "{326, 745}";
},
{
name = topleft;
position = "{20, 745}";
}
);
paths = (
{
closed = 1;
nodes = (
"366 0 LINE",
"366 346 LINE",
"626 745 LINE",
"538 745 LINE",
"311 397 LINE",
"341 397 LINE",
"113 745 LINE",
"25 745 LINE",
"286 346 LINE",
"286 0 LINE"
);
}
);
};
layerId = "30C2FD74-1A74-41AC-9C29-B288AE1DBDD7";
paths = (
{
closed = 1;
nodes = (
"366 0 LINE",
"366 346 LINE",
"626 745 LINE",
"538 745 LINE",
"311 397 LINE",
"341 397 LINE",
"113 745 LINE",
"25 745 LINE",
"286 346 LINE",
"286 0 LINE"
);
}
);
width = 651;
},
{
anchors = (
{
name = bottom;
position = "{331, 0}";
},
{
name = top;
position = "{331, 745}";
},
{
name = topleft;
position = "{20, 745}";
}
);
background = {
anchors = (
{
name = bottom;
position = "{331, 0}";
},
{
name = top;
position = "{331, 745}";
},
{
name = topleft;
position = "{20, 745}";
}
);
paths = (
{
closed = 1;
nodes = (
"409 0 LINE",
"409 326 LINE",
"656 745 LINE",
"482 745 LINE",
"302 429 LINE",
"360 429 LINE",
"179 745 LINE",
"5 745 LINE",
"254 325 LINE",
"254 0 LINE"
);
}
);
};
layerId = "9398AC28-6BE1-4A79-9C94-3CBC2F226CE7";
paths = (
{
closed = 1;
nodes = (
"409 0 LINE",
"409 326 LINE",
"656 745 LINE",
"482 745 LINE",
"302 429 LINE",
"360 429 LINE",
"179 745 LINE",
"5 745 LINE",
"254 325 LINE",
"254 0 LINE"
);
}
);
width = 661;
},
{
anchors = (
{
name = bottom;
position = "{270, 0}";
},
{
name = top;
position = "{428, 745}";
},
{
name = topleft;
position = "{122, 745}";
}
);
background = {
anchors = (
{
name = bottom;
position = "{270, 0}";
},
{
name = top;
position = "{428, 745}";
},
{
name = topleft;
position = "{122, 745}";
}
);
paths = (
{
closed = 1;
nodes = (
"310 0 LINE",
"383 346 LINE",
"728 745 LINE",
"632 745 LINE",
"331 397 LINE",
"369 397 LINE",
"215 745 LINE",
"127 745 LINE",
"303 346 LINE",
"230 0 LINE"
);
}
);
};
layerId = "0E6515C6-4BDD-456A-90F7-F5B263F1D284";
paths = (
{
closed = 1;
nodes = (
"310 0 LINE",
"383 346 LINE",
"728 745 LINE",
"632 745 LINE",
"331 397 LINE",
"369 397 LINE",
"215 745 LINE",
"127 745 LINE",
"303 346 LINE",
"230 0 LINE"
);
}
);
width = 651;
},
{
anchors = (
{
name = bottom;
position = "{273, 0}";
},
{
name = top;
position = "{431, 745}";
},
{
name = topleft;
position = "{120, 745}";
}
);
background = {
anchors = (
{
name = bottom;
position = "{273, 0}";
},
{
name = top;
position = "{431, 745}";
},
{
name = topleft;
position = "{120, 745}";
}
);
paths = (
{
closed = 1;
nodes = (
"351 0 LINE",
"420 326 LINE",
"756 745 LINE",
"574 745 LINE",
"327 429 LINE",
"393 429 LINE",
"279 745 LINE",
"105 745 LINE",
"265 325 LINE",
"196 0 LINE"
);
}
);
};
layerId = "FF6420B2-C0A6-48EA-9EF6-B9F37DCCE47B";
paths = (
{
closed = 1;
nodes = (
"351 0 LINE",
"420 326 LINE",
"756 745 LINE",
"574 745 LINE",
"327 429 LINE",
"393 429 LINE",
"279 745 LINE",
"105 745 LINE",
"265 325 LINE",
"196 0 LINE"
);
}
);
width = 661;
}
);
leftKerningGroup = Y;
rightKerningGroup = Y;
unicode = 0059;
},
{
glyphname = Z;
lastChange = "2020-02-21 18:23:37 +0000";
layers = (
{
anchors = (
{
name = bottom;
position = "{299, 0}";
},
{
name = center;
position = "{299, 373}";
},
{
name = top;
position = "{306, 710}";
}
);
background = {
anchors = (
{
name = bottom;
position = "{299, 0}";
},
{
name = center;
position = "{299, 373}";
},
{
name = top;
position = "{306, 710}";
}
);
paths = (
{
closed = 1;
nodes = (
"559 696 LINE",
"559 745 LINE",
"55 745 LINE",
"55 675 LINE",
"457 675 LINE",
"30 49 LINE",
"30 0 LINE",
"568 0 LINE",
"568 70 LINE",
"132 70 LINE"
);
}
);
};
layerId = "30C2FD74-1A74-41AC-9C29-B288AE1DBDD7";
paths = (
{
closed = 1;
nodes = (
"559 696 LINE",
"559 745 LINE",
"55 745 LINE",
"55 675 LINE",
"457 675 LINE",
"30 49 LINE",
"30 0 LINE",
"568 0 LINE",
"568 70 LINE",
"132 70 LINE"
);
}
);
width = 598;
},
{
anchors = (
{
name = bottom;
position = "{283, 0}";
},
{
name = center;
position = "{283, 373}";
},
{
name = top;
position = "{283, 745}";
}
);
background = {
anchors = (
{
name = bottom;
position = "{283, 0}";
},
{
name = center;
position = "{283, 373}";
},
{
name = top;
position = "{283, 745}";
}
);
paths = (
{
closed = 1;
nodes = (
"545 620 LINE",
"545 745 LINE",
"30 745 LINE",
"30 610 LINE",
"360 610 LINE",
"10 125 LINE",
"10 0 LINE",
"555 0 LINE",
"555 135 LINE",
"195 135 LINE"
);
}
);
};
layerId = "9398AC28-6BE1-4A79-9C94-3CBC2F226CE7";
paths = (
{
closed = 1;
nodes = (
"545 620 LINE",
"545 745 LINE",
"30 745 LINE",
"30 610 LINE",
"360 610 LINE",
"10 125 LINE",
"10 0 LINE",
"555 0 LINE",
"555 135 LINE",
"195 135 LINE"
);
}
);
width = 565;
},
{
anchors = (
{
name = bottom;
position = "{244, 0}";
},
{
name = center;
position = "{323, 373}";
},
{
name = top;
position = "{402, 745}";
}
);
background = {
anchors = (
{
name = bottom;
position = "{244, 0}";
},
{
name = center;
position = "{323, 373}";
},
{
name = top;
position = "{402, 745}";
}
);
paths = (
{
closed = 1;
nodes = (
"628 696 LINE",
"637 745 LINE",
"135 745 LINE",
"120 675 LINE",
"514 675 LINE",
"-15 49 LINE",
"-24 0 LINE",
"512 0 LINE",
"527 70 LINE",
"99 70 LINE"
);
}
);
};
layerId = "0E6515C6-4BDD-456A-90F7-F5B263F1D284";
paths = (
{
closed = 1;
nodes = (
"628 696 LINE",
"637 745 LINE",
"135 745 LINE",
"120 675 LINE",
"514 675 LINE",
"-15 49 LINE",
"-24 0 LINE",
"512 0 LINE",
"527 70 LINE",
"99 70 LINE"
);
}
);
width = 598;
},
{
anchors = (
{
name = bottom;
position = "{224.822, 0}";
},
{
name = center;
position = "{304.106, 373}";
},
{
name = top;
position = "{383.177, 745}";
}
);
background = {
anchors = (
{
name = bottom;
position = "{224.822, 0}";
},
{
name = center;
position = "{304.106, 373}";
},
{
name = top;
position = "{383.177, 745}";
}
);
paths = (
{
closed = 1;
nodes = (
"602 620 LINE",
"624 745 LINE",
"115 745 LINE",
"85 610 LINE",
"412 610 LINE",
"-21 125 LINE",
"-43 0 LINE",
"496 0 LINE",
"526 135 LINE",
"169 135 LINE"
);
}
);
};
layerId = "FF6420B2-C0A6-48EA-9EF6-B9F37DCCE47B";
paths = (
{
closed = 1;
nodes = (
"602 620 LINE",
"624 745 LINE",
"115 745 LINE",
"85 610 LINE",
"412 610 LINE",
"-21 125 LINE",
"-43 0 LINE",
"496 0 LINE",
"526 135 LINE",
"169 135 LINE"
);
}
);
width = 565;
}
);
leftKerningGroup = Z;
rightKerningGroup = Z;
unicode = 005A;
},
{
glyphname = a;
lastChange = "2020-02-21 18:23:50 +0000";
layers = (
{
anchors = (
{
name = bottom;
position = "{258, 0}";
},
{
name = ogonek;
position = "{463, 10}";
},
{
name = top;
position = "{258, 526}";
}
);
background = {
anchors = (
{
name = bottom;
position = "{258, 0}";
},
{
name = ogonek;
position = "{463, 10}";
},
{
name = top;
position = "{258, 526}";
}
);
paths = (
{
closed = 1;
nodes = (
"301 -12 OFFCURVE",
"376 33 OFFCURVE",
"404 96 CURVE",
"396 108 LINE",
"396 0 LINE",
"466 0 LINE",
"466 359 LINE SMOOTH",
"466 464 OFFCURVE",
"384 538 OFFCURVE",
"267 538 CURVE SMOOTH",
"174 538 OFFCURVE",
"90 483 OFFCURVE",
"60 415 CURVE",
"124 381 LINE",
"149 433 OFFCURVE",
"200 468 OFFCURVE",
"267 468 CURVE SMOOTH",
"342 468 OFFCURVE",
"396 425 OFFCURVE",
"396 359 CURVE SMOOTH",
"396 233 LINE SMOOTH",
"396 132 OFFCURVE",
"325 57 OFFCURVE",
"226 57 CURVE SMOOTH",
"158 57 OFFCURVE",
"115 92 OFFCURVE",
"115 146 CURVE SMOOTH",
"115 193 OFFCURVE",
"160 230 OFFCURVE",
"227 245 CURVE SMOOTH",
"411 287 LINE",
"411 348 LINE",
"209 302 LINE SMOOTH",
"103 278 OFFCURVE",
"40 224 OFFCURVE",
"40 147 CURVE SMOOTH",
"40 53 OFFCURVE",
"115 -12 OFFCURVE",
"226 -12 CURVE SMOOTH"
);
}
);
};
layerId = "30C2FD74-1A74-41AC-9C29-B288AE1DBDD7";
paths = (
{
closed = 1;
nodes = (
"301 -12 OFFCURVE",
"376 33 OFFCURVE",
"404 96 CURVE",
"396 108 LINE",
"396 0 LINE",
"466 0 LINE",
"466 359 LINE SMOOTH",
"466 464 OFFCURVE",
"384 538 OFFCURVE",
"267 538 CURVE SMOOTH",
"174 538 OFFCURVE",
"90 483 OFFCURVE",
"60 415 CURVE",
"124 381 LINE",
"149 433 OFFCURVE",
"200 468 OFFCURVE",
"267 468 CURVE SMOOTH",
"342 468 OFFCURVE",
"396 425 OFFCURVE",
"396 359 CURVE SMOOTH",
"396 233 LINE SMOOTH",
"396 132 OFFCURVE",
"325 57 OFFCURVE",
"226 57 CURVE SMOOTH",
"158 57 OFFCURVE",
"115 92 OFFCURVE",
"115 146 CURVE SMOOTH",
"115 193 OFFCURVE",
"160 230 OFFCURVE",
"227 245 CURVE SMOOTH",
"411 287 LINE",
"411 348 LINE",
"209 302 LINE SMOOTH",
"103 278 OFFCURVE",
"40 224 OFFCURVE",
"40 147 CURVE SMOOTH",
"40 53 OFFCURVE",
"115 -12 OFFCURVE",
"226 -12 CURVE SMOOTH"
);
}
);
width = 516;
},
{
anchors = (
{
name = bottom;
position = "{273, 0}";
},
{
name = ogonek;
position = "{492, 10}";
},
{
name = top;
position = "{283, 546}";
}
);
background = {
anchors = (
{
name = bottom;
position = "{273, 0}";
},
{
name = ogonek;
position = "{492, 10}";
},
{
name = top;
position = "{283, 546}";
}
);
paths = (
{
closed = 1;
nodes = (
"304 -12 OFFCURVE",
"363 19 OFFCURVE",
"410 94 CURVE",
"376 88 LINE",
"376 0 LINE",
"516 0 LINE",
"516 360 LINE SMOOTH",
"516 477 OFFCURVE",
"421 558 OFFCURVE",
"282 558 CURVE SMOOTH",
"166 558 OFFCURVE",
"72 500 OFFCURVE",
"40 410 CURVE",
"169 348 LINE",
"185 397 OFFCURVE",
"229 428 OFFCURVE",
"282 428 CURVE SMOOTH",
"332 428 OFFCURVE",
"366 401 OFFCURVE",
"366 360 CURVE SMOOTH",
"366 208 LINE SMOOTH",
"366 147 OFFCURVE",
"313 98 OFFCURVE",
"245 98 CURVE SMOOTH",
"202 98 OFFCURVE",
"175 118 OFFCURVE",
"175 151 CURVE SMOOTH",
"175 176 OFFCURVE",
"191 195 OFFCURVE",
"222 202 CURVE SMOOTH",
"382 238 LINE",
"382 345 LINE",
"195 306 LINE SMOOTH",
"84 283 OFFCURVE",
"20 230 OFFCURVE",
"20 149 CURVE SMOOTH",
"20 58 OFFCURVE",
"98 -12 OFFCURVE",
"222 -12 CURVE SMOOTH"
);
}
);
};
layerId = "9398AC28-6BE1-4A79-9C94-3CBC2F226CE7";
paths = (
{
closed = 1;
nodes = (
"304 -12 OFFCURVE",
"363 19 OFFCURVE",
"410 94 CURVE",
"376 88 LINE",
"376 0 LINE",
"516 0 LINE",
"516 360 LINE SMOOTH",
"516 477 OFFCURVE",
"421 558 OFFCURVE",
"282 558 CURVE SMOOTH",
"166 558 OFFCURVE",
"72 500 OFFCURVE",
"40 410 CURVE",
"169 348 LINE",
"185 397 OFFCURVE",
"229 428 OFFCURVE",
"282 428 CURVE SMOOTH",
"332 428 OFFCURVE",
"366 401 OFFCURVE",
"366 360 CURVE SMOOTH",
"366 208 LINE SMOOTH",
"366 147 OFFCURVE",
"313 98 OFFCURVE",
"245 98 CURVE SMOOTH",
"202 98 OFFCURVE",
"175 118 OFFCURVE",
"175 151 CURVE SMOOTH",
"175 176 OFFCURVE",
"191 195 OFFCURVE",
"222 202 CURVE SMOOTH",
"382 238 LINE",
"382 345 LINE",
"195 306 LINE SMOOTH",
"84 283 OFFCURVE",
"20 230 OFFCURVE",
"20 149 CURVE SMOOTH",
"20 58 OFFCURVE",
"98 -12 OFFCURVE",
"222 -12 CURVE SMOOTH"
);
}
);
width = 546;
},
{
anchors = (
{
name = bottom;
position = "{205, 0}";
},
{
name = ogonek;
position = "{413, 10}";
},
{
name = top;
position = "{316, 526}";
}
);
background = {
anchors = (
{
name = bottom;
position = "{205, 0}";
},
{
name = ogonek;
position = "{413, 10}";
},
{
name = top;
position = "{316, 526}";
}
);
paths = (
{
closed = 1;
nodes = (
"257 -12 OFFCURVE",
"328 18 OFFCURVE",
"367 77 CURVE",
"363 91 LINE",
"344 0 LINE",
"414 0 LINE",
"484 332 LINE SMOOTH",
"509 450 OFFCURVE",
"427 538 OFFCURVE",
"301 538 CURVE SMOOTH",
"218 538 OFFCURVE",
"136 495 OFFCURVE",
"95 436 CURVE",
"152 395 LINE",
"183 438 OFFCURVE",
"233 468 OFFCURVE",
"292 468 CURVE SMOOTH",
"371 468 OFFCURVE",
"432 419 OFFCURVE",
"415 339 CURVE SMOOTH",
"389 214 LINE SMOOTH",
"369 119 OFFCURVE",
"294 56 OFFCURVE",
"200 56 CURVE SMOOTH",
"133 56 OFFCURVE",
"92 88 OFFCURVE",
"92 138 CURVE SMOOTH",
"92 195 OFFCURVE",
"145 236 OFFCURVE",
"224 245 CURVE SMOOTH",
"414 267 LINE",
"427 328 LINE",
"219 302 LINE SMOOTH",
"59 282 OFFCURVE",
"16 201 OFFCURVE",
"16 132 CURVE SMOOTH",
"16 38 OFFCURVE",
"100 -12 OFFCURVE",
"187 -12 CURVE SMOOTH"
);
}
);
};
layerId = "0E6515C6-4BDD-456A-90F7-F5B263F1D284";
paths = (
{
closed = 1;
nodes = (
"257 -12 OFFCURVE",
"328 18 OFFCURVE",
"367 77 CURVE",
"363 91 LINE",
"344 0 LINE",
"414 0 LINE",
"484 332 LINE SMOOTH",
"509 450 OFFCURVE",
"427 538 OFFCURVE",
"301 538 CURVE SMOOTH",
"218 538 OFFCURVE",
"136 495 OFFCURVE",
"95 436 CURVE",
"152 395 LINE",
"183 438 OFFCURVE",
"233 468 OFFCURVE",
"292 468 CURVE SMOOTH",
"371 468 OFFCURVE",
"432 419 OFFCURVE",
"415 339 CURVE SMOOTH",
"389 214 LINE SMOOTH",
"369 119 OFFCURVE",
"294 56 OFFCURVE",
"200 56 CURVE SMOOTH",
"133 56 OFFCURVE",
"92 88 OFFCURVE",
"92 138 CURVE SMOOTH",
"92 195 OFFCURVE",
"145 236 OFFCURVE",
"224 245 CURVE SMOOTH",
"414 267 LINE",
"427 328 LINE",
"219 302 LINE SMOOTH",
"59 282 OFFCURVE",
"16 201 OFFCURVE",
"16 132 CURVE SMOOTH",
"16 38 OFFCURVE",
"100 -12 OFFCURVE",
"187 -12 CURVE SMOOTH"
);
}
);
width = 520;
},
{
anchors = (
{
name = bottom;
position = "{218, 0}";
},
{
name = ogonek;
position = "{440, 10}";
},
{
name = top;
position = "{324, 546}";
}
);
background = {
anchors = (
{
name = bottom;
position = "{218, 0}";
},
{
name = ogonek;
position = "{440, 10}";
},
{
name = top;
position = "{324, 546}";
}
);
paths = (
{
closed = 1;
nodes = (
"266 -12 OFFCURVE",
"318 12 OFFCURVE",
"372 75 CURVE",
"337 73 LINE",
"322 0 LINE",
"462 0 LINE",
"531 328 LINE SMOOTH",
"559 461 OFFCURVE",
"461 558 OFFCURVE",
"308 558 CURVE SMOOTH",
"204 558 OFFCURVE",
"122 514 OFFCURVE",
"75 435 CURVE",
"189 360 LINE",
"212 402 OFFCURVE",
"255 428 OFFCURVE",
"303 428 CURVE SMOOTH",
"360 428 OFFCURVE",
"394 393 OFFCURVE",
"384 344 CURVE SMOOTH",
"353 193 LINE SMOOTH",
"342 138 OFFCURVE",
"286 95 OFFCURVE",
"225 95 CURVE SMOOTH",
"180 95 OFFCURVE",
"152 117 OFFCURVE",
"152 152 CURVE SMOOTH",
"152 181 OFFCURVE",
"172 207 OFFCURVE",
"210 212 CURVE SMOOTH",
"374 232 LINE",
"397 338 LINE",
"186 316 LINE SMOOTH",
"53 302 OFFCURVE",
"-3 229 OFFCURVE",
"-3 146 CURVE SMOOTH",
"-3 47 OFFCURVE",
"78 -12 OFFCURVE",
"193 -12 CURVE SMOOTH"
);
}
);
};
layerId = "FF6420B2-C0A6-48EA-9EF6-B9F37DCCE47B";
paths = (
{
closed = 1;
nodes = (
"266 -12 OFFCURVE",
"318 12 OFFCURVE",
"372 75 CURVE",
"337 73 LINE",
"322 0 LINE",
"462 0 LINE",
"531 328 LINE SMOOTH",
"559 461 OFFCURVE",
"461 558 OFFCURVE",
"308 558 CURVE SMOOTH",
"204 558 OFFCURVE",
"122 514 OFFCURVE",
"75 435 CURVE",
"189 360 LINE",
"212 402 OFFCURVE",
"255 428 OFFCURVE",
"303 428 CURVE SMOOTH",
"360 428 OFFCURVE",
"394 393 OFFCURVE",
"384 344 CURVE SMOOTH",
"353 193 LINE SMOOTH",
"342 138 OFFCURVE",
"286 95 OFFCURVE",
"225 95 CURVE SMOOTH",
"180 95 OFFCURVE",
"152 117 OFFCURVE",
"152 152 CURVE SMOOTH",
"152 181 OFFCURVE",
"172 207 OFFCURVE",
"210 212 CURVE SMOOTH",
"374 232 LINE",
"397 338 LINE",
"186 316 LINE SMOOTH",
"53 302 OFFCURVE",
"-3 229 OFFCURVE",
"-3 146 CURVE SMOOTH",
"-3 47 OFFCURVE",
"78 -12 OFFCURVE",
"193 -12 CURVE SMOOTH"
);
}
);
width = 550;
}
);
leftKerningGroup = a;
rightKerningGroup = a;
rightMetricsKey = "=n-10";
unicode = 0061;
},
{
color = 1;
glyphname = a.ss01;
lastChange = "2020-02-21 18:23:50 +0000";
layers = (
{
background = {
paths = (
{
closed = 1;
nodes = (
"301 -12 OFFCURVE",
"376 33 OFFCURVE",
"404 96 CURVE",
"396 108 LINE",
"396 0 LINE",
"466 0 LINE",
"466 526 LINE",
"89 526 LINE",
"89 456 LINE",
"396 456 LINE",
"396 233 LINE SMOOTH",
"396 132 OFFCURVE",
"325 57 OFFCURVE",
"226 57 CURVE SMOOTH",
"158 57 OFFCURVE",
"115 92 OFFCURVE",
"115 146 CURVE SMOOTH",
"115 193 OFFCURVE",
"160 230 OFFCURVE",
"227 245 CURVE SMOOTH",
"411 287 LINE",
"411 348 LINE",
"209 302 LINE SMOOTH",
"103 278 OFFCURVE",
"40 224 OFFCURVE",
"40 147 CURVE SMOOTH",
"40 53 OFFCURVE",
"115 -12 OFFCURVE",
"226 -12 CURVE SMOOTH"
);
}
);
};
layerId = "30C2FD74-1A74-41AC-9C29-B288AE1DBDD7";
paths = (
{
closed = 1;
nodes = (
"301 -12 OFFCURVE",
"376 33 OFFCURVE",
"404 96 CURVE",
"396 108 LINE",
"396 0 LINE",
"466 0 LINE",
"466 526 LINE",
"89 526 LINE",
"89 456 LINE",
"396 456 LINE",
"396 233 LINE SMOOTH",
"396 132 OFFCURVE",
"325 57 OFFCURVE",
"226 57 CURVE SMOOTH",
"158 57 OFFCURVE",
"115 92 OFFCURVE",
"115 146 CURVE SMOOTH",
"115 193 OFFCURVE",
"160 230 OFFCURVE",
"227 245 CURVE SMOOTH",
"411 287 LINE",
"411 348 LINE",
"209 302 LINE SMOOTH",
"103 278 OFFCURVE",
"40 224 OFFCURVE",
"40 147 CURVE SMOOTH",
"40 53 OFFCURVE",
"115 -12 OFFCURVE",
"226 -12 CURVE SMOOTH"
);
}
);
width = 536;
},
{
background = {
paths = (
{
closed = 1;
nodes = (
"304 -12 OFFCURVE",
"363 19 OFFCURVE",
"410 94 CURVE",
"376 88 LINE",
"376 0 LINE",
"516 0 LINE",
"516 546 LINE",
"90 546 LINE",
"90 416 LINE",
"366 416 LINE",
"366 208 LINE SMOOTH",
"366 147 OFFCURVE",
"313 98 OFFCURVE",
"245 98 CURVE SMOOTH",
"202 98 OFFCURVE",
"175 118 OFFCURVE",
"175 151 CURVE SMOOTH",
"175 176 OFFCURVE",
"191 195 OFFCURVE",
"222 202 CURVE SMOOTH",
"382 238 LINE",
"382 345 LINE",
"195 306 LINE SMOOTH",
"84 283 OFFCURVE",
"20 230 OFFCURVE",
"20 149 CURVE SMOOTH",
"20 58 OFFCURVE",
"98 -12 OFFCURVE",
"222 -12 CURVE SMOOTH"
);
}
);
};
layerId = "9398AC28-6BE1-4A79-9C94-3CBC2F226CE7";
paths = (
{
closed = 1;
nodes = (
"304 -12 OFFCURVE",
"363 19 OFFCURVE",
"410 94 CURVE",
"376 88 LINE",
"376 0 LINE",
"516 0 LINE",
"516 546 LINE",
"90 546 LINE",
"90 416 LINE",
"366 416 LINE",
"366 208 LINE SMOOTH",
"366 147 OFFCURVE",
"313 98 OFFCURVE",
"245 98 CURVE SMOOTH",
"202 98 OFFCURVE",
"175 118 OFFCURVE",
"175 151 CURVE SMOOTH",
"175 176 OFFCURVE",
"191 195 OFFCURVE",
"222 202 CURVE SMOOTH",
"382 238 LINE",
"382 345 LINE",
"195 306 LINE SMOOTH",
"84 283 OFFCURVE",
"20 230 OFFCURVE",
"20 149 CURVE SMOOTH",
"20 58 OFFCURVE",
"98 -12 OFFCURVE",
"222 -12 CURVE SMOOTH"
);
}
);
width = 566;
},
{
background = {
paths = (
{
closed = 1;
nodes = (
"257 -12 OFFCURVE",
"326 27 OFFCURVE",
"361 81 CURVE",
"355 93 LINE",
"336 0 LINE",
"407 0 LINE",
"515 526 LINE",
"137 526 LINE",
"122 456 LINE",
"430 456 LINE",
"382 218 LINE",
"361 123 OFFCURVE",
"291 57 OFFCURVE",
"200 57 CURVE SMOOTH",
"137 57 OFFCURVE",
"93 89 OFFCURVE",
"93 143 CURVE SMOOTH",
"93 199 OFFCURVE",
"141 238 OFFCURVE",
"222 248 CURVE SMOOTH",
"407 271 LINE",
"420 331 LINE",
"216 306 LINE SMOOTH",
"102 292 OFFCURVE",
"17 237 OFFCURVE",
"17 139 CURVE SMOOTH",
"17 44 OFFCURVE",
"96 -12 OFFCURVE",
"184 -12 CURVE SMOOTH"
);
}
);
};
layerId = "0E6515C6-4BDD-456A-90F7-F5B263F1D284";
paths = (
{
closed = 1;
nodes = (
"257 -12 OFFCURVE",
"326 27 OFFCURVE",
"361 81 CURVE",
"355 93 LINE",
"336 0 LINE",
"407 0 LINE",
"515 526 LINE",
"137 526 LINE",
"122 456 LINE",
"430 456 LINE",
"382 218 LINE",
"361 123 OFFCURVE",
"291 57 OFFCURVE",
"200 57 CURVE SMOOTH",
"137 57 OFFCURVE",
"93 89 OFFCURVE",
"93 143 CURVE SMOOTH",
"93 199 OFFCURVE",
"141 238 OFFCURVE",
"222 248 CURVE SMOOTH",
"407 271 LINE",
"420 331 LINE",
"216 306 LINE SMOOTH",
"102 292 OFFCURVE",
"17 237 OFFCURVE",
"17 139 CURVE SMOOTH",
"17 44 OFFCURVE",
"96 -12 OFFCURVE",
"184 -12 CURVE SMOOTH"
);
}
);
width = 533;
},
{
background = {
paths = (
{
closed = 1;
nodes = (
"266 -12 OFFCURVE",
"318 12 OFFCURVE",
"372 75 CURVE",
"337 73 LINE",
"322 0 LINE",
"462 0 LINE",
"578 546 LINE",
"146 546 LINE",
"119 416 LINE",
"401 416 LINE",
"353 193 LINE SMOOTH",
"341 138 OFFCURVE",
"288 95 OFFCURVE",
"225 95 CURVE SMOOTH",
"180 95 OFFCURVE",
"152 117 OFFCURVE",
"152 152 CURVE SMOOTH",
"152 181 OFFCURVE",
"172 207 OFFCURVE",
"210 212 CURVE SMOOTH",
"374 232 LINE",
"397 338 LINE",
"186 316 LINE SMOOTH",
"53 302 OFFCURVE",
"-3 229 OFFCURVE",
"-3 146 CURVE SMOOTH",
"-3 47 OFFCURVE",
"78 -12 OFFCURVE",
"193 -12 CURVE SMOOTH"
);
}
);
};
layerId = "FF6420B2-C0A6-48EA-9EF6-B9F37DCCE47B";
paths = (
{
closed = 1;
nodes = (
"266 -12 OFFCURVE",
"318 12 OFFCURVE",
"372 75 CURVE",
"337 73 LINE",
"322 0 LINE",
"462 0 LINE",
"578 546 LINE",
"146 546 LINE",
"119 416 LINE",
"401 416 LINE",
"353 193 LINE SMOOTH",
"341 138 OFFCURVE",
"288 95 OFFCURVE",
"225 95 CURVE SMOOTH",
"180 95 OFFCURVE",
"152 117 OFFCURVE",
"152 152 CURVE SMOOTH",
"152 181 OFFCURVE",
"172 207 OFFCURVE",
"210 212 CURVE SMOOTH",
"374 232 LINE",
"397 338 LINE",
"186 316 LINE SMOOTH",
"53 302 OFFCURVE",
"-3 229 OFFCURVE",
"-3 146 CURVE SMOOTH",
"-3 47 OFFCURVE",
"78 -12 OFFCURVE",
"193 -12 CURVE SMOOTH"
);
}
);
width = 570;
}
);
leftKerningGroup = a;
leftMetricsKey = "=a";
rightKerningGroup = a;
rightMetricsKey = "=|n";
},
{
color = 0;
glyphname = a.ss02;
lastChange = "2020-02-21 18:23:50 +0000";
layers = (
{
background = {
paths = (
{
closed = 1;
nodes = (
"301 -12 OFFCURVE",
"376 33 OFFCURVE",
"404 96 CURVE",
"396 108 LINE",
"396 0 LINE",
"534 0 LINE",
"534 69 LINE",
"466 69 LINE",
"466 359 LINE SMOOTH",
"466 464 OFFCURVE",
"384 538 OFFCURVE",
"267 538 CURVE SMOOTH",
"174 538 OFFCURVE",
"90 483 OFFCURVE",
"60 415 CURVE",
"124 381 LINE",
"149 433 OFFCURVE",
"200 468 OFFCURVE",
"267 468 CURVE SMOOTH",
"342 468 OFFCURVE",
"396 425 OFFCURVE",
"396 359 CURVE SMOOTH",
"396 233 LINE SMOOTH",
"396 132 OFFCURVE",
"325 57 OFFCURVE",
"226 57 CURVE SMOOTH",
"158 57 OFFCURVE",
"115 92 OFFCURVE",
"115 146 CURVE SMOOTH",
"115 193 OFFCURVE",
"160 230 OFFCURVE",
"227 245 CURVE SMOOTH",
"411 287 LINE",
"411 348 LINE",
"209 302 LINE SMOOTH",
"103 278 OFFCURVE",
"40 224 OFFCURVE",
"40 147 CURVE SMOOTH",
"40 53 OFFCURVE",
"115 -12 OFFCURVE",
"226 -12 CURVE SMOOTH"
);
}
);
};
layerId = "30C2FD74-1A74-41AC-9C29-B288AE1DBDD7";
paths = (
{
closed = 1;
nodes = (
"301 -12 OFFCURVE",
"376 33 OFFCURVE",
"404 96 CURVE",
"396 108 LINE",
"396 0 LINE",
"534 0 LINE",
"534 69 LINE",
"466 69 LINE",
"466 359 LINE SMOOTH",
"466 464 OFFCURVE",
"384 538 OFFCURVE",
"267 538 CURVE SMOOTH",
"174 538 OFFCURVE",
"90 483 OFFCURVE",
"60 415 CURVE",
"124 381 LINE",
"149 433 OFFCURVE",
"200 468 OFFCURVE",
"267 468 CURVE SMOOTH",
"342 468 OFFCURVE",
"396 425 OFFCURVE",
"396 359 CURVE SMOOTH",
"396 233 LINE SMOOTH",
"396 132 OFFCURVE",
"325 57 OFFCURVE",
"226 57 CURVE SMOOTH",
"158 57 OFFCURVE",
"115 92 OFFCURVE",
"115 146 CURVE SMOOTH",
"115 193 OFFCURVE",
"160 230 OFFCURVE",
"227 245 CURVE SMOOTH",
"411 287 LINE",
"411 348 LINE",
"209 302 LINE SMOOTH",
"103 278 OFFCURVE",
"40 224 OFFCURVE",
"40 147 CURVE SMOOTH",
"40 53 OFFCURVE",
"115 -12 OFFCURVE",
"226 -12 CURVE SMOOTH"
);
}
);
width = 564;
},
{
background = {
paths = (
{
closed = 1;
nodes = (
"304 -12 OFFCURVE",
"363 19 OFFCURVE",
"410 94 CURVE",
"376 88 LINE",
"376 0 LINE",
"601 0 LINE",
"601 120 LINE",
"516 120 LINE",
"516 360 LINE SMOOTH",
"516 477 OFFCURVE",
"421 558 OFFCURVE",
"282 558 CURVE SMOOTH",
"166 558 OFFCURVE",
"72 500 OFFCURVE",
"40 410 CURVE",
"169 348 LINE",
"185 397 OFFCURVE",
"229 428 OFFCURVE",
"282 428 CURVE SMOOTH",
"332 428 OFFCURVE",
"366 401 OFFCURVE",
"366 360 CURVE SMOOTH",
"366 208 LINE SMOOTH",
"366 147 OFFCURVE",
"313 98 OFFCURVE",
"245 98 CURVE SMOOTH",
"202 98 OFFCURVE",
"175 118 OFFCURVE",
"175 151 CURVE SMOOTH",
"175 176 OFFCURVE",
"191 195 OFFCURVE",
"222 202 CURVE SMOOTH",
"382 238 LINE",
"382 345 LINE",
"195 306 LINE SMOOTH",
"84 283 OFFCURVE",
"20 230 OFFCURVE",
"20 149 CURVE SMOOTH",
"20 58 OFFCURVE",
"98 -12 OFFCURVE",
"222 -12 CURVE SMOOTH"
);
}
);
};
layerId = "9398AC28-6BE1-4A79-9C94-3CBC2F226CE7";
paths = (
{
closed = 1;
nodes = (
"304 -12 OFFCURVE",
"363 19 OFFCURVE",
"410 94 CURVE",
"376 88 LINE",
"376 0 LINE",
"601 0 LINE",
"601 120 LINE",
"516 120 LINE",
"516 360 LINE SMOOTH",
"516 477 OFFCURVE",
"421 558 OFFCURVE",
"282 558 CURVE SMOOTH",
"166 558 OFFCURVE",
"72 500 OFFCURVE",
"40 410 CURVE",
"169 348 LINE",
"185 397 OFFCURVE",
"229 428 OFFCURVE",
"282 428 CURVE SMOOTH",
"332 428 OFFCURVE",
"366 401 OFFCURVE",
"366 360 CURVE SMOOTH",
"366 208 LINE SMOOTH",
"366 147 OFFCURVE",
"313 98 OFFCURVE",
"245 98 CURVE SMOOTH",
"202 98 OFFCURVE",
"175 118 OFFCURVE",
"175 151 CURVE SMOOTH",
"175 176 OFFCURVE",
"191 195 OFFCURVE",
"222 202 CURVE SMOOTH",
"382 238 LINE",
"382 345 LINE",
"195 306 LINE SMOOTH",
"84 283 OFFCURVE",
"20 230 OFFCURVE",
"20 149 CURVE SMOOTH",
"20 58 OFFCURVE",
"98 -12 OFFCURVE",
"222 -12 CURVE SMOOTH"
);
}
);
width = 611;
},
{
background = {
paths = (
{
closed = 1;
nodes = (
"257 -12 OFFCURVE",
"327 22 OFFCURVE",
"376 86 CURVE",
"367 100 LINE",
"344 0 LINE",
"473 0 LINE",
"488 69 LINE",
"420 69 LINE",
"475 332 LINE SMOOTH",
"500 450 OFFCURVE",
"420 538 OFFCURVE",
"297 538 CURVE SMOOTH",
"214 538 OFFCURVE",
"135 495 OFFCURVE",
"95 436 CURVE",
"151 395 LINE",
"183 440 OFFCURVE",
"232 468 OFFCURVE",
"288 468 CURVE SMOOTH",
"367 468 OFFCURVE",
"423 418 OFFCURVE",
"406 339 CURVE SMOOTH",
"379 215 LINE SMOOTH",
"358 118 OFFCURVE",
"284 56 OFFCURVE",
"195 56 CURVE SMOOTH",
"131 56 OFFCURVE",
"92 88 OFFCURVE",
"92 138 CURVE SMOOTH",
"92 198 OFFCURVE",
"147 235 OFFCURVE",
"220 244 CURVE SMOOTH",
"405 267 LINE",
"418 328 LINE",
"215 302 LINE SMOOTH",
"58 282 OFFCURVE",
"16 201 OFFCURVE",
"16 131 CURVE SMOOTH",
"16 38 OFFCURVE",
"97 -12 OFFCURVE",
"183 -12 CURVE SMOOTH"
);
}
);
};
layerId = "0E6515C6-4BDD-456A-90F7-F5B263F1D284";
paths = (
{
closed = 1;
nodes = (
"257 -12 OFFCURVE",
"327 22 OFFCURVE",
"376 86 CURVE",
"367 100 LINE",
"344 0 LINE",
"473 0 LINE",
"488 69 LINE",
"420 69 LINE",
"475 332 LINE SMOOTH",
"500 450 OFFCURVE",
"420 538 OFFCURVE",
"297 538 CURVE SMOOTH",
"214 538 OFFCURVE",
"135 495 OFFCURVE",
"95 436 CURVE",
"151 395 LINE",
"183 440 OFFCURVE",
"232 468 OFFCURVE",
"288 468 CURVE SMOOTH",
"367 468 OFFCURVE",
"423 418 OFFCURVE",
"406 339 CURVE SMOOTH",
"379 215 LINE SMOOTH",
"358 118 OFFCURVE",
"284 56 OFFCURVE",
"195 56 CURVE SMOOTH",
"131 56 OFFCURVE",
"92 88 OFFCURVE",
"92 138 CURVE SMOOTH",
"92 198 OFFCURVE",
"147 235 OFFCURVE",
"220 244 CURVE SMOOTH",
"405 267 LINE",
"418 328 LINE",
"215 302 LINE SMOOTH",
"58 282 OFFCURVE",
"16 201 OFFCURVE",
"16 131 CURVE SMOOTH",
"16 38 OFFCURVE",
"97 -12 OFFCURVE",
"183 -12 CURVE SMOOTH"
);
}
);
width = 559;
},
{
background = {
paths = (
{
closed = 1;
nodes = (
"266 -12 OFFCURVE",
"318 12 OFFCURVE",
"372 75 CURVE",
"337 73 LINE",
"322 0 LINE",
"547 0 LINE",
"572 119 LINE",
"487 119 LINE",
"531 328 LINE SMOOTH",
"559 461 OFFCURVE",
"463 558 OFFCURVE",
"308 558 CURVE SMOOTH",
"204 558 OFFCURVE",
"122 514 OFFCURVE",
"75 435 CURVE",
"189 360 LINE",
"212 402 OFFCURVE",
"255 428 OFFCURVE",
"303 428 CURVE SMOOTH",
"360 428 OFFCURVE",
"394 393 OFFCURVE",
"384 344 CURVE SMOOTH",
"353 193 LINE SMOOTH",
"342 138 OFFCURVE",
"288 95 OFFCURVE",
"225 95 CURVE SMOOTH",
"180 95 OFFCURVE",
"152 117 OFFCURVE",
"152 152 CURVE SMOOTH",
"152 181 OFFCURVE",
"172 207 OFFCURVE",
"210 212 CURVE SMOOTH",
"374 232 LINE",
"397 338 LINE",
"186 316 LINE SMOOTH",
"53 302 OFFCURVE",
"-3 229 OFFCURVE",
"-3 146 CURVE SMOOTH",
"-3 47 OFFCURVE",
"78 -12 OFFCURVE",
"193 -12 CURVE SMOOTH"
);
}
);
};
layerId = "FF6420B2-C0A6-48EA-9EF6-B9F37DCCE47B";
paths = (
{
closed = 1;
nodes = (
"266 -12 OFFCURVE",
"318 12 OFFCURVE",
"372 75 CURVE",
"337 73 LINE",
"322 0 LINE",
"547 0 LINE",
"572 119 LINE",
"487 119 LINE",
"531 328 LINE SMOOTH",
"559 461 OFFCURVE",
"463 558 OFFCURVE",
"308 558 CURVE SMOOTH",
"204 558 OFFCURVE",
"122 514 OFFCURVE",
"75 435 CURVE",
"189 360 LINE",
"212 402 OFFCURVE",
"255 428 OFFCURVE",
"303 428 CURVE SMOOTH",
"360 428 OFFCURVE",
"394 393 OFFCURVE",
"384 344 CURVE SMOOTH",
"353 193 LINE SMOOTH",
"342 138 OFFCURVE",
"288 95 OFFCURVE",
"225 95 CURVE SMOOTH",
"180 95 OFFCURVE",
"152 117 OFFCURVE",
"152 152 CURVE SMOOTH",
"152 181 OFFCURVE",
"172 207 OFFCURVE",
"210 212 CURVE SMOOTH",
"374 232 LINE",
"397 338 LINE",
"186 316 LINE SMOOTH",
"53 302 OFFCURVE",
"-3 229 OFFCURVE",
"-3 146 CURVE SMOOTH",
"-3 47 OFFCURVE",
"78 -12 OFFCURVE",
"193 -12 CURVE SMOOTH"
);
}
);
width = 615;
}
);
leftKerningGroup = a;
leftMetricsKey = "=a";
rightKerningGroup = a;
rightMetricsKey = "=l-40";
},
